M48
; DRILL file {KiCad 9.0.6-9.0.6~ubuntu24.04.1} date 2026-01-15T22:14:19+0100
; FORMAT={-:-/ absolute / metric / decimal}
; #@! TF.CreationDate,2026-01-15T22:14:19+01:00
; #@! TF.GenerationSoftware,Kicad,Pcbnew,9.0.6-9.0.6~ubuntu24.04.1
; #@! TF.FileFunction,Plated,1,2,PTH
FMAT,2
METRIC
; #@! TA.AperFunction,Plated,PTH,ViaDrill
T1C0.300
; #@! TA.AperFunction,Plated,PTH,ComponentDrill
T2C0.800
; #@! TA.AperFunction,Plated,PTH,ComponentDrill
T3C0.950
; #@! TA.AperFunction,Plated,PTH,ComponentDrill
T4C1.000
; #@! TA.AperFunction,Plated,PTH,ComponentDrill
T5C1.016
%
G90
G05
T1
X109.307Y-112.962
X120.379Y-113.151
X127.77Y-83.971
X130.781Y-95.5
X135.298Y-52.71
X135.593Y-87.83
X136.129Y-51.88
X137.967Y-94.179
X139.175Y-83.3
X139.175Y-88.9
X142.039Y-86.022
X142.341Y-111.583
X145.684Y-86.016
X151.374Y-100.45
X153.202Y-103.396
X153.775Y-114.1
X153.775Y-117.3
X156.187Y-85.531
X161.575Y-67.7
X161.838Y-93.707
X161.975Y-62.5
X164.41Y-92.335
X168.327Y-91.4
X169.045Y-93.463
X173.654Y-64.33
X173.682Y-62.068
X183.041Y-97.466
X190.975Y-92.1
X190.975Y-95.3
T2
X101.775Y-87.88
X101.775Y-95.5
X108.375Y-76.0
X108.375Y-78.54
X108.375Y-81.08
X108.375Y-83.62
X108.375Y-86.16
X108.375Y-88.7
X108.375Y-91.24
X108.375Y-93.78
X108.375Y-96.32
X108.375Y-98.86
X108.375Y-101.4
X108.375Y-103.94
X108.375Y-106.48
X108.375Y-109.02
X108.375Y-111.56
X108.375Y-114.1
X108.375Y-116.64
X108.379Y-70.923
X108.379Y-73.463
X111.555Y-58.7
X119.175Y-58.7
X126.155Y-58.9
X133.775Y-58.9
X133.775Y-70.92
X133.775Y-73.46
X133.775Y-76.0
X133.775Y-78.54
X133.775Y-81.08
X133.775Y-83.62
X133.775Y-86.16
X133.775Y-88.7
X133.775Y-91.24
X133.775Y-93.78
X133.775Y-96.32
X133.775Y-98.86
X133.775Y-101.4
X133.775Y-103.94
X133.775Y-106.48
X133.775Y-109.02
X133.775Y-111.56
X133.775Y-114.1
X133.775Y-116.64
X138.352Y-141.795
X138.377Y-139.255
X138.479Y-128.333
X138.479Y-130.873
X157.275Y-128.46
X157.275Y-131.0
X157.275Y-141.795
X157.3Y-139.255
T3
X142.775Y-113.25
X145.275Y-113.25
X147.775Y-113.25
X166.075Y-132.1
X168.575Y-132.1
X171.075Y-132.1
X173.575Y-132.1
X174.775Y-84.0
X174.775Y-86.5
X174.775Y-89.0
X174.775Y-91.5
X174.775Y-94.0
X174.775Y-96.5
X174.775Y-99.0
X174.775Y-101.5
X184.775Y-63.0
X184.775Y-65.5
X184.775Y-68.0
X184.775Y-70.5
X184.775Y-73.0
X184.775Y-75.5
X184.775Y-78.0
X184.775Y-80.5
X184.775Y-83.0
X184.775Y-85.5
T4
X116.235Y-128.5
X118.775Y-128.5
X121.315Y-128.5
X123.175Y-134.51
X123.175Y-139.1
X123.855Y-128.5
X125.715Y-134.51
X125.715Y-139.1
X126.395Y-128.5
X128.255Y-134.51
X128.255Y-139.1
X128.935Y-128.5
X130.795Y-134.51
X130.795Y-139.1
X134.535Y-122.0
X137.075Y-122.0
X139.615Y-122.0
X140.815Y-105.7
X142.155Y-122.0
X143.355Y-105.7
X144.695Y-122.0
X145.895Y-105.7
X147.235Y-122.0
X148.435Y-105.7
X149.775Y-122.0
X150.975Y-105.7
X152.315Y-122.0
X154.855Y-122.0
X157.395Y-122.0
X157.445Y-116.33
X159.985Y-116.33
X162.525Y-116.33
X164.435Y-77.5
X165.065Y-116.33
X165.775Y-88.34
X165.775Y-90.88
X165.775Y-93.42
X165.775Y-95.96
X165.775Y-98.5
X166.975Y-77.5
X169.515Y-77.5
X172.055Y-77.5
X174.947Y-108.878
X174.947Y-111.418
X174.947Y-119.038
X174.947Y-121.578
X174.95Y-113.958
X174.95Y-116.498
T5
X142.385Y-88.997
X142.385Y-91.537
X142.385Y-94.077
X142.385Y-96.617
X151.135Y-72.65
X153.675Y-72.65
X156.215Y-72.65
X158.755Y-72.65
X161.295Y-72.65
X163.835Y-72.65
X166.375Y-72.65
X168.915Y-72.65
M30
