G04 #@! TF.GenerationSoftware,KiCad,Pcbnew,9.0.6-9.0.6~ubuntu24.04.1*
G04 #@! TF.CreationDate,2026-01-15T22:16:43+01:00*
G04 #@! TF.ProjectId,tuba-electronics,74756261-2d65-46c6-9563-74726f6e6963,0*
G04 #@! TF.SameCoordinates,Original*
G04 #@! TF.FileFunction,Profile,NP*
%FSLAX46Y46*%
G04 Gerber Fmt 4.6, Leading zero omitted, Abs format (unit mm)*
G04 Created by KiCad (PCBNEW 9.0.6-9.0.6~ubuntu24.04.1) date 2026-01-15 22:16:43*
%MOMM*%
%LPD*%
G01*
G04 APERTURE LIST*
G04 #@! TA.AperFunction,Profile*
%ADD10C,0.200000*%
G04 #@! TD*
G04 APERTURE END LIST*
D10*
X194516537Y-121629927D02*
X194516537Y-101499999D01*
X204236495Y-70141559D02*
X204236498Y-70141562D01*
X88775000Y-103300000D02*
X96216538Y-103300000D01*
X105916537Y-121629928D02*
G75*
G02*
X100014318Y-123343983I-3199997J-2D01*
G01*
X209366537Y-91500000D02*
G75*
G02*
X206066537Y-91500000I-1650000J0D01*
G01*
X206066537Y-91500000D02*
G75*
G02*
X209366537Y-91500000I1650000J0D01*
G01*
X204696975Y-115294630D02*
G75*
G02*
X200418761Y-123343986I-54480275J23794530D01*
G01*
X210870766Y-70921687D02*
G75*
G02*
X209166198Y-73299998I-1704566J-578313D01*
G01*
X211658007Y-79700000D02*
X204216537Y-79700000D01*
X209166197Y-109700000D02*
G75*
G02*
X210870768Y-112078314I3J-1800000D01*
G01*
X200418759Y-123343985D02*
G75*
G02*
X194516455Y-121629927I-2702259J1714085D01*
G01*
X197716537Y-84700000D02*
G75*
G02*
X194516500Y-81500000I-37J3200000D01*
G01*
X96216537Y-79700000D02*
X88763653Y-79700000D01*
X202916537Y-81000000D02*
G75*
G02*
X204216537Y-79700037I1299963J0D01*
G01*
X91266817Y-73300000D02*
X96216537Y-73300000D01*
X94366537Y-91500000D02*
G75*
G02*
X91066537Y-91500000I-1650000J0D01*
G01*
X91066537Y-91500000D02*
G75*
G02*
X94366537Y-91500000I1650000J0D01*
G01*
X100716536Y-98300000D02*
X102716538Y-98300000D01*
X97516537Y-101499999D02*
G75*
G02*
X100716536Y-98300037I3199963J-1D01*
G01*
X91266817Y-73300000D02*
G75*
G02*
X89562239Y-70921664I-17J1800000D01*
G01*
X203297299Y-111919240D02*
X204236512Y-112858452D01*
X204236498Y-70141562D02*
X203297298Y-71080761D01*
X89562308Y-70921687D02*
G75*
G02*
X210870766Y-70921687I60654229J-20578313D01*
G01*
X105916537Y-61370070D02*
X105916537Y-81500000D01*
X96196563Y-112858451D02*
X97135775Y-111919240D01*
X194516537Y-81500000D02*
X194516537Y-61370070D01*
X100014315Y-123343985D02*
G75*
G02*
X95736096Y-115294631I50201985J31843885D01*
G01*
X96196576Y-70141562D02*
G75*
G02*
X95736088Y-67705365I1555624J1555662D01*
G01*
X151866537Y-34000000D02*
G75*
G02*
X148566537Y-34000000I-1650000J0D01*
G01*
X148566537Y-34000000D02*
G75*
G02*
X151866537Y-34000000I1650000J0D01*
G01*
X197716536Y-98300000D02*
X199716538Y-98300000D01*
X199716538Y-98300000D02*
G75*
G02*
X202916500Y-101499999I-38J-3200000D01*
G01*
X95736099Y-115294630D02*
G75*
G02*
X96196572Y-112858460I2016101J880530D01*
G01*
X100014315Y-59656015D02*
G75*
G02*
X105916541Y-61370070I2702225J-1714055D01*
G01*
X192525177Y-132158640D02*
G75*
G02*
X189225177Y-132158640I-1650000J0D01*
G01*
X189225177Y-132158640D02*
G75*
G02*
X192525177Y-132158640I1650000J0D01*
G01*
X213434697Y-101789157D02*
G75*
G02*
X211658075Y-103299975I-1776597J289157D01*
G01*
X97516537Y-102000001D02*
X97516537Y-101499999D01*
X213434697Y-81210843D02*
G75*
G02*
X213434697Y-101789157I-63218197J-10289157D01*
G01*
X102716537Y-84700000D02*
X100716537Y-84700000D01*
X202916537Y-101499999D02*
X202916537Y-102000000D01*
X105916537Y-101499999D02*
X105916537Y-121629928D01*
X204216537Y-73300000D02*
X209166198Y-73300000D01*
X97516537Y-81500000D02*
X97516537Y-81000000D01*
X202916537Y-81000000D02*
X202916537Y-81500000D01*
X211658007Y-79700000D02*
G75*
G02*
X213434707Y-81210841I-7J-1800100D01*
G01*
X105916537Y-81500000D02*
G75*
G02*
X102716537Y-84700037I-3200037J0D01*
G01*
X202916537Y-81500000D02*
G75*
G02*
X199716537Y-84700037I-3200037J0D01*
G01*
X96216536Y-109700000D02*
X91266877Y-109700000D01*
X96216537Y-79700000D02*
G75*
G02*
X97516500Y-81000000I-37J-1300000D01*
G01*
X96216536Y-109700000D02*
G75*
G02*
X97135756Y-111919221I-36J-1300000D01*
G01*
X111207897Y-132158640D02*
G75*
G02*
X107907897Y-132158640I-1650000J0D01*
G01*
X107907897Y-132158640D02*
G75*
G02*
X111207897Y-132158640I1650000J0D01*
G01*
X192525177Y-50841360D02*
G75*
G02*
X189225177Y-50841360I-1650000J0D01*
G01*
X189225177Y-50841360D02*
G75*
G02*
X192525177Y-50841360I1650000J0D01*
G01*
X210870766Y-112078313D02*
G75*
G02*
X89562308Y-112078313I-60654229J20578313D01*
G01*
X194516537Y-101499999D02*
G75*
G02*
X197716536Y-98300037I3199963J-1D01*
G01*
X97135776Y-71080761D02*
G75*
G02*
X96216537Y-73300026I-919276J-919239D01*
G01*
X95736099Y-67705370D02*
G75*
G02*
X100014319Y-59656018I54481301J-23795130D01*
G01*
X200418759Y-59656015D02*
G75*
G02*
X204696977Y-67705369I-50201059J-31843385D01*
G01*
X194516538Y-121629927D02*
X194516537Y-121629927D01*
X203297299Y-111919240D02*
G75*
G02*
X204216539Y-109700026I919201J919240D01*
G01*
X86998377Y-101789157D02*
G75*
G02*
X86998377Y-81210843I63218123J10289157D01*
G01*
X97516537Y-102000001D02*
G75*
G02*
X96216538Y-103300037I-1300037J1D01*
G01*
X97135776Y-71080761D02*
X96196576Y-70141562D01*
X199716537Y-84700000D02*
X197716537Y-84700000D01*
X204236512Y-112858452D02*
G75*
G02*
X204696991Y-115294637I-1555612J-1555648D01*
G01*
X204216537Y-103300000D02*
X211658075Y-103300000D01*
X204216537Y-103300000D02*
G75*
G02*
X202916500Y-102000000I-37J1300000D01*
G01*
X194516537Y-61370070D02*
G75*
G02*
X200418689Y-59656059I3199963J-30D01*
G01*
X204216537Y-73300000D02*
G75*
G02*
X203297280Y-71080743I-37J1300000D01*
G01*
X209166197Y-109700000D02*
X204216539Y-109700000D01*
X86998377Y-81210843D02*
G75*
G02*
X88763653Y-79699937I1776723J-289157D01*
G01*
X102716538Y-98300000D02*
G75*
G02*
X105916500Y-101499999I-38J-3200000D01*
G01*
X111207897Y-50841360D02*
G75*
G02*
X107907897Y-50841360I-1650000J0D01*
G01*
X107907897Y-50841360D02*
G75*
G02*
X111207897Y-50841360I1650000J0D01*
G01*
X100716537Y-84700000D02*
G75*
G02*
X97516500Y-81500000I-37J3200000D01*
G01*
X151866537Y-149000000D02*
G75*
G02*
X148566537Y-149000000I-1650000J0D01*
G01*
X148566537Y-149000000D02*
G75*
G02*
X151866537Y-149000000I1650000J0D01*
G01*
X204696975Y-67705370D02*
G75*
G02*
X204236500Y-70141564I-2016175J-880530D01*
G01*
X89562308Y-112078313D02*
G75*
G02*
X91266877Y-109699978I1704592J578313D01*
G01*
X88775000Y-103300000D02*
G75*
G02*
X86998377Y-101789157I0J1800000D01*
G01*
M02*
