%TF.GenerationSoftware,KiCad,Pcbnew,9.0.6-9.0.6~ubuntu24.04.1*%
%TF.CreationDate,2026-01-15T22:14:19+01:00*%
%TF.ProjectId,tuba-electronics,74756261-2d65-46c6-9563-74726f6e6963,0*%
%TF.SameCoordinates,Original*%
%TF.FileFunction,Drillmap*%
%TF.FilePolarity,Positive*%
%FSLAX45Y45*%
G04 Gerber Fmt 4.5, Leading zero omitted, Abs format (unit mm)*
G04 Created by KiCad (PCBNEW 9.0.6-9.0.6~ubuntu24.04.1) date 2026-01-15 22:14:19*
%MOMM*%
%LPD*%
G01*
G04 APERTURE LIST*
%ADD10C,0.200000*%
%ADD11C,0.100000*%
%ADD12C,0.101600*%
G04 APERTURE END LIST*
D10*
X19451654Y-12162993D02*
X19451654Y-10150000D01*
X20423650Y-7014156D02*
X20423650Y-7014156D01*
X8877500Y-10330000D02*
X9621654Y-10330000D01*
X10591654Y-12162993D02*
G75*
G02*
X10001432Y-12334398I-320000J0D01*
G01*
X20936654Y-9150000D02*
G75*
G02*
X20606654Y-9150000I-165000J0D01*
G01*
X20606654Y-9150000D02*
G75*
G02*
X20936654Y-9150000I165000J0D01*
G01*
X20469698Y-11529463D02*
G75*
G02*
X20041876Y-12334399I-5448028J2379453D01*
G01*
X21087077Y-7092169D02*
G75*
G02*
X20916620Y-7330000I-170457J-57831D01*
G01*
X21165801Y-7970000D02*
X20421654Y-7970000D01*
X20916620Y-10970000D02*
G75*
G02*
X21087077Y-11207831I0J-180000D01*
G01*
X20041876Y-12334398D02*
G75*
G02*
X19451646Y-12162993I-270226J171409D01*
G01*
X19771654Y-8470000D02*
G75*
G02*
X19451650Y-8150000I-4J320000D01*
G01*
X9621654Y-7970000D02*
X8876365Y-7970000D01*
X20291654Y-8100000D02*
G75*
G02*
X20421654Y-7970004I129996J0D01*
G01*
X9126682Y-7330000D02*
X9621654Y-7330000D01*
X9436654Y-9150000D02*
G75*
G02*
X9106654Y-9150000I-165000J0D01*
G01*
X9106654Y-9150000D02*
G75*
G02*
X9436654Y-9150000I165000J0D01*
G01*
X10071654Y-9830000D02*
X10271654Y-9830000D01*
X9751654Y-10150000D02*
G75*
G02*
X10071654Y-9830004I319996J0D01*
G01*
X9126682Y-7330000D02*
G75*
G02*
X8956224Y-7092166I-2J180000D01*
G01*
X20329730Y-11191924D02*
X20423651Y-11285845D01*
X20423650Y-7014156D02*
X20329730Y-7108076D01*
X8956231Y-7092169D02*
G75*
G02*
X21087077Y-7092169I6065423J-2057831D01*
G01*
X10591654Y-6137007D02*
X10591654Y-8150000D01*
X9619656Y-11285845D02*
X9713578Y-11191924D01*
X19451654Y-8150000D02*
X19451654Y-6137007D01*
X10001432Y-12334398D02*
G75*
G02*
X9573610Y-11529463I5020198J3184388D01*
G01*
X9619658Y-7014156D02*
G75*
G02*
X9573609Y-6770536I155562J155566D01*
G01*
X15186654Y-3400000D02*
G75*
G02*
X14856654Y-3400000I-165000J0D01*
G01*
X14856654Y-3400000D02*
G75*
G02*
X15186654Y-3400000I165000J0D01*
G01*
X19771654Y-9830000D02*
X19971654Y-9830000D01*
X19971654Y-9830000D02*
G75*
G02*
X20291650Y-10150000I-4J-320000D01*
G01*
X9573610Y-11529463D02*
G75*
G02*
X9619657Y-11285846I201610J88053D01*
G01*
X10001432Y-5965601D02*
G75*
G02*
X10591654Y-6137007I270223J-171406D01*
G01*
X19252518Y-13215864D02*
G75*
G02*
X18922518Y-13215864I-165000J0D01*
G01*
X18922518Y-13215864D02*
G75*
G02*
X19252518Y-13215864I165000J0D01*
G01*
X21343470Y-10178916D02*
G75*
G02*
X21165808Y-10329998I-177660J28916D01*
G01*
X9751654Y-10200000D02*
X9751654Y-10150000D01*
X21343470Y-8121084D02*
G75*
G02*
X21343470Y-10178916I-6321820J-1028916D01*
G01*
X10271654Y-8470000D02*
X10071654Y-8470000D01*
X20291654Y-10150000D02*
X20291654Y-10200000D01*
X10591654Y-10150000D02*
X10591654Y-12162993D01*
X20421654Y-7330000D02*
X20916620Y-7330000D01*
X9751654Y-8150000D02*
X9751654Y-8100000D01*
X20291654Y-8100000D02*
X20291654Y-8150000D01*
X21165801Y-7970000D02*
G75*
G02*
X21343471Y-8121084I-1J-180010D01*
G01*
X10591654Y-8150000D02*
G75*
G02*
X10271654Y-8470004I-320004J0D01*
G01*
X20291654Y-8150000D02*
G75*
G02*
X19971654Y-8470004I-320004J0D01*
G01*
X9621654Y-10970000D02*
X9126688Y-10970000D01*
X9621654Y-7970000D02*
G75*
G02*
X9751650Y-8100000I-4J-130000D01*
G01*
X9621654Y-10970000D02*
G75*
G02*
X9713576Y-11191922I-4J-130000D01*
G01*
X11120790Y-13215864D02*
G75*
G02*
X10790790Y-13215864I-165000J0D01*
G01*
X10790790Y-13215864D02*
G75*
G02*
X11120790Y-13215864I165000J0D01*
G01*
X19252518Y-5084136D02*
G75*
G02*
X18922518Y-5084136I-165000J0D01*
G01*
X18922518Y-5084136D02*
G75*
G02*
X19252518Y-5084136I165000J0D01*
G01*
X21087077Y-11207831D02*
G75*
G02*
X8956231Y-11207831I-6065423J2057831D01*
G01*
X19451654Y-10150000D02*
G75*
G02*
X19771654Y-9830004I319996J0D01*
G01*
X9713578Y-7108076D02*
G75*
G02*
X9621654Y-7330003I-91928J-91924D01*
G01*
X9573610Y-6770537D02*
G75*
G02*
X10001432Y-5965602I5448130J-2379513D01*
G01*
X20041876Y-5965601D02*
G75*
G02*
X20469698Y-6770537I-5020106J-3184339D01*
G01*
X19451654Y-12162993D02*
X19451654Y-12162993D01*
X20329730Y-11191924D02*
G75*
G02*
X20421654Y-10970003I91920J91924D01*
G01*
X8699838Y-10178916D02*
G75*
G02*
X8699838Y-8121084I6321812J1028916D01*
G01*
X9751654Y-10200000D02*
G75*
G02*
X9621654Y-10330004I-130004J0D01*
G01*
X9713578Y-7108076D02*
X9619658Y-7014156D01*
X19971654Y-8470000D02*
X19771654Y-8470000D01*
X20423651Y-11285845D02*
G75*
G02*
X20469699Y-11529464I-155561J-155565D01*
G01*
X20421654Y-10330000D02*
X21165808Y-10330000D01*
X20421654Y-10330000D02*
G75*
G02*
X20291650Y-10200000I-4J130000D01*
G01*
X19451654Y-6137007D02*
G75*
G02*
X20041869Y-5965606I319996J-3D01*
G01*
X20421654Y-7330000D02*
G75*
G02*
X20329728Y-7108074I-4J130000D01*
G01*
X20916620Y-10970000D02*
X20421654Y-10970000D01*
X8699838Y-8121084D02*
G75*
G02*
X8876365Y-7969994I177672J-28916D01*
G01*
X10271654Y-9830000D02*
G75*
G02*
X10591650Y-10150000I-4J-320000D01*
G01*
X11120790Y-5084136D02*
G75*
G02*
X10790790Y-5084136I-165000J0D01*
G01*
X10790790Y-5084136D02*
G75*
G02*
X11120790Y-5084136I165000J0D01*
G01*
X10071654Y-8470000D02*
G75*
G02*
X9751650Y-8150000I-4J320000D01*
G01*
X15186654Y-14900000D02*
G75*
G02*
X14856654Y-14900000I-165000J0D01*
G01*
X14856654Y-14900000D02*
G75*
G02*
X15186654Y-14900000I165000J0D01*
G01*
X20469698Y-6770537D02*
G75*
G02*
X20423650Y-7014156I-201618J-88053D01*
G01*
X8956231Y-11207831D02*
G75*
G02*
X9126688Y-10969998I170459J57831D01*
G01*
X8877500Y-10330000D02*
G75*
G02*
X8699838Y-10178916I0J180000D01*
G01*
D11*
X10915750Y-11281180D02*
X10945750Y-11311180D01*
X10945750Y-11281180D02*
X10915750Y-11311180D01*
X12022900Y-11300150D02*
X12052900Y-11330150D01*
X12052900Y-11300150D02*
X12022900Y-11330150D01*
X12762010Y-8382060D02*
X12792010Y-8412060D01*
X12792010Y-8382060D02*
X12762010Y-8412060D01*
X13063090Y-9535000D02*
X13093090Y-9565000D01*
X13093090Y-9535000D02*
X13063090Y-9565000D01*
X13514850Y-5256030D02*
X13544850Y-5286030D01*
X13544850Y-5256030D02*
X13514850Y-5286030D01*
X13544300Y-8768040D02*
X13574300Y-8798040D01*
X13574300Y-8768040D02*
X13544300Y-8798040D01*
X13597860Y-5173030D02*
X13627860Y-5203030D01*
X13627860Y-5173030D02*
X13597860Y-5203030D01*
X13781700Y-9402930D02*
X13811700Y-9432930D01*
X13811700Y-9402930D02*
X13781700Y-9432930D01*
X13902500Y-8315000D02*
X13932500Y-8345000D01*
X13932500Y-8315000D02*
X13902500Y-8345000D01*
X13902500Y-8875000D02*
X13932500Y-8905000D01*
X13932500Y-8875000D02*
X13902500Y-8905000D01*
X14188890Y-8587240D02*
X14218890Y-8617240D01*
X14218890Y-8587240D02*
X14188890Y-8617240D01*
X14219110Y-11143320D02*
X14249110Y-11173320D01*
X14249110Y-11143320D02*
X14219110Y-11173320D01*
X14553380Y-8586650D02*
X14583380Y-8616650D01*
X14583380Y-8586650D02*
X14553380Y-8616650D01*
X15122420Y-10029950D02*
X15152420Y-10059950D01*
X15152420Y-10029950D02*
X15122420Y-10059950D01*
X15305190Y-10324570D02*
X15335190Y-10354570D01*
X15335190Y-10324570D02*
X15305190Y-10354570D01*
X15362500Y-11395000D02*
X15392500Y-11425000D01*
X15392500Y-11395000D02*
X15362500Y-11425000D01*
X15362500Y-11715000D02*
X15392500Y-11745000D01*
X15392500Y-11715000D02*
X15362500Y-11745000D01*
X15603700Y-8538100D02*
X15633700Y-8568100D01*
X15633700Y-8538100D02*
X15603700Y-8568100D01*
X16142500Y-6755000D02*
X16172500Y-6785000D01*
X16172500Y-6755000D02*
X16142500Y-6785000D01*
X16168850Y-9355730D02*
X16198850Y-9385730D01*
X16198850Y-9355730D02*
X16168850Y-9385730D01*
X16182500Y-6235000D02*
X16212500Y-6265000D01*
X16212500Y-6235000D02*
X16182500Y-6265000D01*
X16426040Y-9218470D02*
X16456040Y-9248470D01*
X16456040Y-9218470D02*
X16426040Y-9248470D01*
X16817740Y-9124970D02*
X16847740Y-9154970D01*
X16847740Y-9124970D02*
X16817740Y-9154970D01*
X16889480Y-9331340D02*
X16919480Y-9361340D01*
X16919480Y-9331340D02*
X16889480Y-9361340D01*
X17350440Y-6418030D02*
X17380440Y-6448030D01*
X17380440Y-6418030D02*
X17350440Y-6448030D01*
X17353240Y-6191810D02*
X17383240Y-6221810D01*
X17383240Y-6191810D02*
X17353240Y-6221810D01*
X18289090Y-9731580D02*
X18319090Y-9761580D01*
X18319090Y-9731580D02*
X18289090Y-9761580D01*
X19082500Y-9195000D02*
X19112500Y-9225000D01*
X19112500Y-9195000D02*
X19082500Y-9225000D01*
X19082500Y-9515000D02*
X19112500Y-9545000D01*
X19112500Y-9515000D02*
X19082500Y-9545000D01*
X10217500Y-8788000D02*
G75*
G02*
X10137500Y-8788000I-40000J0D01*
G01*
X10137500Y-8788000D02*
G75*
G02*
X10217500Y-8788000I40000J0D01*
G01*
X10217500Y-9550000D02*
G75*
G02*
X10137500Y-9550000I-40000J0D01*
G01*
X10137500Y-9550000D02*
G75*
G02*
X10217500Y-9550000I40000J0D01*
G01*
X10877500Y-7600000D02*
G75*
G02*
X10797500Y-7600000I-40000J0D01*
G01*
X10797500Y-7600000D02*
G75*
G02*
X10877500Y-7600000I40000J0D01*
G01*
X10877500Y-7854000D02*
G75*
G02*
X10797500Y-7854000I-40000J0D01*
G01*
X10797500Y-7854000D02*
G75*
G02*
X10877500Y-7854000I40000J0D01*
G01*
X10877500Y-8108000D02*
G75*
G02*
X10797500Y-8108000I-40000J0D01*
G01*
X10797500Y-8108000D02*
G75*
G02*
X10877500Y-8108000I40000J0D01*
G01*
X10877500Y-8362000D02*
G75*
G02*
X10797500Y-8362000I-40000J0D01*
G01*
X10797500Y-8362000D02*
G75*
G02*
X10877500Y-8362000I40000J0D01*
G01*
X10877500Y-8616000D02*
G75*
G02*
X10797500Y-8616000I-40000J0D01*
G01*
X10797500Y-8616000D02*
G75*
G02*
X10877500Y-8616000I40000J0D01*
G01*
X10877500Y-8870000D02*
G75*
G02*
X10797500Y-8870000I-40000J0D01*
G01*
X10797500Y-8870000D02*
G75*
G02*
X10877500Y-8870000I40000J0D01*
G01*
X10877500Y-9124000D02*
G75*
G02*
X10797500Y-9124000I-40000J0D01*
G01*
X10797500Y-9124000D02*
G75*
G02*
X10877500Y-9124000I40000J0D01*
G01*
X10877500Y-9378000D02*
G75*
G02*
X10797500Y-9378000I-40000J0D01*
G01*
X10797500Y-9378000D02*
G75*
G02*
X10877500Y-9378000I40000J0D01*
G01*
X10877500Y-9632000D02*
G75*
G02*
X10797500Y-9632000I-40000J0D01*
G01*
X10797500Y-9632000D02*
G75*
G02*
X10877500Y-9632000I40000J0D01*
G01*
X10877500Y-9886000D02*
G75*
G02*
X10797500Y-9886000I-40000J0D01*
G01*
X10797500Y-9886000D02*
G75*
G02*
X10877500Y-9886000I40000J0D01*
G01*
X10877500Y-10140000D02*
G75*
G02*
X10797500Y-10140000I-40000J0D01*
G01*
X10797500Y-10140000D02*
G75*
G02*
X10877500Y-10140000I40000J0D01*
G01*
X10877500Y-10394000D02*
G75*
G02*
X10797500Y-10394000I-40000J0D01*
G01*
X10797500Y-10394000D02*
G75*
G02*
X10877500Y-10394000I40000J0D01*
G01*
X10877500Y-10648000D02*
G75*
G02*
X10797500Y-10648000I-40000J0D01*
G01*
X10797500Y-10648000D02*
G75*
G02*
X10877500Y-10648000I40000J0D01*
G01*
X10877500Y-10902000D02*
G75*
G02*
X10797500Y-10902000I-40000J0D01*
G01*
X10797500Y-10902000D02*
G75*
G02*
X10877500Y-10902000I40000J0D01*
G01*
X10877500Y-11156000D02*
G75*
G02*
X10797500Y-11156000I-40000J0D01*
G01*
X10797500Y-11156000D02*
G75*
G02*
X10877500Y-11156000I40000J0D01*
G01*
X10877500Y-11410000D02*
G75*
G02*
X10797500Y-11410000I-40000J0D01*
G01*
X10797500Y-11410000D02*
G75*
G02*
X10877500Y-11410000I40000J0D01*
G01*
X10877500Y-11664000D02*
G75*
G02*
X10797500Y-11664000I-40000J0D01*
G01*
X10797500Y-11664000D02*
G75*
G02*
X10877500Y-11664000I40000J0D01*
G01*
X10877868Y-7092272D02*
G75*
G02*
X10797868Y-7092272I-40000J0D01*
G01*
X10797868Y-7092272D02*
G75*
G02*
X10877868Y-7092272I40000J0D01*
G01*
X10877868Y-7346272D02*
G75*
G02*
X10797868Y-7346272I-40000J0D01*
G01*
X10797868Y-7346272D02*
G75*
G02*
X10877868Y-7346272I40000J0D01*
G01*
X11195500Y-5870000D02*
G75*
G02*
X11115500Y-5870000I-40000J0D01*
G01*
X11115500Y-5870000D02*
G75*
G02*
X11195500Y-5870000I40000J0D01*
G01*
X11957500Y-5870000D02*
G75*
G02*
X11877500Y-5870000I-40000J0D01*
G01*
X11877500Y-5870000D02*
G75*
G02*
X11957500Y-5870000I40000J0D01*
G01*
X12655500Y-5890000D02*
G75*
G02*
X12575500Y-5890000I-40000J0D01*
G01*
X12575500Y-5890000D02*
G75*
G02*
X12655500Y-5890000I40000J0D01*
G01*
X13417500Y-5890000D02*
G75*
G02*
X13337500Y-5890000I-40000J0D01*
G01*
X13337500Y-5890000D02*
G75*
G02*
X13417500Y-5890000I40000J0D01*
G01*
X13417500Y-7092000D02*
G75*
G02*
X13337500Y-7092000I-40000J0D01*
G01*
X13337500Y-7092000D02*
G75*
G02*
X13417500Y-7092000I40000J0D01*
G01*
X13417500Y-7346000D02*
G75*
G02*
X13337500Y-7346000I-40000J0D01*
G01*
X13337500Y-7346000D02*
G75*
G02*
X13417500Y-7346000I40000J0D01*
G01*
X13417500Y-7600000D02*
G75*
G02*
X13337500Y-7600000I-40000J0D01*
G01*
X13337500Y-7600000D02*
G75*
G02*
X13417500Y-7600000I40000J0D01*
G01*
X13417500Y-7854000D02*
G75*
G02*
X13337500Y-7854000I-40000J0D01*
G01*
X13337500Y-7854000D02*
G75*
G02*
X13417500Y-7854000I40000J0D01*
G01*
X13417500Y-8108000D02*
G75*
G02*
X13337500Y-8108000I-40000J0D01*
G01*
X13337500Y-8108000D02*
G75*
G02*
X13417500Y-8108000I40000J0D01*
G01*
X13417500Y-8362000D02*
G75*
G02*
X13337500Y-8362000I-40000J0D01*
G01*
X13337500Y-8362000D02*
G75*
G02*
X13417500Y-8362000I40000J0D01*
G01*
X13417500Y-8616000D02*
G75*
G02*
X13337500Y-8616000I-40000J0D01*
G01*
X13337500Y-8616000D02*
G75*
G02*
X13417500Y-8616000I40000J0D01*
G01*
X13417500Y-8870000D02*
G75*
G02*
X13337500Y-8870000I-40000J0D01*
G01*
X13337500Y-8870000D02*
G75*
G02*
X13417500Y-8870000I40000J0D01*
G01*
X13417500Y-9124000D02*
G75*
G02*
X13337500Y-9124000I-40000J0D01*
G01*
X13337500Y-9124000D02*
G75*
G02*
X13417500Y-9124000I40000J0D01*
G01*
X13417500Y-9378000D02*
G75*
G02*
X13337500Y-9378000I-40000J0D01*
G01*
X13337500Y-9378000D02*
G75*
G02*
X13417500Y-9378000I40000J0D01*
G01*
X13417500Y-9632000D02*
G75*
G02*
X13337500Y-9632000I-40000J0D01*
G01*
X13337500Y-9632000D02*
G75*
G02*
X13417500Y-9632000I40000J0D01*
G01*
X13417500Y-9886000D02*
G75*
G02*
X13337500Y-9886000I-40000J0D01*
G01*
X13337500Y-9886000D02*
G75*
G02*
X13417500Y-9886000I40000J0D01*
G01*
X13417500Y-10140000D02*
G75*
G02*
X13337500Y-10140000I-40000J0D01*
G01*
X13337500Y-10140000D02*
G75*
G02*
X13417500Y-10140000I40000J0D01*
G01*
X13417500Y-10394000D02*
G75*
G02*
X13337500Y-10394000I-40000J0D01*
G01*
X13337500Y-10394000D02*
G75*
G02*
X13417500Y-10394000I40000J0D01*
G01*
X13417500Y-10648000D02*
G75*
G02*
X13337500Y-10648000I-40000J0D01*
G01*
X13337500Y-10648000D02*
G75*
G02*
X13417500Y-10648000I40000J0D01*
G01*
X13417500Y-10902000D02*
G75*
G02*
X13337500Y-10902000I-40000J0D01*
G01*
X13337500Y-10902000D02*
G75*
G02*
X13417500Y-10902000I40000J0D01*
G01*
X13417500Y-11156000D02*
G75*
G02*
X13337500Y-11156000I-40000J0D01*
G01*
X13337500Y-11156000D02*
G75*
G02*
X13417500Y-11156000I40000J0D01*
G01*
X13417500Y-11410000D02*
G75*
G02*
X13337500Y-11410000I-40000J0D01*
G01*
X13337500Y-11410000D02*
G75*
G02*
X13417500Y-11410000I40000J0D01*
G01*
X13417500Y-11664000D02*
G75*
G02*
X13337500Y-11664000I-40000J0D01*
G01*
X13337500Y-11664000D02*
G75*
G02*
X13417500Y-11664000I40000J0D01*
G01*
X13875200Y-14179500D02*
G75*
G02*
X13795200Y-14179500I-40000J0D01*
G01*
X13795200Y-14179500D02*
G75*
G02*
X13875200Y-14179500I40000J0D01*
G01*
X13877740Y-13925500D02*
G75*
G02*
X13797740Y-13925500I-40000J0D01*
G01*
X13797740Y-13925500D02*
G75*
G02*
X13877740Y-13925500I40000J0D01*
G01*
X13887900Y-12833300D02*
G75*
G02*
X13807900Y-12833300I-40000J0D01*
G01*
X13807900Y-12833300D02*
G75*
G02*
X13887900Y-12833300I40000J0D01*
G01*
X13887900Y-13087300D02*
G75*
G02*
X13807900Y-13087300I-40000J0D01*
G01*
X13807900Y-13087300D02*
G75*
G02*
X13887900Y-13087300I40000J0D01*
G01*
X15767500Y-12846000D02*
G75*
G02*
X15687500Y-12846000I-40000J0D01*
G01*
X15687500Y-12846000D02*
G75*
G02*
X15767500Y-12846000I40000J0D01*
G01*
X15767500Y-13100000D02*
G75*
G02*
X15687500Y-13100000I-40000J0D01*
G01*
X15687500Y-13100000D02*
G75*
G02*
X15767500Y-13100000I40000J0D01*
G01*
X15767500Y-14179500D02*
G75*
G02*
X15687500Y-14179500I-40000J0D01*
G01*
X15687500Y-14179500D02*
G75*
G02*
X15767500Y-14179500I40000J0D01*
G01*
X15770040Y-13925500D02*
G75*
G02*
X15690040Y-13925500I-40000J0D01*
G01*
X15690040Y-13925500D02*
G75*
G02*
X15770040Y-13925500I40000J0D01*
G01*
X14277500Y-11277500D02*
X14277500Y-11372500D01*
X14230000Y-11325000D02*
X14325000Y-11325000D01*
X14527500Y-11277500D02*
X14527500Y-11372500D01*
X14480000Y-11325000D02*
X14575000Y-11325000D01*
X14777500Y-11277500D02*
X14777500Y-11372500D01*
X14730000Y-11325000D02*
X14825000Y-11325000D01*
X16607500Y-13162500D02*
X16607500Y-13257500D01*
X16560000Y-13210000D02*
X16655000Y-13210000D01*
X16857500Y-13162500D02*
X16857500Y-13257500D01*
X16810000Y-13210000D02*
X16905000Y-13210000D01*
X17107500Y-13162500D02*
X17107500Y-13257500D01*
X17060000Y-13210000D02*
X17155000Y-13210000D01*
X17357500Y-13162500D02*
X17357500Y-13257500D01*
X17310000Y-13210000D02*
X17405000Y-13210000D01*
X17477500Y-8352500D02*
X17477500Y-8447500D01*
X17430000Y-8400000D02*
X17525000Y-8400000D01*
X17477500Y-8602500D02*
X17477500Y-8697500D01*
X17430000Y-8650000D02*
X17525000Y-8650000D01*
X17477500Y-8852500D02*
X17477500Y-8947500D01*
X17430000Y-8900000D02*
X17525000Y-8900000D01*
X17477500Y-9102500D02*
X17477500Y-9197500D01*
X17430000Y-9150000D02*
X17525000Y-9150000D01*
X17477500Y-9352500D02*
X17477500Y-9447500D01*
X17430000Y-9400000D02*
X17525000Y-9400000D01*
X17477500Y-9602500D02*
X17477500Y-9697500D01*
X17430000Y-9650000D02*
X17525000Y-9650000D01*
X17477500Y-9852500D02*
X17477500Y-9947500D01*
X17430000Y-9900000D02*
X17525000Y-9900000D01*
X17477500Y-10102500D02*
X17477500Y-10197500D01*
X17430000Y-10150000D02*
X17525000Y-10150000D01*
X18477500Y-6252500D02*
X18477500Y-6347500D01*
X18430000Y-6300000D02*
X18525000Y-6300000D01*
X18477500Y-6502500D02*
X18477500Y-6597500D01*
X18430000Y-6550000D02*
X18525000Y-6550000D01*
X18477500Y-6752500D02*
X18477500Y-6847500D01*
X18430000Y-6800000D02*
X18525000Y-6800000D01*
X18477500Y-7002500D02*
X18477500Y-7097500D01*
X18430000Y-7050000D02*
X18525000Y-7050000D01*
X18477500Y-7252500D02*
X18477500Y-7347500D01*
X18430000Y-7300000D02*
X18525000Y-7300000D01*
X18477500Y-7502500D02*
X18477500Y-7597500D01*
X18430000Y-7550000D02*
X18525000Y-7550000D01*
X18477500Y-7752500D02*
X18477500Y-7847500D01*
X18430000Y-7800000D02*
X18525000Y-7800000D01*
X18477500Y-8002500D02*
X18477500Y-8097500D01*
X18430000Y-8050000D02*
X18525000Y-8050000D01*
X18477500Y-8252500D02*
X18477500Y-8347500D01*
X18430000Y-8300000D02*
X18525000Y-8300000D01*
X18477500Y-8502500D02*
X18477500Y-8597500D01*
X18430000Y-8550000D02*
X18525000Y-8550000D01*
X11658856Y-12885356D02*
X11658856Y-12814644D01*
X11588144Y-12814644D01*
X11588144Y-12885356D01*
X11658856Y-12885356D01*
X11912856Y-12885356D02*
X11912856Y-12814644D01*
X11842144Y-12814644D01*
X11842144Y-12885356D01*
X11912856Y-12885356D01*
X12166856Y-12885356D02*
X12166856Y-12814644D01*
X12096144Y-12814644D01*
X12096144Y-12885356D01*
X12166856Y-12885356D01*
X12352856Y-13486356D02*
X12352856Y-13415644D01*
X12282144Y-13415644D01*
X12282144Y-13486356D01*
X12352856Y-13486356D01*
X12352856Y-13945356D02*
X12352856Y-13874644D01*
X12282144Y-13874644D01*
X12282144Y-13945356D01*
X12352856Y-13945356D01*
X12420856Y-12885356D02*
X12420856Y-12814644D01*
X12350144Y-12814644D01*
X12350144Y-12885356D01*
X12420856Y-12885356D01*
X12606856Y-13486356D02*
X12606856Y-13415644D01*
X12536144Y-13415644D01*
X12536144Y-13486356D01*
X12606856Y-13486356D01*
X12606856Y-13945356D02*
X12606856Y-13874644D01*
X12536144Y-13874644D01*
X12536144Y-13945356D01*
X12606856Y-13945356D01*
X12674856Y-12885356D02*
X12674856Y-12814644D01*
X12604144Y-12814644D01*
X12604144Y-12885356D01*
X12674856Y-12885356D01*
X12860856Y-13486356D02*
X12860856Y-13415644D01*
X12790144Y-13415644D01*
X12790144Y-13486356D01*
X12860856Y-13486356D01*
X12860856Y-13945356D02*
X12860856Y-13874644D01*
X12790144Y-13874644D01*
X12790144Y-13945356D01*
X12860856Y-13945356D01*
X12928856Y-12885356D02*
X12928856Y-12814644D01*
X12858144Y-12814644D01*
X12858144Y-12885356D01*
X12928856Y-12885356D01*
X13114856Y-13486356D02*
X13114856Y-13415644D01*
X13044144Y-13415644D01*
X13044144Y-13486356D01*
X13114856Y-13486356D01*
X13114856Y-13945356D02*
X13114856Y-13874644D01*
X13044144Y-13874644D01*
X13044144Y-13945356D01*
X13114856Y-13945356D01*
X13488856Y-12235356D02*
X13488856Y-12164644D01*
X13418144Y-12164644D01*
X13418144Y-12235356D01*
X13488856Y-12235356D01*
X13742856Y-12235356D02*
X13742856Y-12164644D01*
X13672144Y-12164644D01*
X13672144Y-12235356D01*
X13742856Y-12235356D01*
X13996856Y-12235356D02*
X13996856Y-12164644D01*
X13926144Y-12164644D01*
X13926144Y-12235356D01*
X13996856Y-12235356D01*
X14116856Y-10605356D02*
X14116856Y-10534644D01*
X14046144Y-10534644D01*
X14046144Y-10605356D01*
X14116856Y-10605356D01*
X14250856Y-12235356D02*
X14250856Y-12164644D01*
X14180144Y-12164644D01*
X14180144Y-12235356D01*
X14250856Y-12235356D01*
X14370856Y-10605356D02*
X14370856Y-10534644D01*
X14300144Y-10534644D01*
X14300144Y-10605356D01*
X14370856Y-10605356D01*
X14504856Y-12235356D02*
X14504856Y-12164644D01*
X14434144Y-12164644D01*
X14434144Y-12235356D01*
X14504856Y-12235356D01*
X14624856Y-10605356D02*
X14624856Y-10534644D01*
X14554144Y-10534644D01*
X14554144Y-10605356D01*
X14624856Y-10605356D01*
X14758856Y-12235356D02*
X14758856Y-12164644D01*
X14688144Y-12164644D01*
X14688144Y-12235356D01*
X14758856Y-12235356D01*
X14878856Y-10605356D02*
X14878856Y-10534644D01*
X14808144Y-10534644D01*
X14808144Y-10605356D01*
X14878856Y-10605356D01*
X15012856Y-12235356D02*
X15012856Y-12164644D01*
X14942144Y-12164644D01*
X14942144Y-12235356D01*
X15012856Y-12235356D01*
X15132856Y-10605356D02*
X15132856Y-10534644D01*
X15062144Y-10534644D01*
X15062144Y-10605356D01*
X15132856Y-10605356D01*
X15266856Y-12235356D02*
X15266856Y-12164644D01*
X15196144Y-12164644D01*
X15196144Y-12235356D01*
X15266856Y-12235356D01*
X15520856Y-12235356D02*
X15520856Y-12164644D01*
X15450144Y-12164644D01*
X15450144Y-12235356D01*
X15520856Y-12235356D01*
X15774856Y-12235356D02*
X15774856Y-12164644D01*
X15704144Y-12164644D01*
X15704144Y-12235356D01*
X15774856Y-12235356D01*
X15779856Y-11668356D02*
X15779856Y-11597644D01*
X15709144Y-11597644D01*
X15709144Y-11668356D01*
X15779856Y-11668356D01*
X16033856Y-11668356D02*
X16033856Y-11597644D01*
X15963144Y-11597644D01*
X15963144Y-11668356D01*
X16033856Y-11668356D01*
X16287856Y-11668356D02*
X16287856Y-11597644D01*
X16217144Y-11597644D01*
X16217144Y-11668356D01*
X16287856Y-11668356D01*
X16478856Y-7785356D02*
X16478856Y-7714644D01*
X16408144Y-7714644D01*
X16408144Y-7785356D01*
X16478856Y-7785356D01*
X16541856Y-11668356D02*
X16541856Y-11597644D01*
X16471144Y-11597644D01*
X16471144Y-11668356D01*
X16541856Y-11668356D01*
X16612856Y-8869356D02*
X16612856Y-8798644D01*
X16542144Y-8798644D01*
X16542144Y-8869356D01*
X16612856Y-8869356D01*
X16612856Y-9123356D02*
X16612856Y-9052644D01*
X16542144Y-9052644D01*
X16542144Y-9123356D01*
X16612856Y-9123356D01*
X16612856Y-9377356D02*
X16612856Y-9306644D01*
X16542144Y-9306644D01*
X16542144Y-9377356D01*
X16612856Y-9377356D01*
X16612856Y-9631356D02*
X16612856Y-9560644D01*
X16542144Y-9560644D01*
X16542144Y-9631356D01*
X16612856Y-9631356D01*
X16612856Y-9885356D02*
X16612856Y-9814644D01*
X16542144Y-9814644D01*
X16542144Y-9885356D01*
X16612856Y-9885356D01*
X16732856Y-7785356D02*
X16732856Y-7714644D01*
X16662144Y-7714644D01*
X16662144Y-7785356D01*
X16732856Y-7785356D01*
X16986856Y-7785356D02*
X16986856Y-7714644D01*
X16916144Y-7714644D01*
X16916144Y-7785356D01*
X16986856Y-7785356D01*
X17240856Y-7785356D02*
X17240856Y-7714644D01*
X17170144Y-7714644D01*
X17170144Y-7785356D01*
X17240856Y-7785356D01*
X17530056Y-10923156D02*
X17530056Y-10852444D01*
X17459344Y-10852444D01*
X17459344Y-10923156D01*
X17530056Y-10923156D01*
X17530056Y-11177156D02*
X17530056Y-11106444D01*
X17459344Y-11106444D01*
X17459344Y-11177156D01*
X17530056Y-11177156D01*
X17530056Y-11939156D02*
X17530056Y-11868444D01*
X17459344Y-11868444D01*
X17459344Y-11939156D01*
X17530056Y-11939156D01*
X17530056Y-12193156D02*
X17530056Y-12122444D01*
X17459344Y-12122444D01*
X17459344Y-12193156D01*
X17530056Y-12193156D01*
X17530356Y-11431156D02*
X17530356Y-11360444D01*
X17459644Y-11360444D01*
X17459644Y-11431156D01*
X17530356Y-11431156D01*
X17530356Y-11685156D02*
X17530356Y-11614444D01*
X17459644Y-11614444D01*
X17459644Y-11685156D01*
X17530356Y-11685156D01*
D12*
X14238500Y-8950500D02*
X14289300Y-8899700D01*
X14238500Y-8848900D01*
X14187700Y-8899700D01*
X14238500Y-8950500D01*
X14238500Y-9204500D02*
X14289300Y-9153700D01*
X14238500Y-9102900D01*
X14187700Y-9153700D01*
X14238500Y-9204500D01*
X14238500Y-9458500D02*
X14289300Y-9407700D01*
X14238500Y-9356900D01*
X14187700Y-9407700D01*
X14238500Y-9458500D01*
X14238500Y-9712500D02*
X14289300Y-9661700D01*
X14238500Y-9610900D01*
X14187700Y-9661700D01*
X14238500Y-9712500D01*
X15113500Y-7315800D02*
X15164300Y-7265000D01*
X15113500Y-7214200D01*
X15062700Y-7265000D01*
X15113500Y-7315800D01*
X15367500Y-7315800D02*
X15418300Y-7265000D01*
X15367500Y-7214200D01*
X15316700Y-7265000D01*
X15367500Y-7315800D01*
X15621500Y-7315800D02*
X15672300Y-7265000D01*
X15621500Y-7214200D01*
X15570700Y-7265000D01*
X15621500Y-7315800D01*
X15875500Y-7315800D02*
X15926300Y-7265000D01*
X15875500Y-7214200D01*
X15824700Y-7265000D01*
X15875500Y-7315800D01*
X16129500Y-7315800D02*
X16180300Y-7265000D01*
X16129500Y-7214200D01*
X16078700Y-7265000D01*
X16129500Y-7315800D01*
X16383500Y-7315800D02*
X16434300Y-7265000D01*
X16383500Y-7214200D01*
X16332700Y-7265000D01*
X16383500Y-7315800D01*
X16637500Y-7315800D02*
X16688300Y-7265000D01*
X16637500Y-7214200D01*
X16586700Y-7265000D01*
X16637500Y-7315800D01*
X16891500Y-7315800D02*
X16942300Y-7265000D01*
X16891500Y-7214200D01*
X16840700Y-7265000D01*
X16891500Y-7315800D01*
D10*
X8867430Y-15876484D02*
X8867430Y-15676484D01*
X8867430Y-15676484D02*
X8915049Y-15676484D01*
X8915049Y-15676484D02*
X8943621Y-15686008D01*
X8943621Y-15686008D02*
X8962669Y-15705055D01*
X8962669Y-15705055D02*
X8972192Y-15724103D01*
X8972192Y-15724103D02*
X8981716Y-15762198D01*
X8981716Y-15762198D02*
X8981716Y-15790769D01*
X8981716Y-15790769D02*
X8972192Y-15828865D01*
X8972192Y-15828865D02*
X8962669Y-15847912D01*
X8962669Y-15847912D02*
X8943621Y-15866960D01*
X8943621Y-15866960D02*
X8915049Y-15876484D01*
X8915049Y-15876484D02*
X8867430Y-15876484D01*
X9067430Y-15876484D02*
X9067430Y-15743150D01*
X9067430Y-15781246D02*
X9076954Y-15762198D01*
X9076954Y-15762198D02*
X9086478Y-15752674D01*
X9086478Y-15752674D02*
X9105526Y-15743150D01*
X9105526Y-15743150D02*
X9124573Y-15743150D01*
X9191240Y-15876484D02*
X9191240Y-15743150D01*
X9191240Y-15676484D02*
X9181716Y-15686008D01*
X9181716Y-15686008D02*
X9191240Y-15695531D01*
X9191240Y-15695531D02*
X9200764Y-15686008D01*
X9200764Y-15686008D02*
X9191240Y-15676484D01*
X9191240Y-15676484D02*
X9191240Y-15695531D01*
X9315049Y-15876484D02*
X9296002Y-15866960D01*
X9296002Y-15866960D02*
X9286478Y-15847912D01*
X9286478Y-15847912D02*
X9286478Y-15676484D01*
X9419811Y-15876484D02*
X9400764Y-15866960D01*
X9400764Y-15866960D02*
X9391240Y-15847912D01*
X9391240Y-15847912D02*
X9391240Y-15676484D01*
X9648383Y-15876484D02*
X9648383Y-15676484D01*
X9648383Y-15676484D02*
X9715050Y-15819341D01*
X9715050Y-15819341D02*
X9781716Y-15676484D01*
X9781716Y-15676484D02*
X9781716Y-15876484D01*
X9962669Y-15876484D02*
X9962669Y-15771722D01*
X9962669Y-15771722D02*
X9953145Y-15752674D01*
X9953145Y-15752674D02*
X9934097Y-15743150D01*
X9934097Y-15743150D02*
X9896002Y-15743150D01*
X9896002Y-15743150D02*
X9876954Y-15752674D01*
X9962669Y-15866960D02*
X9943621Y-15876484D01*
X9943621Y-15876484D02*
X9896002Y-15876484D01*
X9896002Y-15876484D02*
X9876954Y-15866960D01*
X9876954Y-15866960D02*
X9867430Y-15847912D01*
X9867430Y-15847912D02*
X9867430Y-15828865D01*
X9867430Y-15828865D02*
X9876954Y-15809817D01*
X9876954Y-15809817D02*
X9896002Y-15800293D01*
X9896002Y-15800293D02*
X9943621Y-15800293D01*
X9943621Y-15800293D02*
X9962669Y-15790769D01*
X10057907Y-15743150D02*
X10057907Y-15943150D01*
X10057907Y-15752674D02*
X10076954Y-15743150D01*
X10076954Y-15743150D02*
X10115050Y-15743150D01*
X10115050Y-15743150D02*
X10134097Y-15752674D01*
X10134097Y-15752674D02*
X10143621Y-15762198D01*
X10143621Y-15762198D02*
X10153145Y-15781246D01*
X10153145Y-15781246D02*
X10153145Y-15838388D01*
X10153145Y-15838388D02*
X10143621Y-15857436D01*
X10143621Y-15857436D02*
X10134097Y-15866960D01*
X10134097Y-15866960D02*
X10115050Y-15876484D01*
X10115050Y-15876484D02*
X10076954Y-15876484D01*
X10076954Y-15876484D02*
X10057907Y-15866960D01*
X10238859Y-15857436D02*
X10248383Y-15866960D01*
X10248383Y-15866960D02*
X10238859Y-15876484D01*
X10238859Y-15876484D02*
X10229335Y-15866960D01*
X10229335Y-15866960D02*
X10238859Y-15857436D01*
X10238859Y-15857436D02*
X10238859Y-15876484D01*
X10238859Y-15752674D02*
X10248383Y-15762198D01*
X10248383Y-15762198D02*
X10238859Y-15771722D01*
X10238859Y-15771722D02*
X10229335Y-15762198D01*
X10229335Y-15762198D02*
X10238859Y-15752674D01*
X10238859Y-15752674D02*
X10238859Y-15771722D01*
D11*
X8576654Y-16190000D02*
X8606654Y-16220000D01*
X8606654Y-16190000D02*
X8576654Y-16220000D01*
D10*
X8905526Y-16096484D02*
X8924573Y-16096484D01*
X8924573Y-16096484D02*
X8943621Y-16106008D01*
X8943621Y-16106008D02*
X8953145Y-16115531D01*
X8953145Y-16115531D02*
X8962669Y-16134579D01*
X8962669Y-16134579D02*
X8972192Y-16172674D01*
X8972192Y-16172674D02*
X8972192Y-16220293D01*
X8972192Y-16220293D02*
X8962669Y-16258388D01*
X8962669Y-16258388D02*
X8953145Y-16277436D01*
X8953145Y-16277436D02*
X8943621Y-16286960D01*
X8943621Y-16286960D02*
X8924573Y-16296484D01*
X8924573Y-16296484D02*
X8905526Y-16296484D01*
X8905526Y-16296484D02*
X8886478Y-16286960D01*
X8886478Y-16286960D02*
X8876954Y-16277436D01*
X8876954Y-16277436D02*
X8867430Y-16258388D01*
X8867430Y-16258388D02*
X8857907Y-16220293D01*
X8857907Y-16220293D02*
X8857907Y-16172674D01*
X8857907Y-16172674D02*
X8867430Y-16134579D01*
X8867430Y-16134579D02*
X8876954Y-16115531D01*
X8876954Y-16115531D02*
X8886478Y-16106008D01*
X8886478Y-16106008D02*
X8905526Y-16096484D01*
X9057907Y-16277436D02*
X9067430Y-16286960D01*
X9067430Y-16286960D02*
X9057907Y-16296484D01*
X9057907Y-16296484D02*
X9048383Y-16286960D01*
X9048383Y-16286960D02*
X9057907Y-16277436D01*
X9057907Y-16277436D02*
X9057907Y-16296484D01*
X9134097Y-16096484D02*
X9257907Y-16096484D01*
X9257907Y-16096484D02*
X9191240Y-16172674D01*
X9191240Y-16172674D02*
X9219811Y-16172674D01*
X9219811Y-16172674D02*
X9238859Y-16182198D01*
X9238859Y-16182198D02*
X9248383Y-16191722D01*
X9248383Y-16191722D02*
X9257907Y-16210769D01*
X9257907Y-16210769D02*
X9257907Y-16258388D01*
X9257907Y-16258388D02*
X9248383Y-16277436D01*
X9248383Y-16277436D02*
X9238859Y-16286960D01*
X9238859Y-16286960D02*
X9219811Y-16296484D01*
X9219811Y-16296484D02*
X9162669Y-16296484D01*
X9162669Y-16296484D02*
X9143621Y-16286960D01*
X9143621Y-16286960D02*
X9134097Y-16277436D01*
X9381716Y-16096484D02*
X9400764Y-16096484D01*
X9400764Y-16096484D02*
X9419811Y-16106008D01*
X9419811Y-16106008D02*
X9429335Y-16115531D01*
X9429335Y-16115531D02*
X9438859Y-16134579D01*
X9438859Y-16134579D02*
X9448383Y-16172674D01*
X9448383Y-16172674D02*
X9448383Y-16220293D01*
X9448383Y-16220293D02*
X9438859Y-16258388D01*
X9438859Y-16258388D02*
X9429335Y-16277436D01*
X9429335Y-16277436D02*
X9419811Y-16286960D01*
X9419811Y-16286960D02*
X9400764Y-16296484D01*
X9400764Y-16296484D02*
X9381716Y-16296484D01*
X9381716Y-16296484D02*
X9362669Y-16286960D01*
X9362669Y-16286960D02*
X9353145Y-16277436D01*
X9353145Y-16277436D02*
X9343621Y-16258388D01*
X9343621Y-16258388D02*
X9334097Y-16220293D01*
X9334097Y-16220293D02*
X9334097Y-16172674D01*
X9334097Y-16172674D02*
X9343621Y-16134579D01*
X9343621Y-16134579D02*
X9353145Y-16115531D01*
X9353145Y-16115531D02*
X9362669Y-16106008D01*
X9362669Y-16106008D02*
X9381716Y-16096484D01*
X9572192Y-16096484D02*
X9591240Y-16096484D01*
X9591240Y-16096484D02*
X9610288Y-16106008D01*
X9610288Y-16106008D02*
X9619811Y-16115531D01*
X9619811Y-16115531D02*
X9629335Y-16134579D01*
X9629335Y-16134579D02*
X9638859Y-16172674D01*
X9638859Y-16172674D02*
X9638859Y-16220293D01*
X9638859Y-16220293D02*
X9629335Y-16258388D01*
X9629335Y-16258388D02*
X9619811Y-16277436D01*
X9619811Y-16277436D02*
X9610288Y-16286960D01*
X9610288Y-16286960D02*
X9591240Y-16296484D01*
X9591240Y-16296484D02*
X9572192Y-16296484D01*
X9572192Y-16296484D02*
X9553145Y-16286960D01*
X9553145Y-16286960D02*
X9543621Y-16277436D01*
X9543621Y-16277436D02*
X9534097Y-16258388D01*
X9534097Y-16258388D02*
X9524573Y-16220293D01*
X9524573Y-16220293D02*
X9524573Y-16172674D01*
X9524573Y-16172674D02*
X9534097Y-16134579D01*
X9534097Y-16134579D02*
X9543621Y-16115531D01*
X9543621Y-16115531D02*
X9553145Y-16106008D01*
X9553145Y-16106008D02*
X9572192Y-16096484D01*
X9724573Y-16296484D02*
X9724573Y-16163150D01*
X9724573Y-16182198D02*
X9734097Y-16172674D01*
X9734097Y-16172674D02*
X9753145Y-16163150D01*
X9753145Y-16163150D02*
X9781716Y-16163150D01*
X9781716Y-16163150D02*
X9800764Y-16172674D01*
X9800764Y-16172674D02*
X9810288Y-16191722D01*
X9810288Y-16191722D02*
X9810288Y-16296484D01*
X9810288Y-16191722D02*
X9819811Y-16172674D01*
X9819811Y-16172674D02*
X9838859Y-16163150D01*
X9838859Y-16163150D02*
X9867430Y-16163150D01*
X9867430Y-16163150D02*
X9886478Y-16172674D01*
X9886478Y-16172674D02*
X9896002Y-16191722D01*
X9896002Y-16191722D02*
X9896002Y-16296484D01*
X9991240Y-16296484D02*
X9991240Y-16163150D01*
X9991240Y-16182198D02*
X10000764Y-16172674D01*
X10000764Y-16172674D02*
X10019811Y-16163150D01*
X10019811Y-16163150D02*
X10048383Y-16163150D01*
X10048383Y-16163150D02*
X10067431Y-16172674D01*
X10067431Y-16172674D02*
X10076954Y-16191722D01*
X10076954Y-16191722D02*
X10076954Y-16296484D01*
X10076954Y-16191722D02*
X10086478Y-16172674D01*
X10086478Y-16172674D02*
X10105526Y-16163150D01*
X10105526Y-16163150D02*
X10134097Y-16163150D01*
X10134097Y-16163150D02*
X10153145Y-16172674D01*
X10153145Y-16172674D02*
X10162669Y-16191722D01*
X10162669Y-16191722D02*
X10162669Y-16296484D01*
X10553145Y-16086960D02*
X10381716Y-16344103D01*
X10810288Y-16096484D02*
X10829335Y-16096484D01*
X10829335Y-16096484D02*
X10848383Y-16106008D01*
X10848383Y-16106008D02*
X10857907Y-16115531D01*
X10857907Y-16115531D02*
X10867431Y-16134579D01*
X10867431Y-16134579D02*
X10876954Y-16172674D01*
X10876954Y-16172674D02*
X10876954Y-16220293D01*
X10876954Y-16220293D02*
X10867431Y-16258388D01*
X10867431Y-16258388D02*
X10857907Y-16277436D01*
X10857907Y-16277436D02*
X10848383Y-16286960D01*
X10848383Y-16286960D02*
X10829335Y-16296484D01*
X10829335Y-16296484D02*
X10810288Y-16296484D01*
X10810288Y-16296484D02*
X10791240Y-16286960D01*
X10791240Y-16286960D02*
X10781716Y-16277436D01*
X10781716Y-16277436D02*
X10772193Y-16258388D01*
X10772193Y-16258388D02*
X10762669Y-16220293D01*
X10762669Y-16220293D02*
X10762669Y-16172674D01*
X10762669Y-16172674D02*
X10772193Y-16134579D01*
X10772193Y-16134579D02*
X10781716Y-16115531D01*
X10781716Y-16115531D02*
X10791240Y-16106008D01*
X10791240Y-16106008D02*
X10810288Y-16096484D01*
X10962669Y-16277436D02*
X10972193Y-16286960D01*
X10972193Y-16286960D02*
X10962669Y-16296484D01*
X10962669Y-16296484D02*
X10953145Y-16286960D01*
X10953145Y-16286960D02*
X10962669Y-16277436D01*
X10962669Y-16277436D02*
X10962669Y-16296484D01*
X11096002Y-16096484D02*
X11115050Y-16096484D01*
X11115050Y-16096484D02*
X11134097Y-16106008D01*
X11134097Y-16106008D02*
X11143621Y-16115531D01*
X11143621Y-16115531D02*
X11153145Y-16134579D01*
X11153145Y-16134579D02*
X11162669Y-16172674D01*
X11162669Y-16172674D02*
X11162669Y-16220293D01*
X11162669Y-16220293D02*
X11153145Y-16258388D01*
X11153145Y-16258388D02*
X11143621Y-16277436D01*
X11143621Y-16277436D02*
X11134097Y-16286960D01*
X11134097Y-16286960D02*
X11115050Y-16296484D01*
X11115050Y-16296484D02*
X11096002Y-16296484D01*
X11096002Y-16296484D02*
X11076954Y-16286960D01*
X11076954Y-16286960D02*
X11067431Y-16277436D01*
X11067431Y-16277436D02*
X11057907Y-16258388D01*
X11057907Y-16258388D02*
X11048383Y-16220293D01*
X11048383Y-16220293D02*
X11048383Y-16172674D01*
X11048383Y-16172674D02*
X11057907Y-16134579D01*
X11057907Y-16134579D02*
X11067431Y-16115531D01*
X11067431Y-16115531D02*
X11076954Y-16106008D01*
X11076954Y-16106008D02*
X11096002Y-16096484D01*
X11353145Y-16296484D02*
X11238859Y-16296484D01*
X11296002Y-16296484D02*
X11296002Y-16096484D01*
X11296002Y-16096484D02*
X11276954Y-16125055D01*
X11276954Y-16125055D02*
X11257907Y-16144103D01*
X11257907Y-16144103D02*
X11238859Y-16153627D01*
X11543621Y-16296484D02*
X11429335Y-16296484D01*
X11486478Y-16296484D02*
X11486478Y-16096484D01*
X11486478Y-16096484D02*
X11467431Y-16125055D01*
X11467431Y-16125055D02*
X11448383Y-16144103D01*
X11448383Y-16144103D02*
X11429335Y-16153627D01*
X11657907Y-16182198D02*
X11638859Y-16172674D01*
X11638859Y-16172674D02*
X11629335Y-16163150D01*
X11629335Y-16163150D02*
X11619812Y-16144103D01*
X11619812Y-16144103D02*
X11619812Y-16134579D01*
X11619812Y-16134579D02*
X11629335Y-16115531D01*
X11629335Y-16115531D02*
X11638859Y-16106008D01*
X11638859Y-16106008D02*
X11657907Y-16096484D01*
X11657907Y-16096484D02*
X11696002Y-16096484D01*
X11696002Y-16096484D02*
X11715050Y-16106008D01*
X11715050Y-16106008D02*
X11724573Y-16115531D01*
X11724573Y-16115531D02*
X11734097Y-16134579D01*
X11734097Y-16134579D02*
X11734097Y-16144103D01*
X11734097Y-16144103D02*
X11724573Y-16163150D01*
X11724573Y-16163150D02*
X11715050Y-16172674D01*
X11715050Y-16172674D02*
X11696002Y-16182198D01*
X11696002Y-16182198D02*
X11657907Y-16182198D01*
X11657907Y-16182198D02*
X11638859Y-16191722D01*
X11638859Y-16191722D02*
X11629335Y-16201246D01*
X11629335Y-16201246D02*
X11619812Y-16220293D01*
X11619812Y-16220293D02*
X11619812Y-16258388D01*
X11619812Y-16258388D02*
X11629335Y-16277436D01*
X11629335Y-16277436D02*
X11638859Y-16286960D01*
X11638859Y-16286960D02*
X11657907Y-16296484D01*
X11657907Y-16296484D02*
X11696002Y-16296484D01*
X11696002Y-16296484D02*
X11715050Y-16286960D01*
X11715050Y-16286960D02*
X11724573Y-16277436D01*
X11724573Y-16277436D02*
X11734097Y-16258388D01*
X11734097Y-16258388D02*
X11734097Y-16220293D01*
X11734097Y-16220293D02*
X11724573Y-16201246D01*
X11724573Y-16201246D02*
X11715050Y-16191722D01*
X11715050Y-16191722D02*
X11696002Y-16182198D01*
X11810288Y-16096484D02*
X11810288Y-16134579D01*
X11886478Y-16096484D02*
X11886478Y-16134579D01*
X12181716Y-16372674D02*
X12172193Y-16363150D01*
X12172193Y-16363150D02*
X12153145Y-16334579D01*
X12153145Y-16334579D02*
X12143621Y-16315531D01*
X12143621Y-16315531D02*
X12134097Y-16286960D01*
X12134097Y-16286960D02*
X12124574Y-16239341D01*
X12124574Y-16239341D02*
X12124574Y-16201246D01*
X12124574Y-16201246D02*
X12134097Y-16153627D01*
X12134097Y-16153627D02*
X12143621Y-16125055D01*
X12143621Y-16125055D02*
X12153145Y-16106008D01*
X12153145Y-16106008D02*
X12172193Y-16077436D01*
X12172193Y-16077436D02*
X12181716Y-16067912D01*
X12248383Y-16115531D02*
X12257907Y-16106008D01*
X12257907Y-16106008D02*
X12276954Y-16096484D01*
X12276954Y-16096484D02*
X12324574Y-16096484D01*
X12324574Y-16096484D02*
X12343621Y-16106008D01*
X12343621Y-16106008D02*
X12353145Y-16115531D01*
X12353145Y-16115531D02*
X12362669Y-16134579D01*
X12362669Y-16134579D02*
X12362669Y-16153627D01*
X12362669Y-16153627D02*
X12353145Y-16182198D01*
X12353145Y-16182198D02*
X12238859Y-16296484D01*
X12238859Y-16296484D02*
X12362669Y-16296484D01*
X12457907Y-16296484D02*
X12496002Y-16296484D01*
X12496002Y-16296484D02*
X12515050Y-16286960D01*
X12515050Y-16286960D02*
X12524574Y-16277436D01*
X12524574Y-16277436D02*
X12543621Y-16248865D01*
X12543621Y-16248865D02*
X12553145Y-16210769D01*
X12553145Y-16210769D02*
X12553145Y-16134579D01*
X12553145Y-16134579D02*
X12543621Y-16115531D01*
X12543621Y-16115531D02*
X12534097Y-16106008D01*
X12534097Y-16106008D02*
X12515050Y-16096484D01*
X12515050Y-16096484D02*
X12476954Y-16096484D01*
X12476954Y-16096484D02*
X12457907Y-16106008D01*
X12457907Y-16106008D02*
X12448383Y-16115531D01*
X12448383Y-16115531D02*
X12438859Y-16134579D01*
X12438859Y-16134579D02*
X12438859Y-16182198D01*
X12438859Y-16182198D02*
X12448383Y-16201246D01*
X12448383Y-16201246D02*
X12457907Y-16210769D01*
X12457907Y-16210769D02*
X12476954Y-16220293D01*
X12476954Y-16220293D02*
X12515050Y-16220293D01*
X12515050Y-16220293D02*
X12534097Y-16210769D01*
X12534097Y-16210769D02*
X12543621Y-16201246D01*
X12543621Y-16201246D02*
X12553145Y-16182198D01*
X12791240Y-16296484D02*
X12791240Y-16096484D01*
X12876955Y-16296484D02*
X12876955Y-16191722D01*
X12876955Y-16191722D02*
X12867431Y-16172674D01*
X12867431Y-16172674D02*
X12848383Y-16163150D01*
X12848383Y-16163150D02*
X12819812Y-16163150D01*
X12819812Y-16163150D02*
X12800764Y-16172674D01*
X12800764Y-16172674D02*
X12791240Y-16182198D01*
X13000764Y-16296484D02*
X12981716Y-16286960D01*
X12981716Y-16286960D02*
X12972193Y-16277436D01*
X12972193Y-16277436D02*
X12962669Y-16258388D01*
X12962669Y-16258388D02*
X12962669Y-16201246D01*
X12962669Y-16201246D02*
X12972193Y-16182198D01*
X12972193Y-16182198D02*
X12981716Y-16172674D01*
X12981716Y-16172674D02*
X13000764Y-16163150D01*
X13000764Y-16163150D02*
X13029336Y-16163150D01*
X13029336Y-16163150D02*
X13048383Y-16172674D01*
X13048383Y-16172674D02*
X13057907Y-16182198D01*
X13057907Y-16182198D02*
X13067431Y-16201246D01*
X13067431Y-16201246D02*
X13067431Y-16258388D01*
X13067431Y-16258388D02*
X13057907Y-16277436D01*
X13057907Y-16277436D02*
X13048383Y-16286960D01*
X13048383Y-16286960D02*
X13029336Y-16296484D01*
X13029336Y-16296484D02*
X13000764Y-16296484D01*
X13181716Y-16296484D02*
X13162669Y-16286960D01*
X13162669Y-16286960D02*
X13153145Y-16267912D01*
X13153145Y-16267912D02*
X13153145Y-16096484D01*
X13334097Y-16286960D02*
X13315050Y-16296484D01*
X13315050Y-16296484D02*
X13276955Y-16296484D01*
X13276955Y-16296484D02*
X13257907Y-16286960D01*
X13257907Y-16286960D02*
X13248383Y-16267912D01*
X13248383Y-16267912D02*
X13248383Y-16191722D01*
X13248383Y-16191722D02*
X13257907Y-16172674D01*
X13257907Y-16172674D02*
X13276955Y-16163150D01*
X13276955Y-16163150D02*
X13315050Y-16163150D01*
X13315050Y-16163150D02*
X13334097Y-16172674D01*
X13334097Y-16172674D02*
X13343621Y-16191722D01*
X13343621Y-16191722D02*
X13343621Y-16210769D01*
X13343621Y-16210769D02*
X13248383Y-16229817D01*
X13419812Y-16286960D02*
X13438859Y-16296484D01*
X13438859Y-16296484D02*
X13476955Y-16296484D01*
X13476955Y-16296484D02*
X13496002Y-16286960D01*
X13496002Y-16286960D02*
X13505526Y-16267912D01*
X13505526Y-16267912D02*
X13505526Y-16258388D01*
X13505526Y-16258388D02*
X13496002Y-16239341D01*
X13496002Y-16239341D02*
X13476955Y-16229817D01*
X13476955Y-16229817D02*
X13448383Y-16229817D01*
X13448383Y-16229817D02*
X13429336Y-16220293D01*
X13429336Y-16220293D02*
X13419812Y-16201246D01*
X13419812Y-16201246D02*
X13419812Y-16191722D01*
X13419812Y-16191722D02*
X13429336Y-16172674D01*
X13429336Y-16172674D02*
X13448383Y-16163150D01*
X13448383Y-16163150D02*
X13476955Y-16163150D01*
X13476955Y-16163150D02*
X13496002Y-16172674D01*
X13572193Y-16372674D02*
X13581717Y-16363150D01*
X13581717Y-16363150D02*
X13600764Y-16334579D01*
X13600764Y-16334579D02*
X13610288Y-16315531D01*
X13610288Y-16315531D02*
X13619812Y-16286960D01*
X13619812Y-16286960D02*
X13629336Y-16239341D01*
X13629336Y-16239341D02*
X13629336Y-16201246D01*
X13629336Y-16201246D02*
X13619812Y-16153627D01*
X13619812Y-16153627D02*
X13610288Y-16125055D01*
X13610288Y-16125055D02*
X13600764Y-16106008D01*
X13600764Y-16106008D02*
X13581717Y-16077436D01*
X13581717Y-16077436D02*
X13572193Y-16067912D01*
D11*
X8606654Y-16469000D02*
G75*
G02*
X8526654Y-16469000I-40000J0D01*
G01*
X8526654Y-16469000D02*
G75*
G02*
X8606654Y-16469000I40000J0D01*
G01*
D10*
X8905526Y-16360484D02*
X8924573Y-16360484D01*
X8924573Y-16360484D02*
X8943621Y-16370008D01*
X8943621Y-16370008D02*
X8953145Y-16379531D01*
X8953145Y-16379531D02*
X8962669Y-16398579D01*
X8962669Y-16398579D02*
X8972192Y-16436674D01*
X8972192Y-16436674D02*
X8972192Y-16484293D01*
X8972192Y-16484293D02*
X8962669Y-16522388D01*
X8962669Y-16522388D02*
X8953145Y-16541436D01*
X8953145Y-16541436D02*
X8943621Y-16550960D01*
X8943621Y-16550960D02*
X8924573Y-16560484D01*
X8924573Y-16560484D02*
X8905526Y-16560484D01*
X8905526Y-16560484D02*
X8886478Y-16550960D01*
X8886478Y-16550960D02*
X8876954Y-16541436D01*
X8876954Y-16541436D02*
X8867430Y-16522388D01*
X8867430Y-16522388D02*
X8857907Y-16484293D01*
X8857907Y-16484293D02*
X8857907Y-16436674D01*
X8857907Y-16436674D02*
X8867430Y-16398579D01*
X8867430Y-16398579D02*
X8876954Y-16379531D01*
X8876954Y-16379531D02*
X8886478Y-16370008D01*
X8886478Y-16370008D02*
X8905526Y-16360484D01*
X9057907Y-16541436D02*
X9067430Y-16550960D01*
X9067430Y-16550960D02*
X9057907Y-16560484D01*
X9057907Y-16560484D02*
X9048383Y-16550960D01*
X9048383Y-16550960D02*
X9057907Y-16541436D01*
X9057907Y-16541436D02*
X9057907Y-16560484D01*
X9181716Y-16446198D02*
X9162669Y-16436674D01*
X9162669Y-16436674D02*
X9153145Y-16427150D01*
X9153145Y-16427150D02*
X9143621Y-16408103D01*
X9143621Y-16408103D02*
X9143621Y-16398579D01*
X9143621Y-16398579D02*
X9153145Y-16379531D01*
X9153145Y-16379531D02*
X9162669Y-16370008D01*
X9162669Y-16370008D02*
X9181716Y-16360484D01*
X9181716Y-16360484D02*
X9219811Y-16360484D01*
X9219811Y-16360484D02*
X9238859Y-16370008D01*
X9238859Y-16370008D02*
X9248383Y-16379531D01*
X9248383Y-16379531D02*
X9257907Y-16398579D01*
X9257907Y-16398579D02*
X9257907Y-16408103D01*
X9257907Y-16408103D02*
X9248383Y-16427150D01*
X9248383Y-16427150D02*
X9238859Y-16436674D01*
X9238859Y-16436674D02*
X9219811Y-16446198D01*
X9219811Y-16446198D02*
X9181716Y-16446198D01*
X9181716Y-16446198D02*
X9162669Y-16455722D01*
X9162669Y-16455722D02*
X9153145Y-16465246D01*
X9153145Y-16465246D02*
X9143621Y-16484293D01*
X9143621Y-16484293D02*
X9143621Y-16522388D01*
X9143621Y-16522388D02*
X9153145Y-16541436D01*
X9153145Y-16541436D02*
X9162669Y-16550960D01*
X9162669Y-16550960D02*
X9181716Y-16560484D01*
X9181716Y-16560484D02*
X9219811Y-16560484D01*
X9219811Y-16560484D02*
X9238859Y-16550960D01*
X9238859Y-16550960D02*
X9248383Y-16541436D01*
X9248383Y-16541436D02*
X9257907Y-16522388D01*
X9257907Y-16522388D02*
X9257907Y-16484293D01*
X9257907Y-16484293D02*
X9248383Y-16465246D01*
X9248383Y-16465246D02*
X9238859Y-16455722D01*
X9238859Y-16455722D02*
X9219811Y-16446198D01*
X9381716Y-16360484D02*
X9400764Y-16360484D01*
X9400764Y-16360484D02*
X9419811Y-16370008D01*
X9419811Y-16370008D02*
X9429335Y-16379531D01*
X9429335Y-16379531D02*
X9438859Y-16398579D01*
X9438859Y-16398579D02*
X9448383Y-16436674D01*
X9448383Y-16436674D02*
X9448383Y-16484293D01*
X9448383Y-16484293D02*
X9438859Y-16522388D01*
X9438859Y-16522388D02*
X9429335Y-16541436D01*
X9429335Y-16541436D02*
X9419811Y-16550960D01*
X9419811Y-16550960D02*
X9400764Y-16560484D01*
X9400764Y-16560484D02*
X9381716Y-16560484D01*
X9381716Y-16560484D02*
X9362669Y-16550960D01*
X9362669Y-16550960D02*
X9353145Y-16541436D01*
X9353145Y-16541436D02*
X9343621Y-16522388D01*
X9343621Y-16522388D02*
X9334097Y-16484293D01*
X9334097Y-16484293D02*
X9334097Y-16436674D01*
X9334097Y-16436674D02*
X9343621Y-16398579D01*
X9343621Y-16398579D02*
X9353145Y-16379531D01*
X9353145Y-16379531D02*
X9362669Y-16370008D01*
X9362669Y-16370008D02*
X9381716Y-16360484D01*
X9572192Y-16360484D02*
X9591240Y-16360484D01*
X9591240Y-16360484D02*
X9610288Y-16370008D01*
X9610288Y-16370008D02*
X9619811Y-16379531D01*
X9619811Y-16379531D02*
X9629335Y-16398579D01*
X9629335Y-16398579D02*
X9638859Y-16436674D01*
X9638859Y-16436674D02*
X9638859Y-16484293D01*
X9638859Y-16484293D02*
X9629335Y-16522388D01*
X9629335Y-16522388D02*
X9619811Y-16541436D01*
X9619811Y-16541436D02*
X9610288Y-16550960D01*
X9610288Y-16550960D02*
X9591240Y-16560484D01*
X9591240Y-16560484D02*
X9572192Y-16560484D01*
X9572192Y-16560484D02*
X9553145Y-16550960D01*
X9553145Y-16550960D02*
X9543621Y-16541436D01*
X9543621Y-16541436D02*
X9534097Y-16522388D01*
X9534097Y-16522388D02*
X9524573Y-16484293D01*
X9524573Y-16484293D02*
X9524573Y-16436674D01*
X9524573Y-16436674D02*
X9534097Y-16398579D01*
X9534097Y-16398579D02*
X9543621Y-16379531D01*
X9543621Y-16379531D02*
X9553145Y-16370008D01*
X9553145Y-16370008D02*
X9572192Y-16360484D01*
X9724573Y-16560484D02*
X9724573Y-16427150D01*
X9724573Y-16446198D02*
X9734097Y-16436674D01*
X9734097Y-16436674D02*
X9753145Y-16427150D01*
X9753145Y-16427150D02*
X9781716Y-16427150D01*
X9781716Y-16427150D02*
X9800764Y-16436674D01*
X9800764Y-16436674D02*
X9810288Y-16455722D01*
X9810288Y-16455722D02*
X9810288Y-16560484D01*
X9810288Y-16455722D02*
X9819811Y-16436674D01*
X9819811Y-16436674D02*
X9838859Y-16427150D01*
X9838859Y-16427150D02*
X9867430Y-16427150D01*
X9867430Y-16427150D02*
X9886478Y-16436674D01*
X9886478Y-16436674D02*
X9896002Y-16455722D01*
X9896002Y-16455722D02*
X9896002Y-16560484D01*
X9991240Y-16560484D02*
X9991240Y-16427150D01*
X9991240Y-16446198D02*
X10000764Y-16436674D01*
X10000764Y-16436674D02*
X10019811Y-16427150D01*
X10019811Y-16427150D02*
X10048383Y-16427150D01*
X10048383Y-16427150D02*
X10067431Y-16436674D01*
X10067431Y-16436674D02*
X10076954Y-16455722D01*
X10076954Y-16455722D02*
X10076954Y-16560484D01*
X10076954Y-16455722D02*
X10086478Y-16436674D01*
X10086478Y-16436674D02*
X10105526Y-16427150D01*
X10105526Y-16427150D02*
X10134097Y-16427150D01*
X10134097Y-16427150D02*
X10153145Y-16436674D01*
X10153145Y-16436674D02*
X10162669Y-16455722D01*
X10162669Y-16455722D02*
X10162669Y-16560484D01*
X10553145Y-16350960D02*
X10381716Y-16608103D01*
X10810288Y-16360484D02*
X10829335Y-16360484D01*
X10829335Y-16360484D02*
X10848383Y-16370008D01*
X10848383Y-16370008D02*
X10857907Y-16379531D01*
X10857907Y-16379531D02*
X10867431Y-16398579D01*
X10867431Y-16398579D02*
X10876954Y-16436674D01*
X10876954Y-16436674D02*
X10876954Y-16484293D01*
X10876954Y-16484293D02*
X10867431Y-16522388D01*
X10867431Y-16522388D02*
X10857907Y-16541436D01*
X10857907Y-16541436D02*
X10848383Y-16550960D01*
X10848383Y-16550960D02*
X10829335Y-16560484D01*
X10829335Y-16560484D02*
X10810288Y-16560484D01*
X10810288Y-16560484D02*
X10791240Y-16550960D01*
X10791240Y-16550960D02*
X10781716Y-16541436D01*
X10781716Y-16541436D02*
X10772193Y-16522388D01*
X10772193Y-16522388D02*
X10762669Y-16484293D01*
X10762669Y-16484293D02*
X10762669Y-16436674D01*
X10762669Y-16436674D02*
X10772193Y-16398579D01*
X10772193Y-16398579D02*
X10781716Y-16379531D01*
X10781716Y-16379531D02*
X10791240Y-16370008D01*
X10791240Y-16370008D02*
X10810288Y-16360484D01*
X10962669Y-16541436D02*
X10972193Y-16550960D01*
X10972193Y-16550960D02*
X10962669Y-16560484D01*
X10962669Y-16560484D02*
X10953145Y-16550960D01*
X10953145Y-16550960D02*
X10962669Y-16541436D01*
X10962669Y-16541436D02*
X10962669Y-16560484D01*
X11096002Y-16360484D02*
X11115050Y-16360484D01*
X11115050Y-16360484D02*
X11134097Y-16370008D01*
X11134097Y-16370008D02*
X11143621Y-16379531D01*
X11143621Y-16379531D02*
X11153145Y-16398579D01*
X11153145Y-16398579D02*
X11162669Y-16436674D01*
X11162669Y-16436674D02*
X11162669Y-16484293D01*
X11162669Y-16484293D02*
X11153145Y-16522388D01*
X11153145Y-16522388D02*
X11143621Y-16541436D01*
X11143621Y-16541436D02*
X11134097Y-16550960D01*
X11134097Y-16550960D02*
X11115050Y-16560484D01*
X11115050Y-16560484D02*
X11096002Y-16560484D01*
X11096002Y-16560484D02*
X11076954Y-16550960D01*
X11076954Y-16550960D02*
X11067431Y-16541436D01*
X11067431Y-16541436D02*
X11057907Y-16522388D01*
X11057907Y-16522388D02*
X11048383Y-16484293D01*
X11048383Y-16484293D02*
X11048383Y-16436674D01*
X11048383Y-16436674D02*
X11057907Y-16398579D01*
X11057907Y-16398579D02*
X11067431Y-16379531D01*
X11067431Y-16379531D02*
X11076954Y-16370008D01*
X11076954Y-16370008D02*
X11096002Y-16360484D01*
X11229335Y-16360484D02*
X11353145Y-16360484D01*
X11353145Y-16360484D02*
X11286478Y-16436674D01*
X11286478Y-16436674D02*
X11315050Y-16436674D01*
X11315050Y-16436674D02*
X11334097Y-16446198D01*
X11334097Y-16446198D02*
X11343621Y-16455722D01*
X11343621Y-16455722D02*
X11353145Y-16474769D01*
X11353145Y-16474769D02*
X11353145Y-16522388D01*
X11353145Y-16522388D02*
X11343621Y-16541436D01*
X11343621Y-16541436D02*
X11334097Y-16550960D01*
X11334097Y-16550960D02*
X11315050Y-16560484D01*
X11315050Y-16560484D02*
X11257907Y-16560484D01*
X11257907Y-16560484D02*
X11238859Y-16550960D01*
X11238859Y-16550960D02*
X11229335Y-16541436D01*
X11543621Y-16560484D02*
X11429335Y-16560484D01*
X11486478Y-16560484D02*
X11486478Y-16360484D01*
X11486478Y-16360484D02*
X11467431Y-16389055D01*
X11467431Y-16389055D02*
X11448383Y-16408103D01*
X11448383Y-16408103D02*
X11429335Y-16417627D01*
X11724573Y-16360484D02*
X11629335Y-16360484D01*
X11629335Y-16360484D02*
X11619812Y-16455722D01*
X11619812Y-16455722D02*
X11629335Y-16446198D01*
X11629335Y-16446198D02*
X11648383Y-16436674D01*
X11648383Y-16436674D02*
X11696002Y-16436674D01*
X11696002Y-16436674D02*
X11715050Y-16446198D01*
X11715050Y-16446198D02*
X11724573Y-16455722D01*
X11724573Y-16455722D02*
X11734097Y-16474769D01*
X11734097Y-16474769D02*
X11734097Y-16522388D01*
X11734097Y-16522388D02*
X11724573Y-16541436D01*
X11724573Y-16541436D02*
X11715050Y-16550960D01*
X11715050Y-16550960D02*
X11696002Y-16560484D01*
X11696002Y-16560484D02*
X11648383Y-16560484D01*
X11648383Y-16560484D02*
X11629335Y-16550960D01*
X11629335Y-16550960D02*
X11619812Y-16541436D01*
X11810288Y-16360484D02*
X11810288Y-16398579D01*
X11886478Y-16360484D02*
X11886478Y-16398579D01*
X12181716Y-16636674D02*
X12172193Y-16627150D01*
X12172193Y-16627150D02*
X12153145Y-16598579D01*
X12153145Y-16598579D02*
X12143621Y-16579531D01*
X12143621Y-16579531D02*
X12134097Y-16550960D01*
X12134097Y-16550960D02*
X12124574Y-16503341D01*
X12124574Y-16503341D02*
X12124574Y-16465246D01*
X12124574Y-16465246D02*
X12134097Y-16417627D01*
X12134097Y-16417627D02*
X12143621Y-16389055D01*
X12143621Y-16389055D02*
X12153145Y-16370008D01*
X12153145Y-16370008D02*
X12172193Y-16341436D01*
X12172193Y-16341436D02*
X12181716Y-16331912D01*
X12353145Y-16360484D02*
X12257907Y-16360484D01*
X12257907Y-16360484D02*
X12248383Y-16455722D01*
X12248383Y-16455722D02*
X12257907Y-16446198D01*
X12257907Y-16446198D02*
X12276954Y-16436674D01*
X12276954Y-16436674D02*
X12324574Y-16436674D01*
X12324574Y-16436674D02*
X12343621Y-16446198D01*
X12343621Y-16446198D02*
X12353145Y-16455722D01*
X12353145Y-16455722D02*
X12362669Y-16474769D01*
X12362669Y-16474769D02*
X12362669Y-16522388D01*
X12362669Y-16522388D02*
X12353145Y-16541436D01*
X12353145Y-16541436D02*
X12343621Y-16550960D01*
X12343621Y-16550960D02*
X12324574Y-16560484D01*
X12324574Y-16560484D02*
X12276954Y-16560484D01*
X12276954Y-16560484D02*
X12257907Y-16550960D01*
X12257907Y-16550960D02*
X12248383Y-16541436D01*
X12438859Y-16379531D02*
X12448383Y-16370008D01*
X12448383Y-16370008D02*
X12467431Y-16360484D01*
X12467431Y-16360484D02*
X12515050Y-16360484D01*
X12515050Y-16360484D02*
X12534097Y-16370008D01*
X12534097Y-16370008D02*
X12543621Y-16379531D01*
X12543621Y-16379531D02*
X12553145Y-16398579D01*
X12553145Y-16398579D02*
X12553145Y-16417627D01*
X12553145Y-16417627D02*
X12543621Y-16446198D01*
X12543621Y-16446198D02*
X12429335Y-16560484D01*
X12429335Y-16560484D02*
X12553145Y-16560484D01*
X12791240Y-16560484D02*
X12791240Y-16360484D01*
X12876955Y-16560484D02*
X12876955Y-16455722D01*
X12876955Y-16455722D02*
X12867431Y-16436674D01*
X12867431Y-16436674D02*
X12848383Y-16427150D01*
X12848383Y-16427150D02*
X12819812Y-16427150D01*
X12819812Y-16427150D02*
X12800764Y-16436674D01*
X12800764Y-16436674D02*
X12791240Y-16446198D01*
X13000764Y-16560484D02*
X12981716Y-16550960D01*
X12981716Y-16550960D02*
X12972193Y-16541436D01*
X12972193Y-16541436D02*
X12962669Y-16522388D01*
X12962669Y-16522388D02*
X12962669Y-16465246D01*
X12962669Y-16465246D02*
X12972193Y-16446198D01*
X12972193Y-16446198D02*
X12981716Y-16436674D01*
X12981716Y-16436674D02*
X13000764Y-16427150D01*
X13000764Y-16427150D02*
X13029336Y-16427150D01*
X13029336Y-16427150D02*
X13048383Y-16436674D01*
X13048383Y-16436674D02*
X13057907Y-16446198D01*
X13057907Y-16446198D02*
X13067431Y-16465246D01*
X13067431Y-16465246D02*
X13067431Y-16522388D01*
X13067431Y-16522388D02*
X13057907Y-16541436D01*
X13057907Y-16541436D02*
X13048383Y-16550960D01*
X13048383Y-16550960D02*
X13029336Y-16560484D01*
X13029336Y-16560484D02*
X13000764Y-16560484D01*
X13181716Y-16560484D02*
X13162669Y-16550960D01*
X13162669Y-16550960D02*
X13153145Y-16531912D01*
X13153145Y-16531912D02*
X13153145Y-16360484D01*
X13334097Y-16550960D02*
X13315050Y-16560484D01*
X13315050Y-16560484D02*
X13276955Y-16560484D01*
X13276955Y-16560484D02*
X13257907Y-16550960D01*
X13257907Y-16550960D02*
X13248383Y-16531912D01*
X13248383Y-16531912D02*
X13248383Y-16455722D01*
X13248383Y-16455722D02*
X13257907Y-16436674D01*
X13257907Y-16436674D02*
X13276955Y-16427150D01*
X13276955Y-16427150D02*
X13315050Y-16427150D01*
X13315050Y-16427150D02*
X13334097Y-16436674D01*
X13334097Y-16436674D02*
X13343621Y-16455722D01*
X13343621Y-16455722D02*
X13343621Y-16474769D01*
X13343621Y-16474769D02*
X13248383Y-16493817D01*
X13419812Y-16550960D02*
X13438859Y-16560484D01*
X13438859Y-16560484D02*
X13476955Y-16560484D01*
X13476955Y-16560484D02*
X13496002Y-16550960D01*
X13496002Y-16550960D02*
X13505526Y-16531912D01*
X13505526Y-16531912D02*
X13505526Y-16522388D01*
X13505526Y-16522388D02*
X13496002Y-16503341D01*
X13496002Y-16503341D02*
X13476955Y-16493817D01*
X13476955Y-16493817D02*
X13448383Y-16493817D01*
X13448383Y-16493817D02*
X13429336Y-16484293D01*
X13429336Y-16484293D02*
X13419812Y-16465246D01*
X13419812Y-16465246D02*
X13419812Y-16455722D01*
X13419812Y-16455722D02*
X13429336Y-16436674D01*
X13429336Y-16436674D02*
X13448383Y-16427150D01*
X13448383Y-16427150D02*
X13476955Y-16427150D01*
X13476955Y-16427150D02*
X13496002Y-16436674D01*
X13572193Y-16636674D02*
X13581717Y-16627150D01*
X13581717Y-16627150D02*
X13600764Y-16598579D01*
X13600764Y-16598579D02*
X13610288Y-16579531D01*
X13610288Y-16579531D02*
X13619812Y-16550960D01*
X13619812Y-16550960D02*
X13629336Y-16503341D01*
X13629336Y-16503341D02*
X13629336Y-16465246D01*
X13629336Y-16465246D02*
X13619812Y-16417627D01*
X13619812Y-16417627D02*
X13610288Y-16389055D01*
X13610288Y-16389055D02*
X13600764Y-16370008D01*
X13600764Y-16370008D02*
X13581717Y-16341436D01*
X13581717Y-16341436D02*
X13572193Y-16331912D01*
D11*
X8559154Y-16685500D02*
X8559154Y-16780500D01*
X8511654Y-16733000D02*
X8606654Y-16733000D01*
D10*
X8905526Y-16624484D02*
X8924573Y-16624484D01*
X8924573Y-16624484D02*
X8943621Y-16634008D01*
X8943621Y-16634008D02*
X8953145Y-16643531D01*
X8953145Y-16643531D02*
X8962669Y-16662579D01*
X8962669Y-16662579D02*
X8972192Y-16700674D01*
X8972192Y-16700674D02*
X8972192Y-16748293D01*
X8972192Y-16748293D02*
X8962669Y-16786389D01*
X8962669Y-16786389D02*
X8953145Y-16805436D01*
X8953145Y-16805436D02*
X8943621Y-16814960D01*
X8943621Y-16814960D02*
X8924573Y-16824484D01*
X8924573Y-16824484D02*
X8905526Y-16824484D01*
X8905526Y-16824484D02*
X8886478Y-16814960D01*
X8886478Y-16814960D02*
X8876954Y-16805436D01*
X8876954Y-16805436D02*
X8867430Y-16786389D01*
X8867430Y-16786389D02*
X8857907Y-16748293D01*
X8857907Y-16748293D02*
X8857907Y-16700674D01*
X8857907Y-16700674D02*
X8867430Y-16662579D01*
X8867430Y-16662579D02*
X8876954Y-16643531D01*
X8876954Y-16643531D02*
X8886478Y-16634008D01*
X8886478Y-16634008D02*
X8905526Y-16624484D01*
X9057907Y-16805436D02*
X9067430Y-16814960D01*
X9067430Y-16814960D02*
X9057907Y-16824484D01*
X9057907Y-16824484D02*
X9048383Y-16814960D01*
X9048383Y-16814960D02*
X9057907Y-16805436D01*
X9057907Y-16805436D02*
X9057907Y-16824484D01*
X9162669Y-16824484D02*
X9200764Y-16824484D01*
X9200764Y-16824484D02*
X9219811Y-16814960D01*
X9219811Y-16814960D02*
X9229335Y-16805436D01*
X9229335Y-16805436D02*
X9248383Y-16776865D01*
X9248383Y-16776865D02*
X9257907Y-16738769D01*
X9257907Y-16738769D02*
X9257907Y-16662579D01*
X9257907Y-16662579D02*
X9248383Y-16643531D01*
X9248383Y-16643531D02*
X9238859Y-16634008D01*
X9238859Y-16634008D02*
X9219811Y-16624484D01*
X9219811Y-16624484D02*
X9181716Y-16624484D01*
X9181716Y-16624484D02*
X9162669Y-16634008D01*
X9162669Y-16634008D02*
X9153145Y-16643531D01*
X9153145Y-16643531D02*
X9143621Y-16662579D01*
X9143621Y-16662579D02*
X9143621Y-16710198D01*
X9143621Y-16710198D02*
X9153145Y-16729246D01*
X9153145Y-16729246D02*
X9162669Y-16738769D01*
X9162669Y-16738769D02*
X9181716Y-16748293D01*
X9181716Y-16748293D02*
X9219811Y-16748293D01*
X9219811Y-16748293D02*
X9238859Y-16738769D01*
X9238859Y-16738769D02*
X9248383Y-16729246D01*
X9248383Y-16729246D02*
X9257907Y-16710198D01*
X9438859Y-16624484D02*
X9343621Y-16624484D01*
X9343621Y-16624484D02*
X9334097Y-16719722D01*
X9334097Y-16719722D02*
X9343621Y-16710198D01*
X9343621Y-16710198D02*
X9362669Y-16700674D01*
X9362669Y-16700674D02*
X9410288Y-16700674D01*
X9410288Y-16700674D02*
X9429335Y-16710198D01*
X9429335Y-16710198D02*
X9438859Y-16719722D01*
X9438859Y-16719722D02*
X9448383Y-16738769D01*
X9448383Y-16738769D02*
X9448383Y-16786389D01*
X9448383Y-16786389D02*
X9438859Y-16805436D01*
X9438859Y-16805436D02*
X9429335Y-16814960D01*
X9429335Y-16814960D02*
X9410288Y-16824484D01*
X9410288Y-16824484D02*
X9362669Y-16824484D01*
X9362669Y-16824484D02*
X9343621Y-16814960D01*
X9343621Y-16814960D02*
X9334097Y-16805436D01*
X9572192Y-16624484D02*
X9591240Y-16624484D01*
X9591240Y-16624484D02*
X9610288Y-16634008D01*
X9610288Y-16634008D02*
X9619811Y-16643531D01*
X9619811Y-16643531D02*
X9629335Y-16662579D01*
X9629335Y-16662579D02*
X9638859Y-16700674D01*
X9638859Y-16700674D02*
X9638859Y-16748293D01*
X9638859Y-16748293D02*
X9629335Y-16786389D01*
X9629335Y-16786389D02*
X9619811Y-16805436D01*
X9619811Y-16805436D02*
X9610288Y-16814960D01*
X9610288Y-16814960D02*
X9591240Y-16824484D01*
X9591240Y-16824484D02*
X9572192Y-16824484D01*
X9572192Y-16824484D02*
X9553145Y-16814960D01*
X9553145Y-16814960D02*
X9543621Y-16805436D01*
X9543621Y-16805436D02*
X9534097Y-16786389D01*
X9534097Y-16786389D02*
X9524573Y-16748293D01*
X9524573Y-16748293D02*
X9524573Y-16700674D01*
X9524573Y-16700674D02*
X9534097Y-16662579D01*
X9534097Y-16662579D02*
X9543621Y-16643531D01*
X9543621Y-16643531D02*
X9553145Y-16634008D01*
X9553145Y-16634008D02*
X9572192Y-16624484D01*
X9724573Y-16824484D02*
X9724573Y-16691150D01*
X9724573Y-16710198D02*
X9734097Y-16700674D01*
X9734097Y-16700674D02*
X9753145Y-16691150D01*
X9753145Y-16691150D02*
X9781716Y-16691150D01*
X9781716Y-16691150D02*
X9800764Y-16700674D01*
X9800764Y-16700674D02*
X9810288Y-16719722D01*
X9810288Y-16719722D02*
X9810288Y-16824484D01*
X9810288Y-16719722D02*
X9819811Y-16700674D01*
X9819811Y-16700674D02*
X9838859Y-16691150D01*
X9838859Y-16691150D02*
X9867430Y-16691150D01*
X9867430Y-16691150D02*
X9886478Y-16700674D01*
X9886478Y-16700674D02*
X9896002Y-16719722D01*
X9896002Y-16719722D02*
X9896002Y-16824484D01*
X9991240Y-16824484D02*
X9991240Y-16691150D01*
X9991240Y-16710198D02*
X10000764Y-16700674D01*
X10000764Y-16700674D02*
X10019811Y-16691150D01*
X10019811Y-16691150D02*
X10048383Y-16691150D01*
X10048383Y-16691150D02*
X10067431Y-16700674D01*
X10067431Y-16700674D02*
X10076954Y-16719722D01*
X10076954Y-16719722D02*
X10076954Y-16824484D01*
X10076954Y-16719722D02*
X10086478Y-16700674D01*
X10086478Y-16700674D02*
X10105526Y-16691150D01*
X10105526Y-16691150D02*
X10134097Y-16691150D01*
X10134097Y-16691150D02*
X10153145Y-16700674D01*
X10153145Y-16700674D02*
X10162669Y-16719722D01*
X10162669Y-16719722D02*
X10162669Y-16824484D01*
X10553145Y-16614960D02*
X10381716Y-16872103D01*
X10810288Y-16624484D02*
X10829335Y-16624484D01*
X10829335Y-16624484D02*
X10848383Y-16634008D01*
X10848383Y-16634008D02*
X10857907Y-16643531D01*
X10857907Y-16643531D02*
X10867431Y-16662579D01*
X10867431Y-16662579D02*
X10876954Y-16700674D01*
X10876954Y-16700674D02*
X10876954Y-16748293D01*
X10876954Y-16748293D02*
X10867431Y-16786389D01*
X10867431Y-16786389D02*
X10857907Y-16805436D01*
X10857907Y-16805436D02*
X10848383Y-16814960D01*
X10848383Y-16814960D02*
X10829335Y-16824484D01*
X10829335Y-16824484D02*
X10810288Y-16824484D01*
X10810288Y-16824484D02*
X10791240Y-16814960D01*
X10791240Y-16814960D02*
X10781716Y-16805436D01*
X10781716Y-16805436D02*
X10772193Y-16786389D01*
X10772193Y-16786389D02*
X10762669Y-16748293D01*
X10762669Y-16748293D02*
X10762669Y-16700674D01*
X10762669Y-16700674D02*
X10772193Y-16662579D01*
X10772193Y-16662579D02*
X10781716Y-16643531D01*
X10781716Y-16643531D02*
X10791240Y-16634008D01*
X10791240Y-16634008D02*
X10810288Y-16624484D01*
X10962669Y-16805436D02*
X10972193Y-16814960D01*
X10972193Y-16814960D02*
X10962669Y-16824484D01*
X10962669Y-16824484D02*
X10953145Y-16814960D01*
X10953145Y-16814960D02*
X10962669Y-16805436D01*
X10962669Y-16805436D02*
X10962669Y-16824484D01*
X11096002Y-16624484D02*
X11115050Y-16624484D01*
X11115050Y-16624484D02*
X11134097Y-16634008D01*
X11134097Y-16634008D02*
X11143621Y-16643531D01*
X11143621Y-16643531D02*
X11153145Y-16662579D01*
X11153145Y-16662579D02*
X11162669Y-16700674D01*
X11162669Y-16700674D02*
X11162669Y-16748293D01*
X11162669Y-16748293D02*
X11153145Y-16786389D01*
X11153145Y-16786389D02*
X11143621Y-16805436D01*
X11143621Y-16805436D02*
X11134097Y-16814960D01*
X11134097Y-16814960D02*
X11115050Y-16824484D01*
X11115050Y-16824484D02*
X11096002Y-16824484D01*
X11096002Y-16824484D02*
X11076954Y-16814960D01*
X11076954Y-16814960D02*
X11067431Y-16805436D01*
X11067431Y-16805436D02*
X11057907Y-16786389D01*
X11057907Y-16786389D02*
X11048383Y-16748293D01*
X11048383Y-16748293D02*
X11048383Y-16700674D01*
X11048383Y-16700674D02*
X11057907Y-16662579D01*
X11057907Y-16662579D02*
X11067431Y-16643531D01*
X11067431Y-16643531D02*
X11076954Y-16634008D01*
X11076954Y-16634008D02*
X11096002Y-16624484D01*
X11229335Y-16624484D02*
X11353145Y-16624484D01*
X11353145Y-16624484D02*
X11286478Y-16700674D01*
X11286478Y-16700674D02*
X11315050Y-16700674D01*
X11315050Y-16700674D02*
X11334097Y-16710198D01*
X11334097Y-16710198D02*
X11343621Y-16719722D01*
X11343621Y-16719722D02*
X11353145Y-16738769D01*
X11353145Y-16738769D02*
X11353145Y-16786389D01*
X11353145Y-16786389D02*
X11343621Y-16805436D01*
X11343621Y-16805436D02*
X11334097Y-16814960D01*
X11334097Y-16814960D02*
X11315050Y-16824484D01*
X11315050Y-16824484D02*
X11257907Y-16824484D01*
X11257907Y-16824484D02*
X11238859Y-16814960D01*
X11238859Y-16814960D02*
X11229335Y-16805436D01*
X11419812Y-16624484D02*
X11553145Y-16624484D01*
X11553145Y-16624484D02*
X11467431Y-16824484D01*
X11715050Y-16691150D02*
X11715050Y-16824484D01*
X11667431Y-16614960D02*
X11619812Y-16757817D01*
X11619812Y-16757817D02*
X11743621Y-16757817D01*
X11810288Y-16624484D02*
X11810288Y-16662579D01*
X11886478Y-16624484D02*
X11886478Y-16662579D01*
X12181716Y-16900674D02*
X12172193Y-16891150D01*
X12172193Y-16891150D02*
X12153145Y-16862579D01*
X12153145Y-16862579D02*
X12143621Y-16843531D01*
X12143621Y-16843531D02*
X12134097Y-16814960D01*
X12134097Y-16814960D02*
X12124574Y-16767341D01*
X12124574Y-16767341D02*
X12124574Y-16729246D01*
X12124574Y-16729246D02*
X12134097Y-16681627D01*
X12134097Y-16681627D02*
X12143621Y-16653055D01*
X12143621Y-16653055D02*
X12153145Y-16634008D01*
X12153145Y-16634008D02*
X12172193Y-16605436D01*
X12172193Y-16605436D02*
X12181716Y-16595912D01*
X12248383Y-16643531D02*
X12257907Y-16634008D01*
X12257907Y-16634008D02*
X12276954Y-16624484D01*
X12276954Y-16624484D02*
X12324574Y-16624484D01*
X12324574Y-16624484D02*
X12343621Y-16634008D01*
X12343621Y-16634008D02*
X12353145Y-16643531D01*
X12353145Y-16643531D02*
X12362669Y-16662579D01*
X12362669Y-16662579D02*
X12362669Y-16681627D01*
X12362669Y-16681627D02*
X12353145Y-16710198D01*
X12353145Y-16710198D02*
X12238859Y-16824484D01*
X12238859Y-16824484D02*
X12362669Y-16824484D01*
X12543621Y-16624484D02*
X12448383Y-16624484D01*
X12448383Y-16624484D02*
X12438859Y-16719722D01*
X12438859Y-16719722D02*
X12448383Y-16710198D01*
X12448383Y-16710198D02*
X12467431Y-16700674D01*
X12467431Y-16700674D02*
X12515050Y-16700674D01*
X12515050Y-16700674D02*
X12534097Y-16710198D01*
X12534097Y-16710198D02*
X12543621Y-16719722D01*
X12543621Y-16719722D02*
X12553145Y-16738769D01*
X12553145Y-16738769D02*
X12553145Y-16786389D01*
X12553145Y-16786389D02*
X12543621Y-16805436D01*
X12543621Y-16805436D02*
X12534097Y-16814960D01*
X12534097Y-16814960D02*
X12515050Y-16824484D01*
X12515050Y-16824484D02*
X12467431Y-16824484D01*
X12467431Y-16824484D02*
X12448383Y-16814960D01*
X12448383Y-16814960D02*
X12438859Y-16805436D01*
X12791240Y-16824484D02*
X12791240Y-16624484D01*
X12876955Y-16824484D02*
X12876955Y-16719722D01*
X12876955Y-16719722D02*
X12867431Y-16700674D01*
X12867431Y-16700674D02*
X12848383Y-16691150D01*
X12848383Y-16691150D02*
X12819812Y-16691150D01*
X12819812Y-16691150D02*
X12800764Y-16700674D01*
X12800764Y-16700674D02*
X12791240Y-16710198D01*
X13000764Y-16824484D02*
X12981716Y-16814960D01*
X12981716Y-16814960D02*
X12972193Y-16805436D01*
X12972193Y-16805436D02*
X12962669Y-16786389D01*
X12962669Y-16786389D02*
X12962669Y-16729246D01*
X12962669Y-16729246D02*
X12972193Y-16710198D01*
X12972193Y-16710198D02*
X12981716Y-16700674D01*
X12981716Y-16700674D02*
X13000764Y-16691150D01*
X13000764Y-16691150D02*
X13029336Y-16691150D01*
X13029336Y-16691150D02*
X13048383Y-16700674D01*
X13048383Y-16700674D02*
X13057907Y-16710198D01*
X13057907Y-16710198D02*
X13067431Y-16729246D01*
X13067431Y-16729246D02*
X13067431Y-16786389D01*
X13067431Y-16786389D02*
X13057907Y-16805436D01*
X13057907Y-16805436D02*
X13048383Y-16814960D01*
X13048383Y-16814960D02*
X13029336Y-16824484D01*
X13029336Y-16824484D02*
X13000764Y-16824484D01*
X13181716Y-16824484D02*
X13162669Y-16814960D01*
X13162669Y-16814960D02*
X13153145Y-16795912D01*
X13153145Y-16795912D02*
X13153145Y-16624484D01*
X13334097Y-16814960D02*
X13315050Y-16824484D01*
X13315050Y-16824484D02*
X13276955Y-16824484D01*
X13276955Y-16824484D02*
X13257907Y-16814960D01*
X13257907Y-16814960D02*
X13248383Y-16795912D01*
X13248383Y-16795912D02*
X13248383Y-16719722D01*
X13248383Y-16719722D02*
X13257907Y-16700674D01*
X13257907Y-16700674D02*
X13276955Y-16691150D01*
X13276955Y-16691150D02*
X13315050Y-16691150D01*
X13315050Y-16691150D02*
X13334097Y-16700674D01*
X13334097Y-16700674D02*
X13343621Y-16719722D01*
X13343621Y-16719722D02*
X13343621Y-16738769D01*
X13343621Y-16738769D02*
X13248383Y-16757817D01*
X13419812Y-16814960D02*
X13438859Y-16824484D01*
X13438859Y-16824484D02*
X13476955Y-16824484D01*
X13476955Y-16824484D02*
X13496002Y-16814960D01*
X13496002Y-16814960D02*
X13505526Y-16795912D01*
X13505526Y-16795912D02*
X13505526Y-16786389D01*
X13505526Y-16786389D02*
X13496002Y-16767341D01*
X13496002Y-16767341D02*
X13476955Y-16757817D01*
X13476955Y-16757817D02*
X13448383Y-16757817D01*
X13448383Y-16757817D02*
X13429336Y-16748293D01*
X13429336Y-16748293D02*
X13419812Y-16729246D01*
X13419812Y-16729246D02*
X13419812Y-16719722D01*
X13419812Y-16719722D02*
X13429336Y-16700674D01*
X13429336Y-16700674D02*
X13448383Y-16691150D01*
X13448383Y-16691150D02*
X13476955Y-16691150D01*
X13476955Y-16691150D02*
X13496002Y-16700674D01*
X13572193Y-16900674D02*
X13581717Y-16891150D01*
X13581717Y-16891150D02*
X13600764Y-16862579D01*
X13600764Y-16862579D02*
X13610288Y-16843531D01*
X13610288Y-16843531D02*
X13619812Y-16814960D01*
X13619812Y-16814960D02*
X13629336Y-16767341D01*
X13629336Y-16767341D02*
X13629336Y-16729246D01*
X13629336Y-16729246D02*
X13619812Y-16681627D01*
X13619812Y-16681627D02*
X13610288Y-16653055D01*
X13610288Y-16653055D02*
X13600764Y-16634008D01*
X13600764Y-16634008D02*
X13581717Y-16605436D01*
X13581717Y-16605436D02*
X13572193Y-16595912D01*
D11*
X8592009Y-17032356D02*
X8592009Y-16961644D01*
X8521298Y-16961644D01*
X8521298Y-17032356D01*
X8592009Y-17032356D01*
D10*
X8972192Y-17088484D02*
X8857907Y-17088484D01*
X8915049Y-17088484D02*
X8915049Y-16888484D01*
X8915049Y-16888484D02*
X8896002Y-16917055D01*
X8896002Y-16917055D02*
X8876954Y-16936103D01*
X8876954Y-16936103D02*
X8857907Y-16945627D01*
X9057907Y-17069436D02*
X9067430Y-17078960D01*
X9067430Y-17078960D02*
X9057907Y-17088484D01*
X9057907Y-17088484D02*
X9048383Y-17078960D01*
X9048383Y-17078960D02*
X9057907Y-17069436D01*
X9057907Y-17069436D02*
X9057907Y-17088484D01*
X9191240Y-16888484D02*
X9210288Y-16888484D01*
X9210288Y-16888484D02*
X9229335Y-16898008D01*
X9229335Y-16898008D02*
X9238859Y-16907531D01*
X9238859Y-16907531D02*
X9248383Y-16926579D01*
X9248383Y-16926579D02*
X9257907Y-16964674D01*
X9257907Y-16964674D02*
X9257907Y-17012293D01*
X9257907Y-17012293D02*
X9248383Y-17050389D01*
X9248383Y-17050389D02*
X9238859Y-17069436D01*
X9238859Y-17069436D02*
X9229335Y-17078960D01*
X9229335Y-17078960D02*
X9210288Y-17088484D01*
X9210288Y-17088484D02*
X9191240Y-17088484D01*
X9191240Y-17088484D02*
X9172192Y-17078960D01*
X9172192Y-17078960D02*
X9162669Y-17069436D01*
X9162669Y-17069436D02*
X9153145Y-17050389D01*
X9153145Y-17050389D02*
X9143621Y-17012293D01*
X9143621Y-17012293D02*
X9143621Y-16964674D01*
X9143621Y-16964674D02*
X9153145Y-16926579D01*
X9153145Y-16926579D02*
X9162669Y-16907531D01*
X9162669Y-16907531D02*
X9172192Y-16898008D01*
X9172192Y-16898008D02*
X9191240Y-16888484D01*
X9381716Y-16888484D02*
X9400764Y-16888484D01*
X9400764Y-16888484D02*
X9419811Y-16898008D01*
X9419811Y-16898008D02*
X9429335Y-16907531D01*
X9429335Y-16907531D02*
X9438859Y-16926579D01*
X9438859Y-16926579D02*
X9448383Y-16964674D01*
X9448383Y-16964674D02*
X9448383Y-17012293D01*
X9448383Y-17012293D02*
X9438859Y-17050389D01*
X9438859Y-17050389D02*
X9429335Y-17069436D01*
X9429335Y-17069436D02*
X9419811Y-17078960D01*
X9419811Y-17078960D02*
X9400764Y-17088484D01*
X9400764Y-17088484D02*
X9381716Y-17088484D01*
X9381716Y-17088484D02*
X9362669Y-17078960D01*
X9362669Y-17078960D02*
X9353145Y-17069436D01*
X9353145Y-17069436D02*
X9343621Y-17050389D01*
X9343621Y-17050389D02*
X9334097Y-17012293D01*
X9334097Y-17012293D02*
X9334097Y-16964674D01*
X9334097Y-16964674D02*
X9343621Y-16926579D01*
X9343621Y-16926579D02*
X9353145Y-16907531D01*
X9353145Y-16907531D02*
X9362669Y-16898008D01*
X9362669Y-16898008D02*
X9381716Y-16888484D01*
X9572192Y-16888484D02*
X9591240Y-16888484D01*
X9591240Y-16888484D02*
X9610288Y-16898008D01*
X9610288Y-16898008D02*
X9619811Y-16907531D01*
X9619811Y-16907531D02*
X9629335Y-16926579D01*
X9629335Y-16926579D02*
X9638859Y-16964674D01*
X9638859Y-16964674D02*
X9638859Y-17012293D01*
X9638859Y-17012293D02*
X9629335Y-17050389D01*
X9629335Y-17050389D02*
X9619811Y-17069436D01*
X9619811Y-17069436D02*
X9610288Y-17078960D01*
X9610288Y-17078960D02*
X9591240Y-17088484D01*
X9591240Y-17088484D02*
X9572192Y-17088484D01*
X9572192Y-17088484D02*
X9553145Y-17078960D01*
X9553145Y-17078960D02*
X9543621Y-17069436D01*
X9543621Y-17069436D02*
X9534097Y-17050389D01*
X9534097Y-17050389D02*
X9524573Y-17012293D01*
X9524573Y-17012293D02*
X9524573Y-16964674D01*
X9524573Y-16964674D02*
X9534097Y-16926579D01*
X9534097Y-16926579D02*
X9543621Y-16907531D01*
X9543621Y-16907531D02*
X9553145Y-16898008D01*
X9553145Y-16898008D02*
X9572192Y-16888484D01*
X9724573Y-17088484D02*
X9724573Y-16955150D01*
X9724573Y-16974198D02*
X9734097Y-16964674D01*
X9734097Y-16964674D02*
X9753145Y-16955150D01*
X9753145Y-16955150D02*
X9781716Y-16955150D01*
X9781716Y-16955150D02*
X9800764Y-16964674D01*
X9800764Y-16964674D02*
X9810288Y-16983722D01*
X9810288Y-16983722D02*
X9810288Y-17088484D01*
X9810288Y-16983722D02*
X9819811Y-16964674D01*
X9819811Y-16964674D02*
X9838859Y-16955150D01*
X9838859Y-16955150D02*
X9867430Y-16955150D01*
X9867430Y-16955150D02*
X9886478Y-16964674D01*
X9886478Y-16964674D02*
X9896002Y-16983722D01*
X9896002Y-16983722D02*
X9896002Y-17088484D01*
X9991240Y-17088484D02*
X9991240Y-16955150D01*
X9991240Y-16974198D02*
X10000764Y-16964674D01*
X10000764Y-16964674D02*
X10019811Y-16955150D01*
X10019811Y-16955150D02*
X10048383Y-16955150D01*
X10048383Y-16955150D02*
X10067431Y-16964674D01*
X10067431Y-16964674D02*
X10076954Y-16983722D01*
X10076954Y-16983722D02*
X10076954Y-17088484D01*
X10076954Y-16983722D02*
X10086478Y-16964674D01*
X10086478Y-16964674D02*
X10105526Y-16955150D01*
X10105526Y-16955150D02*
X10134097Y-16955150D01*
X10134097Y-16955150D02*
X10153145Y-16964674D01*
X10153145Y-16964674D02*
X10162669Y-16983722D01*
X10162669Y-16983722D02*
X10162669Y-17088484D01*
X10553145Y-16878960D02*
X10381716Y-17136103D01*
X10810288Y-16888484D02*
X10829335Y-16888484D01*
X10829335Y-16888484D02*
X10848383Y-16898008D01*
X10848383Y-16898008D02*
X10857907Y-16907531D01*
X10857907Y-16907531D02*
X10867431Y-16926579D01*
X10867431Y-16926579D02*
X10876954Y-16964674D01*
X10876954Y-16964674D02*
X10876954Y-17012293D01*
X10876954Y-17012293D02*
X10867431Y-17050389D01*
X10867431Y-17050389D02*
X10857907Y-17069436D01*
X10857907Y-17069436D02*
X10848383Y-17078960D01*
X10848383Y-17078960D02*
X10829335Y-17088484D01*
X10829335Y-17088484D02*
X10810288Y-17088484D01*
X10810288Y-17088484D02*
X10791240Y-17078960D01*
X10791240Y-17078960D02*
X10781716Y-17069436D01*
X10781716Y-17069436D02*
X10772193Y-17050389D01*
X10772193Y-17050389D02*
X10762669Y-17012293D01*
X10762669Y-17012293D02*
X10762669Y-16964674D01*
X10762669Y-16964674D02*
X10772193Y-16926579D01*
X10772193Y-16926579D02*
X10781716Y-16907531D01*
X10781716Y-16907531D02*
X10791240Y-16898008D01*
X10791240Y-16898008D02*
X10810288Y-16888484D01*
X10962669Y-17069436D02*
X10972193Y-17078960D01*
X10972193Y-17078960D02*
X10962669Y-17088484D01*
X10962669Y-17088484D02*
X10953145Y-17078960D01*
X10953145Y-17078960D02*
X10962669Y-17069436D01*
X10962669Y-17069436D02*
X10962669Y-17088484D01*
X11096002Y-16888484D02*
X11115050Y-16888484D01*
X11115050Y-16888484D02*
X11134097Y-16898008D01*
X11134097Y-16898008D02*
X11143621Y-16907531D01*
X11143621Y-16907531D02*
X11153145Y-16926579D01*
X11153145Y-16926579D02*
X11162669Y-16964674D01*
X11162669Y-16964674D02*
X11162669Y-17012293D01*
X11162669Y-17012293D02*
X11153145Y-17050389D01*
X11153145Y-17050389D02*
X11143621Y-17069436D01*
X11143621Y-17069436D02*
X11134097Y-17078960D01*
X11134097Y-17078960D02*
X11115050Y-17088484D01*
X11115050Y-17088484D02*
X11096002Y-17088484D01*
X11096002Y-17088484D02*
X11076954Y-17078960D01*
X11076954Y-17078960D02*
X11067431Y-17069436D01*
X11067431Y-17069436D02*
X11057907Y-17050389D01*
X11057907Y-17050389D02*
X11048383Y-17012293D01*
X11048383Y-17012293D02*
X11048383Y-16964674D01*
X11048383Y-16964674D02*
X11057907Y-16926579D01*
X11057907Y-16926579D02*
X11067431Y-16907531D01*
X11067431Y-16907531D02*
X11076954Y-16898008D01*
X11076954Y-16898008D02*
X11096002Y-16888484D01*
X11229335Y-16888484D02*
X11353145Y-16888484D01*
X11353145Y-16888484D02*
X11286478Y-16964674D01*
X11286478Y-16964674D02*
X11315050Y-16964674D01*
X11315050Y-16964674D02*
X11334097Y-16974198D01*
X11334097Y-16974198D02*
X11343621Y-16983722D01*
X11343621Y-16983722D02*
X11353145Y-17002770D01*
X11353145Y-17002770D02*
X11353145Y-17050389D01*
X11353145Y-17050389D02*
X11343621Y-17069436D01*
X11343621Y-17069436D02*
X11334097Y-17078960D01*
X11334097Y-17078960D02*
X11315050Y-17088484D01*
X11315050Y-17088484D02*
X11257907Y-17088484D01*
X11257907Y-17088484D02*
X11238859Y-17078960D01*
X11238859Y-17078960D02*
X11229335Y-17069436D01*
X11448383Y-17088484D02*
X11486478Y-17088484D01*
X11486478Y-17088484D02*
X11505526Y-17078960D01*
X11505526Y-17078960D02*
X11515050Y-17069436D01*
X11515050Y-17069436D02*
X11534097Y-17040865D01*
X11534097Y-17040865D02*
X11543621Y-17002770D01*
X11543621Y-17002770D02*
X11543621Y-16926579D01*
X11543621Y-16926579D02*
X11534097Y-16907531D01*
X11534097Y-16907531D02*
X11524573Y-16898008D01*
X11524573Y-16898008D02*
X11505526Y-16888484D01*
X11505526Y-16888484D02*
X11467431Y-16888484D01*
X11467431Y-16888484D02*
X11448383Y-16898008D01*
X11448383Y-16898008D02*
X11438859Y-16907531D01*
X11438859Y-16907531D02*
X11429335Y-16926579D01*
X11429335Y-16926579D02*
X11429335Y-16974198D01*
X11429335Y-16974198D02*
X11438859Y-16993246D01*
X11438859Y-16993246D02*
X11448383Y-17002770D01*
X11448383Y-17002770D02*
X11467431Y-17012293D01*
X11467431Y-17012293D02*
X11505526Y-17012293D01*
X11505526Y-17012293D02*
X11524573Y-17002770D01*
X11524573Y-17002770D02*
X11534097Y-16993246D01*
X11534097Y-16993246D02*
X11543621Y-16974198D01*
X11715050Y-16955150D02*
X11715050Y-17088484D01*
X11667431Y-16878960D02*
X11619812Y-17021817D01*
X11619812Y-17021817D02*
X11743621Y-17021817D01*
X11810288Y-16888484D02*
X11810288Y-16926579D01*
X11886478Y-16888484D02*
X11886478Y-16926579D01*
X12181716Y-17164674D02*
X12172193Y-17155150D01*
X12172193Y-17155150D02*
X12153145Y-17126579D01*
X12153145Y-17126579D02*
X12143621Y-17107531D01*
X12143621Y-17107531D02*
X12134097Y-17078960D01*
X12134097Y-17078960D02*
X12124574Y-17031341D01*
X12124574Y-17031341D02*
X12124574Y-16993246D01*
X12124574Y-16993246D02*
X12134097Y-16945627D01*
X12134097Y-16945627D02*
X12143621Y-16917055D01*
X12143621Y-16917055D02*
X12153145Y-16898008D01*
X12153145Y-16898008D02*
X12172193Y-16869436D01*
X12172193Y-16869436D02*
X12181716Y-16859912D01*
X12343621Y-16955150D02*
X12343621Y-17088484D01*
X12296002Y-16878960D02*
X12248383Y-17021817D01*
X12248383Y-17021817D02*
X12372193Y-17021817D01*
X12476954Y-16974198D02*
X12457907Y-16964674D01*
X12457907Y-16964674D02*
X12448383Y-16955150D01*
X12448383Y-16955150D02*
X12438859Y-16936103D01*
X12438859Y-16936103D02*
X12438859Y-16926579D01*
X12438859Y-16926579D02*
X12448383Y-16907531D01*
X12448383Y-16907531D02*
X12457907Y-16898008D01*
X12457907Y-16898008D02*
X12476954Y-16888484D01*
X12476954Y-16888484D02*
X12515050Y-16888484D01*
X12515050Y-16888484D02*
X12534097Y-16898008D01*
X12534097Y-16898008D02*
X12543621Y-16907531D01*
X12543621Y-16907531D02*
X12553145Y-16926579D01*
X12553145Y-16926579D02*
X12553145Y-16936103D01*
X12553145Y-16936103D02*
X12543621Y-16955150D01*
X12543621Y-16955150D02*
X12534097Y-16964674D01*
X12534097Y-16964674D02*
X12515050Y-16974198D01*
X12515050Y-16974198D02*
X12476954Y-16974198D01*
X12476954Y-16974198D02*
X12457907Y-16983722D01*
X12457907Y-16983722D02*
X12448383Y-16993246D01*
X12448383Y-16993246D02*
X12438859Y-17012293D01*
X12438859Y-17012293D02*
X12438859Y-17050389D01*
X12438859Y-17050389D02*
X12448383Y-17069436D01*
X12448383Y-17069436D02*
X12457907Y-17078960D01*
X12457907Y-17078960D02*
X12476954Y-17088484D01*
X12476954Y-17088484D02*
X12515050Y-17088484D01*
X12515050Y-17088484D02*
X12534097Y-17078960D01*
X12534097Y-17078960D02*
X12543621Y-17069436D01*
X12543621Y-17069436D02*
X12553145Y-17050389D01*
X12553145Y-17050389D02*
X12553145Y-17012293D01*
X12553145Y-17012293D02*
X12543621Y-16993246D01*
X12543621Y-16993246D02*
X12534097Y-16983722D01*
X12534097Y-16983722D02*
X12515050Y-16974198D01*
X12791240Y-17088484D02*
X12791240Y-16888484D01*
X12876955Y-17088484D02*
X12876955Y-16983722D01*
X12876955Y-16983722D02*
X12867431Y-16964674D01*
X12867431Y-16964674D02*
X12848383Y-16955150D01*
X12848383Y-16955150D02*
X12819812Y-16955150D01*
X12819812Y-16955150D02*
X12800764Y-16964674D01*
X12800764Y-16964674D02*
X12791240Y-16974198D01*
X13000764Y-17088484D02*
X12981716Y-17078960D01*
X12981716Y-17078960D02*
X12972193Y-17069436D01*
X12972193Y-17069436D02*
X12962669Y-17050389D01*
X12962669Y-17050389D02*
X12962669Y-16993246D01*
X12962669Y-16993246D02*
X12972193Y-16974198D01*
X12972193Y-16974198D02*
X12981716Y-16964674D01*
X12981716Y-16964674D02*
X13000764Y-16955150D01*
X13000764Y-16955150D02*
X13029336Y-16955150D01*
X13029336Y-16955150D02*
X13048383Y-16964674D01*
X13048383Y-16964674D02*
X13057907Y-16974198D01*
X13057907Y-16974198D02*
X13067431Y-16993246D01*
X13067431Y-16993246D02*
X13067431Y-17050389D01*
X13067431Y-17050389D02*
X13057907Y-17069436D01*
X13057907Y-17069436D02*
X13048383Y-17078960D01*
X13048383Y-17078960D02*
X13029336Y-17088484D01*
X13029336Y-17088484D02*
X13000764Y-17088484D01*
X13181716Y-17088484D02*
X13162669Y-17078960D01*
X13162669Y-17078960D02*
X13153145Y-17059912D01*
X13153145Y-17059912D02*
X13153145Y-16888484D01*
X13334097Y-17078960D02*
X13315050Y-17088484D01*
X13315050Y-17088484D02*
X13276955Y-17088484D01*
X13276955Y-17088484D02*
X13257907Y-17078960D01*
X13257907Y-17078960D02*
X13248383Y-17059912D01*
X13248383Y-17059912D02*
X13248383Y-16983722D01*
X13248383Y-16983722D02*
X13257907Y-16964674D01*
X13257907Y-16964674D02*
X13276955Y-16955150D01*
X13276955Y-16955150D02*
X13315050Y-16955150D01*
X13315050Y-16955150D02*
X13334097Y-16964674D01*
X13334097Y-16964674D02*
X13343621Y-16983722D01*
X13343621Y-16983722D02*
X13343621Y-17002770D01*
X13343621Y-17002770D02*
X13248383Y-17021817D01*
X13419812Y-17078960D02*
X13438859Y-17088484D01*
X13438859Y-17088484D02*
X13476955Y-17088484D01*
X13476955Y-17088484D02*
X13496002Y-17078960D01*
X13496002Y-17078960D02*
X13505526Y-17059912D01*
X13505526Y-17059912D02*
X13505526Y-17050389D01*
X13505526Y-17050389D02*
X13496002Y-17031341D01*
X13496002Y-17031341D02*
X13476955Y-17021817D01*
X13476955Y-17021817D02*
X13448383Y-17021817D01*
X13448383Y-17021817D02*
X13429336Y-17012293D01*
X13429336Y-17012293D02*
X13419812Y-16993246D01*
X13419812Y-16993246D02*
X13419812Y-16983722D01*
X13419812Y-16983722D02*
X13429336Y-16964674D01*
X13429336Y-16964674D02*
X13448383Y-16955150D01*
X13448383Y-16955150D02*
X13476955Y-16955150D01*
X13476955Y-16955150D02*
X13496002Y-16964674D01*
X13572193Y-17164674D02*
X13581717Y-17155150D01*
X13581717Y-17155150D02*
X13600764Y-17126579D01*
X13600764Y-17126579D02*
X13610288Y-17107531D01*
X13610288Y-17107531D02*
X13619812Y-17078960D01*
X13619812Y-17078960D02*
X13629336Y-17031341D01*
X13629336Y-17031341D02*
X13629336Y-16993246D01*
X13629336Y-16993246D02*
X13619812Y-16945627D01*
X13619812Y-16945627D02*
X13610288Y-16917055D01*
X13610288Y-16917055D02*
X13600764Y-16898008D01*
X13600764Y-16898008D02*
X13581717Y-16869436D01*
X13581717Y-16869436D02*
X13572193Y-16859912D01*
D12*
X8555854Y-17311800D02*
X8606654Y-17261000D01*
X8555854Y-17210200D01*
X8505054Y-17261000D01*
X8555854Y-17311800D01*
D10*
X8972192Y-17352484D02*
X8857907Y-17352484D01*
X8915049Y-17352484D02*
X8915049Y-17152484D01*
X8915049Y-17152484D02*
X8896002Y-17181055D01*
X8896002Y-17181055D02*
X8876954Y-17200103D01*
X8876954Y-17200103D02*
X8857907Y-17209627D01*
X9057907Y-17333436D02*
X9067430Y-17342960D01*
X9067430Y-17342960D02*
X9057907Y-17352484D01*
X9057907Y-17352484D02*
X9048383Y-17342960D01*
X9048383Y-17342960D02*
X9057907Y-17333436D01*
X9057907Y-17333436D02*
X9057907Y-17352484D01*
X9191240Y-17152484D02*
X9210288Y-17152484D01*
X9210288Y-17152484D02*
X9229335Y-17162008D01*
X9229335Y-17162008D02*
X9238859Y-17171531D01*
X9238859Y-17171531D02*
X9248383Y-17190579D01*
X9248383Y-17190579D02*
X9257907Y-17228674D01*
X9257907Y-17228674D02*
X9257907Y-17276293D01*
X9257907Y-17276293D02*
X9248383Y-17314389D01*
X9248383Y-17314389D02*
X9238859Y-17333436D01*
X9238859Y-17333436D02*
X9229335Y-17342960D01*
X9229335Y-17342960D02*
X9210288Y-17352484D01*
X9210288Y-17352484D02*
X9191240Y-17352484D01*
X9191240Y-17352484D02*
X9172192Y-17342960D01*
X9172192Y-17342960D02*
X9162669Y-17333436D01*
X9162669Y-17333436D02*
X9153145Y-17314389D01*
X9153145Y-17314389D02*
X9143621Y-17276293D01*
X9143621Y-17276293D02*
X9143621Y-17228674D01*
X9143621Y-17228674D02*
X9153145Y-17190579D01*
X9153145Y-17190579D02*
X9162669Y-17171531D01*
X9162669Y-17171531D02*
X9172192Y-17162008D01*
X9172192Y-17162008D02*
X9191240Y-17152484D01*
X9448383Y-17352484D02*
X9334097Y-17352484D01*
X9391240Y-17352484D02*
X9391240Y-17152484D01*
X9391240Y-17152484D02*
X9372192Y-17181055D01*
X9372192Y-17181055D02*
X9353145Y-17200103D01*
X9353145Y-17200103D02*
X9334097Y-17209627D01*
X9619811Y-17152484D02*
X9581716Y-17152484D01*
X9581716Y-17152484D02*
X9562669Y-17162008D01*
X9562669Y-17162008D02*
X9553145Y-17171531D01*
X9553145Y-17171531D02*
X9534097Y-17200103D01*
X9534097Y-17200103D02*
X9524573Y-17238198D01*
X9524573Y-17238198D02*
X9524573Y-17314389D01*
X9524573Y-17314389D02*
X9534097Y-17333436D01*
X9534097Y-17333436D02*
X9543621Y-17342960D01*
X9543621Y-17342960D02*
X9562669Y-17352484D01*
X9562669Y-17352484D02*
X9600764Y-17352484D01*
X9600764Y-17352484D02*
X9619811Y-17342960D01*
X9619811Y-17342960D02*
X9629335Y-17333436D01*
X9629335Y-17333436D02*
X9638859Y-17314389D01*
X9638859Y-17314389D02*
X9638859Y-17266770D01*
X9638859Y-17266770D02*
X9629335Y-17247722D01*
X9629335Y-17247722D02*
X9619811Y-17238198D01*
X9619811Y-17238198D02*
X9600764Y-17228674D01*
X9600764Y-17228674D02*
X9562669Y-17228674D01*
X9562669Y-17228674D02*
X9543621Y-17238198D01*
X9543621Y-17238198D02*
X9534097Y-17247722D01*
X9534097Y-17247722D02*
X9524573Y-17266770D01*
X9724573Y-17352484D02*
X9724573Y-17219150D01*
X9724573Y-17238198D02*
X9734097Y-17228674D01*
X9734097Y-17228674D02*
X9753145Y-17219150D01*
X9753145Y-17219150D02*
X9781716Y-17219150D01*
X9781716Y-17219150D02*
X9800764Y-17228674D01*
X9800764Y-17228674D02*
X9810288Y-17247722D01*
X9810288Y-17247722D02*
X9810288Y-17352484D01*
X9810288Y-17247722D02*
X9819811Y-17228674D01*
X9819811Y-17228674D02*
X9838859Y-17219150D01*
X9838859Y-17219150D02*
X9867430Y-17219150D01*
X9867430Y-17219150D02*
X9886478Y-17228674D01*
X9886478Y-17228674D02*
X9896002Y-17247722D01*
X9896002Y-17247722D02*
X9896002Y-17352484D01*
X9991240Y-17352484D02*
X9991240Y-17219150D01*
X9991240Y-17238198D02*
X10000764Y-17228674D01*
X10000764Y-17228674D02*
X10019811Y-17219150D01*
X10019811Y-17219150D02*
X10048383Y-17219150D01*
X10048383Y-17219150D02*
X10067431Y-17228674D01*
X10067431Y-17228674D02*
X10076954Y-17247722D01*
X10076954Y-17247722D02*
X10076954Y-17352484D01*
X10076954Y-17247722D02*
X10086478Y-17228674D01*
X10086478Y-17228674D02*
X10105526Y-17219150D01*
X10105526Y-17219150D02*
X10134097Y-17219150D01*
X10134097Y-17219150D02*
X10153145Y-17228674D01*
X10153145Y-17228674D02*
X10162669Y-17247722D01*
X10162669Y-17247722D02*
X10162669Y-17352484D01*
X10553145Y-17142960D02*
X10381716Y-17400103D01*
X10810288Y-17152484D02*
X10829335Y-17152484D01*
X10829335Y-17152484D02*
X10848383Y-17162008D01*
X10848383Y-17162008D02*
X10857907Y-17171531D01*
X10857907Y-17171531D02*
X10867431Y-17190579D01*
X10867431Y-17190579D02*
X10876954Y-17228674D01*
X10876954Y-17228674D02*
X10876954Y-17276293D01*
X10876954Y-17276293D02*
X10867431Y-17314389D01*
X10867431Y-17314389D02*
X10857907Y-17333436D01*
X10857907Y-17333436D02*
X10848383Y-17342960D01*
X10848383Y-17342960D02*
X10829335Y-17352484D01*
X10829335Y-17352484D02*
X10810288Y-17352484D01*
X10810288Y-17352484D02*
X10791240Y-17342960D01*
X10791240Y-17342960D02*
X10781716Y-17333436D01*
X10781716Y-17333436D02*
X10772193Y-17314389D01*
X10772193Y-17314389D02*
X10762669Y-17276293D01*
X10762669Y-17276293D02*
X10762669Y-17228674D01*
X10762669Y-17228674D02*
X10772193Y-17190579D01*
X10772193Y-17190579D02*
X10781716Y-17171531D01*
X10781716Y-17171531D02*
X10791240Y-17162008D01*
X10791240Y-17162008D02*
X10810288Y-17152484D01*
X10962669Y-17333436D02*
X10972193Y-17342960D01*
X10972193Y-17342960D02*
X10962669Y-17352484D01*
X10962669Y-17352484D02*
X10953145Y-17342960D01*
X10953145Y-17342960D02*
X10962669Y-17333436D01*
X10962669Y-17333436D02*
X10962669Y-17352484D01*
X11096002Y-17152484D02*
X11115050Y-17152484D01*
X11115050Y-17152484D02*
X11134097Y-17162008D01*
X11134097Y-17162008D02*
X11143621Y-17171531D01*
X11143621Y-17171531D02*
X11153145Y-17190579D01*
X11153145Y-17190579D02*
X11162669Y-17228674D01*
X11162669Y-17228674D02*
X11162669Y-17276293D01*
X11162669Y-17276293D02*
X11153145Y-17314389D01*
X11153145Y-17314389D02*
X11143621Y-17333436D01*
X11143621Y-17333436D02*
X11134097Y-17342960D01*
X11134097Y-17342960D02*
X11115050Y-17352484D01*
X11115050Y-17352484D02*
X11096002Y-17352484D01*
X11096002Y-17352484D02*
X11076954Y-17342960D01*
X11076954Y-17342960D02*
X11067431Y-17333436D01*
X11067431Y-17333436D02*
X11057907Y-17314389D01*
X11057907Y-17314389D02*
X11048383Y-17276293D01*
X11048383Y-17276293D02*
X11048383Y-17228674D01*
X11048383Y-17228674D02*
X11057907Y-17190579D01*
X11057907Y-17190579D02*
X11067431Y-17171531D01*
X11067431Y-17171531D02*
X11076954Y-17162008D01*
X11076954Y-17162008D02*
X11096002Y-17152484D01*
X11334097Y-17219150D02*
X11334097Y-17352484D01*
X11286478Y-17142960D02*
X11238859Y-17285817D01*
X11238859Y-17285817D02*
X11362669Y-17285817D01*
X11476954Y-17152484D02*
X11496002Y-17152484D01*
X11496002Y-17152484D02*
X11515050Y-17162008D01*
X11515050Y-17162008D02*
X11524573Y-17171531D01*
X11524573Y-17171531D02*
X11534097Y-17190579D01*
X11534097Y-17190579D02*
X11543621Y-17228674D01*
X11543621Y-17228674D02*
X11543621Y-17276293D01*
X11543621Y-17276293D02*
X11534097Y-17314389D01*
X11534097Y-17314389D02*
X11524573Y-17333436D01*
X11524573Y-17333436D02*
X11515050Y-17342960D01*
X11515050Y-17342960D02*
X11496002Y-17352484D01*
X11496002Y-17352484D02*
X11476954Y-17352484D01*
X11476954Y-17352484D02*
X11457907Y-17342960D01*
X11457907Y-17342960D02*
X11448383Y-17333436D01*
X11448383Y-17333436D02*
X11438859Y-17314389D01*
X11438859Y-17314389D02*
X11429335Y-17276293D01*
X11429335Y-17276293D02*
X11429335Y-17228674D01*
X11429335Y-17228674D02*
X11438859Y-17190579D01*
X11438859Y-17190579D02*
X11448383Y-17171531D01*
X11448383Y-17171531D02*
X11457907Y-17162008D01*
X11457907Y-17162008D02*
X11476954Y-17152484D01*
X11667431Y-17152484D02*
X11686478Y-17152484D01*
X11686478Y-17152484D02*
X11705526Y-17162008D01*
X11705526Y-17162008D02*
X11715050Y-17171531D01*
X11715050Y-17171531D02*
X11724573Y-17190579D01*
X11724573Y-17190579D02*
X11734097Y-17228674D01*
X11734097Y-17228674D02*
X11734097Y-17276293D01*
X11734097Y-17276293D02*
X11724573Y-17314389D01*
X11724573Y-17314389D02*
X11715050Y-17333436D01*
X11715050Y-17333436D02*
X11705526Y-17342960D01*
X11705526Y-17342960D02*
X11686478Y-17352484D01*
X11686478Y-17352484D02*
X11667431Y-17352484D01*
X11667431Y-17352484D02*
X11648383Y-17342960D01*
X11648383Y-17342960D02*
X11638859Y-17333436D01*
X11638859Y-17333436D02*
X11629335Y-17314389D01*
X11629335Y-17314389D02*
X11619812Y-17276293D01*
X11619812Y-17276293D02*
X11619812Y-17228674D01*
X11619812Y-17228674D02*
X11629335Y-17190579D01*
X11629335Y-17190579D02*
X11638859Y-17171531D01*
X11638859Y-17171531D02*
X11648383Y-17162008D01*
X11648383Y-17162008D02*
X11667431Y-17152484D01*
X11810288Y-17152484D02*
X11810288Y-17190579D01*
X11886478Y-17152484D02*
X11886478Y-17190579D01*
X12181716Y-17428674D02*
X12172193Y-17419150D01*
X12172193Y-17419150D02*
X12153145Y-17390579D01*
X12153145Y-17390579D02*
X12143621Y-17371531D01*
X12143621Y-17371531D02*
X12134097Y-17342960D01*
X12134097Y-17342960D02*
X12124574Y-17295341D01*
X12124574Y-17295341D02*
X12124574Y-17257246D01*
X12124574Y-17257246D02*
X12134097Y-17209627D01*
X12134097Y-17209627D02*
X12143621Y-17181055D01*
X12143621Y-17181055D02*
X12153145Y-17162008D01*
X12153145Y-17162008D02*
X12172193Y-17133436D01*
X12172193Y-17133436D02*
X12181716Y-17123912D01*
X12362669Y-17352484D02*
X12248383Y-17352484D01*
X12305526Y-17352484D02*
X12305526Y-17152484D01*
X12305526Y-17152484D02*
X12286478Y-17181055D01*
X12286478Y-17181055D02*
X12267431Y-17200103D01*
X12267431Y-17200103D02*
X12248383Y-17209627D01*
X12438859Y-17171531D02*
X12448383Y-17162008D01*
X12448383Y-17162008D02*
X12467431Y-17152484D01*
X12467431Y-17152484D02*
X12515050Y-17152484D01*
X12515050Y-17152484D02*
X12534097Y-17162008D01*
X12534097Y-17162008D02*
X12543621Y-17171531D01*
X12543621Y-17171531D02*
X12553145Y-17190579D01*
X12553145Y-17190579D02*
X12553145Y-17209627D01*
X12553145Y-17209627D02*
X12543621Y-17238198D01*
X12543621Y-17238198D02*
X12429335Y-17352484D01*
X12429335Y-17352484D02*
X12553145Y-17352484D01*
X12791240Y-17352484D02*
X12791240Y-17152484D01*
X12876955Y-17352484D02*
X12876955Y-17247722D01*
X12876955Y-17247722D02*
X12867431Y-17228674D01*
X12867431Y-17228674D02*
X12848383Y-17219150D01*
X12848383Y-17219150D02*
X12819812Y-17219150D01*
X12819812Y-17219150D02*
X12800764Y-17228674D01*
X12800764Y-17228674D02*
X12791240Y-17238198D01*
X13000764Y-17352484D02*
X12981716Y-17342960D01*
X12981716Y-17342960D02*
X12972193Y-17333436D01*
X12972193Y-17333436D02*
X12962669Y-17314389D01*
X12962669Y-17314389D02*
X12962669Y-17257246D01*
X12962669Y-17257246D02*
X12972193Y-17238198D01*
X12972193Y-17238198D02*
X12981716Y-17228674D01*
X12981716Y-17228674D02*
X13000764Y-17219150D01*
X13000764Y-17219150D02*
X13029336Y-17219150D01*
X13029336Y-17219150D02*
X13048383Y-17228674D01*
X13048383Y-17228674D02*
X13057907Y-17238198D01*
X13057907Y-17238198D02*
X13067431Y-17257246D01*
X13067431Y-17257246D02*
X13067431Y-17314389D01*
X13067431Y-17314389D02*
X13057907Y-17333436D01*
X13057907Y-17333436D02*
X13048383Y-17342960D01*
X13048383Y-17342960D02*
X13029336Y-17352484D01*
X13029336Y-17352484D02*
X13000764Y-17352484D01*
X13181716Y-17352484D02*
X13162669Y-17342960D01*
X13162669Y-17342960D02*
X13153145Y-17323912D01*
X13153145Y-17323912D02*
X13153145Y-17152484D01*
X13334097Y-17342960D02*
X13315050Y-17352484D01*
X13315050Y-17352484D02*
X13276955Y-17352484D01*
X13276955Y-17352484D02*
X13257907Y-17342960D01*
X13257907Y-17342960D02*
X13248383Y-17323912D01*
X13248383Y-17323912D02*
X13248383Y-17247722D01*
X13248383Y-17247722D02*
X13257907Y-17228674D01*
X13257907Y-17228674D02*
X13276955Y-17219150D01*
X13276955Y-17219150D02*
X13315050Y-17219150D01*
X13315050Y-17219150D02*
X13334097Y-17228674D01*
X13334097Y-17228674D02*
X13343621Y-17247722D01*
X13343621Y-17247722D02*
X13343621Y-17266770D01*
X13343621Y-17266770D02*
X13248383Y-17285817D01*
X13419812Y-17342960D02*
X13438859Y-17352484D01*
X13438859Y-17352484D02*
X13476955Y-17352484D01*
X13476955Y-17352484D02*
X13496002Y-17342960D01*
X13496002Y-17342960D02*
X13505526Y-17323912D01*
X13505526Y-17323912D02*
X13505526Y-17314389D01*
X13505526Y-17314389D02*
X13496002Y-17295341D01*
X13496002Y-17295341D02*
X13476955Y-17285817D01*
X13476955Y-17285817D02*
X13448383Y-17285817D01*
X13448383Y-17285817D02*
X13429336Y-17276293D01*
X13429336Y-17276293D02*
X13419812Y-17257246D01*
X13419812Y-17257246D02*
X13419812Y-17247722D01*
X13419812Y-17247722D02*
X13429336Y-17228674D01*
X13429336Y-17228674D02*
X13448383Y-17219150D01*
X13448383Y-17219150D02*
X13476955Y-17219150D01*
X13476955Y-17219150D02*
X13496002Y-17228674D01*
X13572193Y-17428674D02*
X13581717Y-17419150D01*
X13581717Y-17419150D02*
X13600764Y-17390579D01*
X13600764Y-17390579D02*
X13610288Y-17371531D01*
X13610288Y-17371531D02*
X13619812Y-17342960D01*
X13619812Y-17342960D02*
X13629336Y-17295341D01*
X13629336Y-17295341D02*
X13629336Y-17257246D01*
X13629336Y-17257246D02*
X13619812Y-17209627D01*
X13619812Y-17209627D02*
X13610288Y-17181055D01*
X13610288Y-17181055D02*
X13600764Y-17162008D01*
X13600764Y-17162008D02*
X13581717Y-17133436D01*
X13581717Y-17133436D02*
X13572193Y-17123912D01*
M02*
