%TF.GenerationSoftware,KiCad,Pcbnew,9.0.6-9.0.6~ubuntu24.04.1*%
%TF.CreationDate,2026-01-15T22:14:19+01:00*%
%TF.ProjectId,tuba-electronics,74756261-2d65-46c6-9563-74726f6e6963,0*%
%TF.SameCoordinates,Original*%
%TF.FileFunction,Drillmap*%
%TF.FilePolarity,Positive*%
%FSLAX45Y45*%
G04 Gerber Fmt 4.5, Leading zero omitted, Abs format (unit mm)*
G04 Created by KiCad (PCBNEW 9.0.6-9.0.6~ubuntu24.04.1) date 2026-01-15 22:14:19*
%MOMM*%
%LPD*%
G01*
G04 APERTURE LIST*
%ADD10C,0.200000*%
%ADD11C,0.120000*%
%ADD12C,0.330200*%
G04 APERTURE END LIST*
D10*
X19451654Y-12162993D02*
X19451654Y-10150000D01*
X20423650Y-7014156D02*
X20423650Y-7014156D01*
X8877500Y-10330000D02*
X9621654Y-10330000D01*
X10591654Y-12162993D02*
G75*
G02*
X10001432Y-12334398I-320000J0D01*
G01*
X20936654Y-9150000D02*
G75*
G02*
X20606654Y-9150000I-165000J0D01*
G01*
X20606654Y-9150000D02*
G75*
G02*
X20936654Y-9150000I165000J0D01*
G01*
X20469698Y-11529463D02*
G75*
G02*
X20041876Y-12334399I-5448028J2379453D01*
G01*
X21087077Y-7092169D02*
G75*
G02*
X20916620Y-7330000I-170457J-57831D01*
G01*
X21165801Y-7970000D02*
X20421654Y-7970000D01*
X20916620Y-10970000D02*
G75*
G02*
X21087077Y-11207831I0J-180000D01*
G01*
X20041876Y-12334398D02*
G75*
G02*
X19451646Y-12162993I-270226J171409D01*
G01*
X19771654Y-8470000D02*
G75*
G02*
X19451650Y-8150000I-4J320000D01*
G01*
X9621654Y-7970000D02*
X8876365Y-7970000D01*
X20291654Y-8100000D02*
G75*
G02*
X20421654Y-7970004I129996J0D01*
G01*
X9126682Y-7330000D02*
X9621654Y-7330000D01*
X9436654Y-9150000D02*
G75*
G02*
X9106654Y-9150000I-165000J0D01*
G01*
X9106654Y-9150000D02*
G75*
G02*
X9436654Y-9150000I165000J0D01*
G01*
X10071654Y-9830000D02*
X10271654Y-9830000D01*
X9751654Y-10150000D02*
G75*
G02*
X10071654Y-9830004I319996J0D01*
G01*
X9126682Y-7330000D02*
G75*
G02*
X8956224Y-7092166I-2J180000D01*
G01*
X20329730Y-11191924D02*
X20423651Y-11285845D01*
X20423650Y-7014156D02*
X20329730Y-7108076D01*
X8956231Y-7092169D02*
G75*
G02*
X21087077Y-7092169I6065423J-2057831D01*
G01*
X10591654Y-6137007D02*
X10591654Y-8150000D01*
X9619656Y-11285845D02*
X9713578Y-11191924D01*
X19451654Y-8150000D02*
X19451654Y-6137007D01*
X10001432Y-12334398D02*
G75*
G02*
X9573610Y-11529463I5020198J3184388D01*
G01*
X9619658Y-7014156D02*
G75*
G02*
X9573609Y-6770536I155562J155566D01*
G01*
X15186654Y-3400000D02*
G75*
G02*
X14856654Y-3400000I-165000J0D01*
G01*
X14856654Y-3400000D02*
G75*
G02*
X15186654Y-3400000I165000J0D01*
G01*
X19771654Y-9830000D02*
X19971654Y-9830000D01*
X19971654Y-9830000D02*
G75*
G02*
X20291650Y-10150000I-4J-320000D01*
G01*
X9573610Y-11529463D02*
G75*
G02*
X9619657Y-11285846I201610J88053D01*
G01*
X10001432Y-5965601D02*
G75*
G02*
X10591654Y-6137007I270223J-171406D01*
G01*
X19252518Y-13215864D02*
G75*
G02*
X18922518Y-13215864I-165000J0D01*
G01*
X18922518Y-13215864D02*
G75*
G02*
X19252518Y-13215864I165000J0D01*
G01*
X21343470Y-10178916D02*
G75*
G02*
X21165808Y-10329998I-177660J28916D01*
G01*
X9751654Y-10200000D02*
X9751654Y-10150000D01*
X21343470Y-8121084D02*
G75*
G02*
X21343470Y-10178916I-6321820J-1028916D01*
G01*
X10271654Y-8470000D02*
X10071654Y-8470000D01*
X20291654Y-10150000D02*
X20291654Y-10200000D01*
X10591654Y-10150000D02*
X10591654Y-12162993D01*
X20421654Y-7330000D02*
X20916620Y-7330000D01*
X9751654Y-8150000D02*
X9751654Y-8100000D01*
X20291654Y-8100000D02*
X20291654Y-8150000D01*
X21165801Y-7970000D02*
G75*
G02*
X21343471Y-8121084I-1J-180010D01*
G01*
X10591654Y-8150000D02*
G75*
G02*
X10271654Y-8470004I-320004J0D01*
G01*
X20291654Y-8150000D02*
G75*
G02*
X19971654Y-8470004I-320004J0D01*
G01*
X9621654Y-10970000D02*
X9126688Y-10970000D01*
X9621654Y-7970000D02*
G75*
G02*
X9751650Y-8100000I-4J-130000D01*
G01*
X9621654Y-10970000D02*
G75*
G02*
X9713576Y-11191922I-4J-130000D01*
G01*
X11120790Y-13215864D02*
G75*
G02*
X10790790Y-13215864I-165000J0D01*
G01*
X10790790Y-13215864D02*
G75*
G02*
X11120790Y-13215864I165000J0D01*
G01*
X19252518Y-5084136D02*
G75*
G02*
X18922518Y-5084136I-165000J0D01*
G01*
X18922518Y-5084136D02*
G75*
G02*
X19252518Y-5084136I165000J0D01*
G01*
X21087077Y-11207831D02*
G75*
G02*
X8956231Y-11207831I-6065423J2057831D01*
G01*
X19451654Y-10150000D02*
G75*
G02*
X19771654Y-9830004I319996J0D01*
G01*
X9713578Y-7108076D02*
G75*
G02*
X9621654Y-7330003I-91928J-91924D01*
G01*
X9573610Y-6770537D02*
G75*
G02*
X10001432Y-5965602I5448130J-2379513D01*
G01*
X20041876Y-5965601D02*
G75*
G02*
X20469698Y-6770537I-5020106J-3184339D01*
G01*
X19451654Y-12162993D02*
X19451654Y-12162993D01*
X20329730Y-11191924D02*
G75*
G02*
X20421654Y-10970003I91920J91924D01*
G01*
X8699838Y-10178916D02*
G75*
G02*
X8699838Y-8121084I6321812J1028916D01*
G01*
X9751654Y-10200000D02*
G75*
G02*
X9621654Y-10330004I-130004J0D01*
G01*
X9713578Y-7108076D02*
X9619658Y-7014156D01*
X19971654Y-8470000D02*
X19771654Y-8470000D01*
X20423651Y-11285845D02*
G75*
G02*
X20469699Y-11529464I-155561J-155565D01*
G01*
X20421654Y-10330000D02*
X21165808Y-10330000D01*
X20421654Y-10330000D02*
G75*
G02*
X20291650Y-10200000I-4J130000D01*
G01*
X19451654Y-6137007D02*
G75*
G02*
X20041869Y-5965606I319996J-3D01*
G01*
X20421654Y-7330000D02*
G75*
G02*
X20329728Y-7108074I-4J130000D01*
G01*
X20916620Y-10970000D02*
X20421654Y-10970000D01*
X8699838Y-8121084D02*
G75*
G02*
X8876365Y-7969994I177672J-28916D01*
G01*
X10271654Y-9830000D02*
G75*
G02*
X10591650Y-10150000I-4J-320000D01*
G01*
X11120790Y-5084136D02*
G75*
G02*
X10790790Y-5084136I-165000J0D01*
G01*
X10790790Y-5084136D02*
G75*
G02*
X11120790Y-5084136I165000J0D01*
G01*
X10071654Y-8470000D02*
G75*
G02*
X9751650Y-8150000I-4J320000D01*
G01*
X15186654Y-14900000D02*
G75*
G02*
X14856654Y-14900000I-165000J0D01*
G01*
X14856654Y-14900000D02*
G75*
G02*
X15186654Y-14900000I165000J0D01*
G01*
X20469698Y-6770537D02*
G75*
G02*
X20423650Y-7014156I-201618J-88053D01*
G01*
X8956231Y-11207831D02*
G75*
G02*
X9126688Y-10969998I170459J57831D01*
G01*
X8877500Y-10330000D02*
G75*
G02*
X8699838Y-10178916I0J180000D01*
G01*
D11*
X14057500Y-11465000D02*
X14177500Y-11585000D01*
X14177500Y-11465000D02*
X14057500Y-11585000D01*
X16387500Y-13350000D02*
X16507500Y-13470000D01*
X16507500Y-13350000D02*
X16387500Y-13470000D01*
X17217500Y-8180000D02*
X17337500Y-8300000D01*
X17337500Y-8180000D02*
X17217500Y-8300000D01*
D12*
X14530600Y-8391700D02*
G75*
G02*
X14200400Y-8391700I-165100J0D01*
G01*
X14200400Y-8391700D02*
G75*
G02*
X14530600Y-8391700I165100J0D01*
G01*
X16054600Y-9915700D02*
G75*
G02*
X15724400Y-9915700I-165100J0D01*
G01*
X15724400Y-9915700D02*
G75*
G02*
X16054600Y-9915700I165100J0D01*
G01*
D10*
X8867430Y-15876484D02*
X8867430Y-15676484D01*
X8867430Y-15676484D02*
X8915049Y-15676484D01*
X8915049Y-15676484D02*
X8943621Y-15686008D01*
X8943621Y-15686008D02*
X8962669Y-15705055D01*
X8962669Y-15705055D02*
X8972192Y-15724103D01*
X8972192Y-15724103D02*
X8981716Y-15762198D01*
X8981716Y-15762198D02*
X8981716Y-15790769D01*
X8981716Y-15790769D02*
X8972192Y-15828865D01*
X8972192Y-15828865D02*
X8962669Y-15847912D01*
X8962669Y-15847912D02*
X8943621Y-15866960D01*
X8943621Y-15866960D02*
X8915049Y-15876484D01*
X8915049Y-15876484D02*
X8867430Y-15876484D01*
X9067430Y-15876484D02*
X9067430Y-15743150D01*
X9067430Y-15781246D02*
X9076954Y-15762198D01*
X9076954Y-15762198D02*
X9086478Y-15752674D01*
X9086478Y-15752674D02*
X9105526Y-15743150D01*
X9105526Y-15743150D02*
X9124573Y-15743150D01*
X9191240Y-15876484D02*
X9191240Y-15743150D01*
X9191240Y-15676484D02*
X9181716Y-15686008D01*
X9181716Y-15686008D02*
X9191240Y-15695531D01*
X9191240Y-15695531D02*
X9200764Y-15686008D01*
X9200764Y-15686008D02*
X9191240Y-15676484D01*
X9191240Y-15676484D02*
X9191240Y-15695531D01*
X9315049Y-15876484D02*
X9296002Y-15866960D01*
X9296002Y-15866960D02*
X9286478Y-15847912D01*
X9286478Y-15847912D02*
X9286478Y-15676484D01*
X9419811Y-15876484D02*
X9400764Y-15866960D01*
X9400764Y-15866960D02*
X9391240Y-15847912D01*
X9391240Y-15847912D02*
X9391240Y-15676484D01*
X9648383Y-15876484D02*
X9648383Y-15676484D01*
X9648383Y-15676484D02*
X9715050Y-15819341D01*
X9715050Y-15819341D02*
X9781716Y-15676484D01*
X9781716Y-15676484D02*
X9781716Y-15876484D01*
X9962669Y-15876484D02*
X9962669Y-15771722D01*
X9962669Y-15771722D02*
X9953145Y-15752674D01*
X9953145Y-15752674D02*
X9934097Y-15743150D01*
X9934097Y-15743150D02*
X9896002Y-15743150D01*
X9896002Y-15743150D02*
X9876954Y-15752674D01*
X9962669Y-15866960D02*
X9943621Y-15876484D01*
X9943621Y-15876484D02*
X9896002Y-15876484D01*
X9896002Y-15876484D02*
X9876954Y-15866960D01*
X9876954Y-15866960D02*
X9867430Y-15847912D01*
X9867430Y-15847912D02*
X9867430Y-15828865D01*
X9867430Y-15828865D02*
X9876954Y-15809817D01*
X9876954Y-15809817D02*
X9896002Y-15800293D01*
X9896002Y-15800293D02*
X9943621Y-15800293D01*
X9943621Y-15800293D02*
X9962669Y-15790769D01*
X10057907Y-15743150D02*
X10057907Y-15943150D01*
X10057907Y-15752674D02*
X10076954Y-15743150D01*
X10076954Y-15743150D02*
X10115050Y-15743150D01*
X10115050Y-15743150D02*
X10134097Y-15752674D01*
X10134097Y-15752674D02*
X10143621Y-15762198D01*
X10143621Y-15762198D02*
X10153145Y-15781246D01*
X10153145Y-15781246D02*
X10153145Y-15838388D01*
X10153145Y-15838388D02*
X10143621Y-15857436D01*
X10143621Y-15857436D02*
X10134097Y-15866960D01*
X10134097Y-15866960D02*
X10115050Y-15876484D01*
X10115050Y-15876484D02*
X10076954Y-15876484D01*
X10076954Y-15876484D02*
X10057907Y-15866960D01*
X10238859Y-15857436D02*
X10248383Y-15866960D01*
X10248383Y-15866960D02*
X10238859Y-15876484D01*
X10238859Y-15876484D02*
X10229335Y-15866960D01*
X10229335Y-15866960D02*
X10238859Y-15857436D01*
X10238859Y-15857436D02*
X10238859Y-15876484D01*
X10238859Y-15752674D02*
X10248383Y-15762198D01*
X10248383Y-15762198D02*
X10238859Y-15771722D01*
X10238859Y-15771722D02*
X10229335Y-15762198D01*
X10229335Y-15762198D02*
X10238859Y-15752674D01*
X10238859Y-15752674D02*
X10238859Y-15771722D01*
D11*
X8486654Y-16145000D02*
X8606654Y-16265000D01*
X8606654Y-16145000D02*
X8486654Y-16265000D01*
D10*
X8972192Y-16296484D02*
X8857907Y-16296484D01*
X8915049Y-16296484D02*
X8915049Y-16096484D01*
X8915049Y-16096484D02*
X8896002Y-16125055D01*
X8896002Y-16125055D02*
X8876954Y-16144103D01*
X8876954Y-16144103D02*
X8857907Y-16153627D01*
X9057907Y-16277436D02*
X9067430Y-16286960D01*
X9067430Y-16286960D02*
X9057907Y-16296484D01*
X9057907Y-16296484D02*
X9048383Y-16286960D01*
X9048383Y-16286960D02*
X9057907Y-16277436D01*
X9057907Y-16277436D02*
X9057907Y-16296484D01*
X9143621Y-16115531D02*
X9153145Y-16106008D01*
X9153145Y-16106008D02*
X9172192Y-16096484D01*
X9172192Y-16096484D02*
X9219811Y-16096484D01*
X9219811Y-16096484D02*
X9238859Y-16106008D01*
X9238859Y-16106008D02*
X9248383Y-16115531D01*
X9248383Y-16115531D02*
X9257907Y-16134579D01*
X9257907Y-16134579D02*
X9257907Y-16153627D01*
X9257907Y-16153627D02*
X9248383Y-16182198D01*
X9248383Y-16182198D02*
X9134097Y-16296484D01*
X9134097Y-16296484D02*
X9257907Y-16296484D01*
X9381716Y-16096484D02*
X9400764Y-16096484D01*
X9400764Y-16096484D02*
X9419811Y-16106008D01*
X9419811Y-16106008D02*
X9429335Y-16115531D01*
X9429335Y-16115531D02*
X9438859Y-16134579D01*
X9438859Y-16134579D02*
X9448383Y-16172674D01*
X9448383Y-16172674D02*
X9448383Y-16220293D01*
X9448383Y-16220293D02*
X9438859Y-16258388D01*
X9438859Y-16258388D02*
X9429335Y-16277436D01*
X9429335Y-16277436D02*
X9419811Y-16286960D01*
X9419811Y-16286960D02*
X9400764Y-16296484D01*
X9400764Y-16296484D02*
X9381716Y-16296484D01*
X9381716Y-16296484D02*
X9362669Y-16286960D01*
X9362669Y-16286960D02*
X9353145Y-16277436D01*
X9353145Y-16277436D02*
X9343621Y-16258388D01*
X9343621Y-16258388D02*
X9334097Y-16220293D01*
X9334097Y-16220293D02*
X9334097Y-16172674D01*
X9334097Y-16172674D02*
X9343621Y-16134579D01*
X9343621Y-16134579D02*
X9353145Y-16115531D01*
X9353145Y-16115531D02*
X9362669Y-16106008D01*
X9362669Y-16106008D02*
X9381716Y-16096484D01*
X9572192Y-16096484D02*
X9591240Y-16096484D01*
X9591240Y-16096484D02*
X9610288Y-16106008D01*
X9610288Y-16106008D02*
X9619811Y-16115531D01*
X9619811Y-16115531D02*
X9629335Y-16134579D01*
X9629335Y-16134579D02*
X9638859Y-16172674D01*
X9638859Y-16172674D02*
X9638859Y-16220293D01*
X9638859Y-16220293D02*
X9629335Y-16258388D01*
X9629335Y-16258388D02*
X9619811Y-16277436D01*
X9619811Y-16277436D02*
X9610288Y-16286960D01*
X9610288Y-16286960D02*
X9591240Y-16296484D01*
X9591240Y-16296484D02*
X9572192Y-16296484D01*
X9572192Y-16296484D02*
X9553145Y-16286960D01*
X9553145Y-16286960D02*
X9543621Y-16277436D01*
X9543621Y-16277436D02*
X9534097Y-16258388D01*
X9534097Y-16258388D02*
X9524573Y-16220293D01*
X9524573Y-16220293D02*
X9524573Y-16172674D01*
X9524573Y-16172674D02*
X9534097Y-16134579D01*
X9534097Y-16134579D02*
X9543621Y-16115531D01*
X9543621Y-16115531D02*
X9553145Y-16106008D01*
X9553145Y-16106008D02*
X9572192Y-16096484D01*
X9724573Y-16296484D02*
X9724573Y-16163150D01*
X9724573Y-16182198D02*
X9734097Y-16172674D01*
X9734097Y-16172674D02*
X9753145Y-16163150D01*
X9753145Y-16163150D02*
X9781716Y-16163150D01*
X9781716Y-16163150D02*
X9800764Y-16172674D01*
X9800764Y-16172674D02*
X9810288Y-16191722D01*
X9810288Y-16191722D02*
X9810288Y-16296484D01*
X9810288Y-16191722D02*
X9819811Y-16172674D01*
X9819811Y-16172674D02*
X9838859Y-16163150D01*
X9838859Y-16163150D02*
X9867430Y-16163150D01*
X9867430Y-16163150D02*
X9886478Y-16172674D01*
X9886478Y-16172674D02*
X9896002Y-16191722D01*
X9896002Y-16191722D02*
X9896002Y-16296484D01*
X9991240Y-16296484D02*
X9991240Y-16163150D01*
X9991240Y-16182198D02*
X10000764Y-16172674D01*
X10000764Y-16172674D02*
X10019811Y-16163150D01*
X10019811Y-16163150D02*
X10048383Y-16163150D01*
X10048383Y-16163150D02*
X10067431Y-16172674D01*
X10067431Y-16172674D02*
X10076954Y-16191722D01*
X10076954Y-16191722D02*
X10076954Y-16296484D01*
X10076954Y-16191722D02*
X10086478Y-16172674D01*
X10086478Y-16172674D02*
X10105526Y-16163150D01*
X10105526Y-16163150D02*
X10134097Y-16163150D01*
X10134097Y-16163150D02*
X10153145Y-16172674D01*
X10153145Y-16172674D02*
X10162669Y-16191722D01*
X10162669Y-16191722D02*
X10162669Y-16296484D01*
X10553145Y-16086960D02*
X10381716Y-16344103D01*
X10810288Y-16096484D02*
X10829335Y-16096484D01*
X10829335Y-16096484D02*
X10848383Y-16106008D01*
X10848383Y-16106008D02*
X10857907Y-16115531D01*
X10857907Y-16115531D02*
X10867431Y-16134579D01*
X10867431Y-16134579D02*
X10876954Y-16172674D01*
X10876954Y-16172674D02*
X10876954Y-16220293D01*
X10876954Y-16220293D02*
X10867431Y-16258388D01*
X10867431Y-16258388D02*
X10857907Y-16277436D01*
X10857907Y-16277436D02*
X10848383Y-16286960D01*
X10848383Y-16286960D02*
X10829335Y-16296484D01*
X10829335Y-16296484D02*
X10810288Y-16296484D01*
X10810288Y-16296484D02*
X10791240Y-16286960D01*
X10791240Y-16286960D02*
X10781716Y-16277436D01*
X10781716Y-16277436D02*
X10772193Y-16258388D01*
X10772193Y-16258388D02*
X10762669Y-16220293D01*
X10762669Y-16220293D02*
X10762669Y-16172674D01*
X10762669Y-16172674D02*
X10772193Y-16134579D01*
X10772193Y-16134579D02*
X10781716Y-16115531D01*
X10781716Y-16115531D02*
X10791240Y-16106008D01*
X10791240Y-16106008D02*
X10810288Y-16096484D01*
X10962669Y-16277436D02*
X10972193Y-16286960D01*
X10972193Y-16286960D02*
X10962669Y-16296484D01*
X10962669Y-16296484D02*
X10953145Y-16286960D01*
X10953145Y-16286960D02*
X10962669Y-16277436D01*
X10962669Y-16277436D02*
X10962669Y-16296484D01*
X11096002Y-16096484D02*
X11115050Y-16096484D01*
X11115050Y-16096484D02*
X11134097Y-16106008D01*
X11134097Y-16106008D02*
X11143621Y-16115531D01*
X11143621Y-16115531D02*
X11153145Y-16134579D01*
X11153145Y-16134579D02*
X11162669Y-16172674D01*
X11162669Y-16172674D02*
X11162669Y-16220293D01*
X11162669Y-16220293D02*
X11153145Y-16258388D01*
X11153145Y-16258388D02*
X11143621Y-16277436D01*
X11143621Y-16277436D02*
X11134097Y-16286960D01*
X11134097Y-16286960D02*
X11115050Y-16296484D01*
X11115050Y-16296484D02*
X11096002Y-16296484D01*
X11096002Y-16296484D02*
X11076954Y-16286960D01*
X11076954Y-16286960D02*
X11067431Y-16277436D01*
X11067431Y-16277436D02*
X11057907Y-16258388D01*
X11057907Y-16258388D02*
X11048383Y-16220293D01*
X11048383Y-16220293D02*
X11048383Y-16172674D01*
X11048383Y-16172674D02*
X11057907Y-16134579D01*
X11057907Y-16134579D02*
X11067431Y-16115531D01*
X11067431Y-16115531D02*
X11076954Y-16106008D01*
X11076954Y-16106008D02*
X11096002Y-16096484D01*
X11334097Y-16163150D02*
X11334097Y-16296484D01*
X11286478Y-16086960D02*
X11238859Y-16229817D01*
X11238859Y-16229817D02*
X11362669Y-16229817D01*
X11419812Y-16096484D02*
X11553145Y-16096484D01*
X11553145Y-16096484D02*
X11467431Y-16296484D01*
X11619812Y-16115531D02*
X11629335Y-16106008D01*
X11629335Y-16106008D02*
X11648383Y-16096484D01*
X11648383Y-16096484D02*
X11696002Y-16096484D01*
X11696002Y-16096484D02*
X11715050Y-16106008D01*
X11715050Y-16106008D02*
X11724573Y-16115531D01*
X11724573Y-16115531D02*
X11734097Y-16134579D01*
X11734097Y-16134579D02*
X11734097Y-16153627D01*
X11734097Y-16153627D02*
X11724573Y-16182198D01*
X11724573Y-16182198D02*
X11610288Y-16296484D01*
X11610288Y-16296484D02*
X11734097Y-16296484D01*
X11810288Y-16096484D02*
X11810288Y-16134579D01*
X11886478Y-16096484D02*
X11886478Y-16134579D01*
X12181716Y-16372674D02*
X12172193Y-16363150D01*
X12172193Y-16363150D02*
X12153145Y-16334579D01*
X12153145Y-16334579D02*
X12143621Y-16315531D01*
X12143621Y-16315531D02*
X12134097Y-16286960D01*
X12134097Y-16286960D02*
X12124574Y-16239341D01*
X12124574Y-16239341D02*
X12124574Y-16201246D01*
X12124574Y-16201246D02*
X12134097Y-16153627D01*
X12134097Y-16153627D02*
X12143621Y-16125055D01*
X12143621Y-16125055D02*
X12153145Y-16106008D01*
X12153145Y-16106008D02*
X12172193Y-16077436D01*
X12172193Y-16077436D02*
X12181716Y-16067912D01*
X12238859Y-16096484D02*
X12362669Y-16096484D01*
X12362669Y-16096484D02*
X12296002Y-16172674D01*
X12296002Y-16172674D02*
X12324574Y-16172674D01*
X12324574Y-16172674D02*
X12343621Y-16182198D01*
X12343621Y-16182198D02*
X12353145Y-16191722D01*
X12353145Y-16191722D02*
X12362669Y-16210769D01*
X12362669Y-16210769D02*
X12362669Y-16258388D01*
X12362669Y-16258388D02*
X12353145Y-16277436D01*
X12353145Y-16277436D02*
X12343621Y-16286960D01*
X12343621Y-16286960D02*
X12324574Y-16296484D01*
X12324574Y-16296484D02*
X12267431Y-16296484D01*
X12267431Y-16296484D02*
X12248383Y-16286960D01*
X12248383Y-16286960D02*
X12238859Y-16277436D01*
X12600764Y-16296484D02*
X12600764Y-16096484D01*
X12686478Y-16296484D02*
X12686478Y-16191722D01*
X12686478Y-16191722D02*
X12676955Y-16172674D01*
X12676955Y-16172674D02*
X12657907Y-16163150D01*
X12657907Y-16163150D02*
X12629335Y-16163150D01*
X12629335Y-16163150D02*
X12610288Y-16172674D01*
X12610288Y-16172674D02*
X12600764Y-16182198D01*
X12810288Y-16296484D02*
X12791240Y-16286960D01*
X12791240Y-16286960D02*
X12781716Y-16277436D01*
X12781716Y-16277436D02*
X12772193Y-16258388D01*
X12772193Y-16258388D02*
X12772193Y-16201246D01*
X12772193Y-16201246D02*
X12781716Y-16182198D01*
X12781716Y-16182198D02*
X12791240Y-16172674D01*
X12791240Y-16172674D02*
X12810288Y-16163150D01*
X12810288Y-16163150D02*
X12838859Y-16163150D01*
X12838859Y-16163150D02*
X12857907Y-16172674D01*
X12857907Y-16172674D02*
X12867431Y-16182198D01*
X12867431Y-16182198D02*
X12876955Y-16201246D01*
X12876955Y-16201246D02*
X12876955Y-16258388D01*
X12876955Y-16258388D02*
X12867431Y-16277436D01*
X12867431Y-16277436D02*
X12857907Y-16286960D01*
X12857907Y-16286960D02*
X12838859Y-16296484D01*
X12838859Y-16296484D02*
X12810288Y-16296484D01*
X12991240Y-16296484D02*
X12972193Y-16286960D01*
X12972193Y-16286960D02*
X12962669Y-16267912D01*
X12962669Y-16267912D02*
X12962669Y-16096484D01*
X13143621Y-16286960D02*
X13124574Y-16296484D01*
X13124574Y-16296484D02*
X13086478Y-16296484D01*
X13086478Y-16296484D02*
X13067431Y-16286960D01*
X13067431Y-16286960D02*
X13057907Y-16267912D01*
X13057907Y-16267912D02*
X13057907Y-16191722D01*
X13057907Y-16191722D02*
X13067431Y-16172674D01*
X13067431Y-16172674D02*
X13086478Y-16163150D01*
X13086478Y-16163150D02*
X13124574Y-16163150D01*
X13124574Y-16163150D02*
X13143621Y-16172674D01*
X13143621Y-16172674D02*
X13153145Y-16191722D01*
X13153145Y-16191722D02*
X13153145Y-16210769D01*
X13153145Y-16210769D02*
X13057907Y-16229817D01*
X13229336Y-16286960D02*
X13248383Y-16296484D01*
X13248383Y-16296484D02*
X13286478Y-16296484D01*
X13286478Y-16296484D02*
X13305526Y-16286960D01*
X13305526Y-16286960D02*
X13315050Y-16267912D01*
X13315050Y-16267912D02*
X13315050Y-16258388D01*
X13315050Y-16258388D02*
X13305526Y-16239341D01*
X13305526Y-16239341D02*
X13286478Y-16229817D01*
X13286478Y-16229817D02*
X13257907Y-16229817D01*
X13257907Y-16229817D02*
X13238859Y-16220293D01*
X13238859Y-16220293D02*
X13229336Y-16201246D01*
X13229336Y-16201246D02*
X13229336Y-16191722D01*
X13229336Y-16191722D02*
X13238859Y-16172674D01*
X13238859Y-16172674D02*
X13257907Y-16163150D01*
X13257907Y-16163150D02*
X13286478Y-16163150D01*
X13286478Y-16163150D02*
X13305526Y-16172674D01*
X13381717Y-16372674D02*
X13391240Y-16363150D01*
X13391240Y-16363150D02*
X13410288Y-16334579D01*
X13410288Y-16334579D02*
X13419812Y-16315531D01*
X13419812Y-16315531D02*
X13429336Y-16286960D01*
X13429336Y-16286960D02*
X13438859Y-16239341D01*
X13438859Y-16239341D02*
X13438859Y-16201246D01*
X13438859Y-16201246D02*
X13429336Y-16153627D01*
X13429336Y-16153627D02*
X13419812Y-16125055D01*
X13419812Y-16125055D02*
X13410288Y-16106008D01*
X13410288Y-16106008D02*
X13391240Y-16077436D01*
X13391240Y-16077436D02*
X13381717Y-16067912D01*
X13743621Y-16372674D02*
X13734097Y-16363150D01*
X13734097Y-16363150D02*
X13715050Y-16334579D01*
X13715050Y-16334579D02*
X13705526Y-16315531D01*
X13705526Y-16315531D02*
X13696002Y-16286960D01*
X13696002Y-16286960D02*
X13686478Y-16239341D01*
X13686478Y-16239341D02*
X13686478Y-16201246D01*
X13686478Y-16201246D02*
X13696002Y-16153627D01*
X13696002Y-16153627D02*
X13705526Y-16125055D01*
X13705526Y-16125055D02*
X13715050Y-16106008D01*
X13715050Y-16106008D02*
X13734097Y-16077436D01*
X13734097Y-16077436D02*
X13743621Y-16067912D01*
X13819812Y-16163150D02*
X13819812Y-16296484D01*
X13819812Y-16182198D02*
X13829336Y-16172674D01*
X13829336Y-16172674D02*
X13848383Y-16163150D01*
X13848383Y-16163150D02*
X13876955Y-16163150D01*
X13876955Y-16163150D02*
X13896002Y-16172674D01*
X13896002Y-16172674D02*
X13905526Y-16191722D01*
X13905526Y-16191722D02*
X13905526Y-16296484D01*
X14029336Y-16296484D02*
X14010288Y-16286960D01*
X14010288Y-16286960D02*
X14000764Y-16277436D01*
X14000764Y-16277436D02*
X13991240Y-16258388D01*
X13991240Y-16258388D02*
X13991240Y-16201246D01*
X13991240Y-16201246D02*
X14000764Y-16182198D01*
X14000764Y-16182198D02*
X14010288Y-16172674D01*
X14010288Y-16172674D02*
X14029336Y-16163150D01*
X14029336Y-16163150D02*
X14057907Y-16163150D01*
X14057907Y-16163150D02*
X14076955Y-16172674D01*
X14076955Y-16172674D02*
X14086478Y-16182198D01*
X14086478Y-16182198D02*
X14096002Y-16201246D01*
X14096002Y-16201246D02*
X14096002Y-16258388D01*
X14096002Y-16258388D02*
X14086478Y-16277436D01*
X14086478Y-16277436D02*
X14076955Y-16286960D01*
X14076955Y-16286960D02*
X14057907Y-16296484D01*
X14057907Y-16296484D02*
X14029336Y-16296484D01*
X14153145Y-16163150D02*
X14229336Y-16163150D01*
X14181717Y-16096484D02*
X14181717Y-16267912D01*
X14181717Y-16267912D02*
X14191240Y-16286960D01*
X14191240Y-16286960D02*
X14210288Y-16296484D01*
X14210288Y-16296484D02*
X14229336Y-16296484D01*
X14448383Y-16163150D02*
X14448383Y-16363150D01*
X14448383Y-16172674D02*
X14467431Y-16163150D01*
X14467431Y-16163150D02*
X14505526Y-16163150D01*
X14505526Y-16163150D02*
X14524574Y-16172674D01*
X14524574Y-16172674D02*
X14534098Y-16182198D01*
X14534098Y-16182198D02*
X14543621Y-16201246D01*
X14543621Y-16201246D02*
X14543621Y-16258388D01*
X14543621Y-16258388D02*
X14534098Y-16277436D01*
X14534098Y-16277436D02*
X14524574Y-16286960D01*
X14524574Y-16286960D02*
X14505526Y-16296484D01*
X14505526Y-16296484D02*
X14467431Y-16296484D01*
X14467431Y-16296484D02*
X14448383Y-16286960D01*
X14657907Y-16296484D02*
X14638859Y-16286960D01*
X14638859Y-16286960D02*
X14629336Y-16267912D01*
X14629336Y-16267912D02*
X14629336Y-16096484D01*
X14819812Y-16296484D02*
X14819812Y-16191722D01*
X14819812Y-16191722D02*
X14810288Y-16172674D01*
X14810288Y-16172674D02*
X14791240Y-16163150D01*
X14791240Y-16163150D02*
X14753145Y-16163150D01*
X14753145Y-16163150D02*
X14734098Y-16172674D01*
X14819812Y-16286960D02*
X14800764Y-16296484D01*
X14800764Y-16296484D02*
X14753145Y-16296484D01*
X14753145Y-16296484D02*
X14734098Y-16286960D01*
X14734098Y-16286960D02*
X14724574Y-16267912D01*
X14724574Y-16267912D02*
X14724574Y-16248865D01*
X14724574Y-16248865D02*
X14734098Y-16229817D01*
X14734098Y-16229817D02*
X14753145Y-16220293D01*
X14753145Y-16220293D02*
X14800764Y-16220293D01*
X14800764Y-16220293D02*
X14819812Y-16210769D01*
X14886479Y-16163150D02*
X14962669Y-16163150D01*
X14915050Y-16096484D02*
X14915050Y-16267912D01*
X14915050Y-16267912D02*
X14924574Y-16286960D01*
X14924574Y-16286960D02*
X14943621Y-16296484D01*
X14943621Y-16296484D02*
X14962669Y-16296484D01*
X15105526Y-16286960D02*
X15086479Y-16296484D01*
X15086479Y-16296484D02*
X15048383Y-16296484D01*
X15048383Y-16296484D02*
X15029336Y-16286960D01*
X15029336Y-16286960D02*
X15019812Y-16267912D01*
X15019812Y-16267912D02*
X15019812Y-16191722D01*
X15019812Y-16191722D02*
X15029336Y-16172674D01*
X15029336Y-16172674D02*
X15048383Y-16163150D01*
X15048383Y-16163150D02*
X15086479Y-16163150D01*
X15086479Y-16163150D02*
X15105526Y-16172674D01*
X15105526Y-16172674D02*
X15115050Y-16191722D01*
X15115050Y-16191722D02*
X15115050Y-16210769D01*
X15115050Y-16210769D02*
X15019812Y-16229817D01*
X15286479Y-16296484D02*
X15286479Y-16096484D01*
X15286479Y-16286960D02*
X15267431Y-16296484D01*
X15267431Y-16296484D02*
X15229336Y-16296484D01*
X15229336Y-16296484D02*
X15210288Y-16286960D01*
X15210288Y-16286960D02*
X15200764Y-16277436D01*
X15200764Y-16277436D02*
X15191240Y-16258388D01*
X15191240Y-16258388D02*
X15191240Y-16201246D01*
X15191240Y-16201246D02*
X15200764Y-16182198D01*
X15200764Y-16182198D02*
X15210288Y-16172674D01*
X15210288Y-16172674D02*
X15229336Y-16163150D01*
X15229336Y-16163150D02*
X15267431Y-16163150D01*
X15267431Y-16163150D02*
X15286479Y-16172674D01*
X15362669Y-16372674D02*
X15372193Y-16363150D01*
X15372193Y-16363150D02*
X15391240Y-16334579D01*
X15391240Y-16334579D02*
X15400764Y-16315531D01*
X15400764Y-16315531D02*
X15410288Y-16286960D01*
X15410288Y-16286960D02*
X15419812Y-16239341D01*
X15419812Y-16239341D02*
X15419812Y-16201246D01*
X15419812Y-16201246D02*
X15410288Y-16153627D01*
X15410288Y-16153627D02*
X15400764Y-16125055D01*
X15400764Y-16125055D02*
X15391240Y-16106008D01*
X15391240Y-16106008D02*
X15372193Y-16077436D01*
X15372193Y-16077436D02*
X15362669Y-16067912D01*
X8606654Y-16469000D02*
G75*
G02*
X8406654Y-16469000I-100000J0D01*
G01*
X8406654Y-16469000D02*
G75*
G02*
X8606654Y-16469000I100000J0D01*
G01*
X8848383Y-16360484D02*
X8972192Y-16360484D01*
X8972192Y-16360484D02*
X8905526Y-16436674D01*
X8905526Y-16436674D02*
X8934097Y-16436674D01*
X8934097Y-16436674D02*
X8953145Y-16446198D01*
X8953145Y-16446198D02*
X8962669Y-16455722D01*
X8962669Y-16455722D02*
X8972192Y-16474769D01*
X8972192Y-16474769D02*
X8972192Y-16522388D01*
X8972192Y-16522388D02*
X8962669Y-16541436D01*
X8962669Y-16541436D02*
X8953145Y-16550960D01*
X8953145Y-16550960D02*
X8934097Y-16560484D01*
X8934097Y-16560484D02*
X8876954Y-16560484D01*
X8876954Y-16560484D02*
X8857907Y-16550960D01*
X8857907Y-16550960D02*
X8848383Y-16541436D01*
X9057907Y-16541436D02*
X9067430Y-16550960D01*
X9067430Y-16550960D02*
X9057907Y-16560484D01*
X9057907Y-16560484D02*
X9048383Y-16550960D01*
X9048383Y-16550960D02*
X9057907Y-16541436D01*
X9057907Y-16541436D02*
X9057907Y-16560484D01*
X9134097Y-16360484D02*
X9257907Y-16360484D01*
X9257907Y-16360484D02*
X9191240Y-16436674D01*
X9191240Y-16436674D02*
X9219811Y-16436674D01*
X9219811Y-16436674D02*
X9238859Y-16446198D01*
X9238859Y-16446198D02*
X9248383Y-16455722D01*
X9248383Y-16455722D02*
X9257907Y-16474769D01*
X9257907Y-16474769D02*
X9257907Y-16522388D01*
X9257907Y-16522388D02*
X9248383Y-16541436D01*
X9248383Y-16541436D02*
X9238859Y-16550960D01*
X9238859Y-16550960D02*
X9219811Y-16560484D01*
X9219811Y-16560484D02*
X9162669Y-16560484D01*
X9162669Y-16560484D02*
X9143621Y-16550960D01*
X9143621Y-16550960D02*
X9134097Y-16541436D01*
X9381716Y-16360484D02*
X9400764Y-16360484D01*
X9400764Y-16360484D02*
X9419811Y-16370008D01*
X9419811Y-16370008D02*
X9429335Y-16379531D01*
X9429335Y-16379531D02*
X9438859Y-16398579D01*
X9438859Y-16398579D02*
X9448383Y-16436674D01*
X9448383Y-16436674D02*
X9448383Y-16484293D01*
X9448383Y-16484293D02*
X9438859Y-16522388D01*
X9438859Y-16522388D02*
X9429335Y-16541436D01*
X9429335Y-16541436D02*
X9419811Y-16550960D01*
X9419811Y-16550960D02*
X9400764Y-16560484D01*
X9400764Y-16560484D02*
X9381716Y-16560484D01*
X9381716Y-16560484D02*
X9362669Y-16550960D01*
X9362669Y-16550960D02*
X9353145Y-16541436D01*
X9353145Y-16541436D02*
X9343621Y-16522388D01*
X9343621Y-16522388D02*
X9334097Y-16484293D01*
X9334097Y-16484293D02*
X9334097Y-16436674D01*
X9334097Y-16436674D02*
X9343621Y-16398579D01*
X9343621Y-16398579D02*
X9353145Y-16379531D01*
X9353145Y-16379531D02*
X9362669Y-16370008D01*
X9362669Y-16370008D02*
X9381716Y-16360484D01*
X9524573Y-16379531D02*
X9534097Y-16370008D01*
X9534097Y-16370008D02*
X9553145Y-16360484D01*
X9553145Y-16360484D02*
X9600764Y-16360484D01*
X9600764Y-16360484D02*
X9619811Y-16370008D01*
X9619811Y-16370008D02*
X9629335Y-16379531D01*
X9629335Y-16379531D02*
X9638859Y-16398579D01*
X9638859Y-16398579D02*
X9638859Y-16417627D01*
X9638859Y-16417627D02*
X9629335Y-16446198D01*
X9629335Y-16446198D02*
X9515050Y-16560484D01*
X9515050Y-16560484D02*
X9638859Y-16560484D01*
X9724573Y-16560484D02*
X9724573Y-16427150D01*
X9724573Y-16446198D02*
X9734097Y-16436674D01*
X9734097Y-16436674D02*
X9753145Y-16427150D01*
X9753145Y-16427150D02*
X9781716Y-16427150D01*
X9781716Y-16427150D02*
X9800764Y-16436674D01*
X9800764Y-16436674D02*
X9810288Y-16455722D01*
X9810288Y-16455722D02*
X9810288Y-16560484D01*
X9810288Y-16455722D02*
X9819811Y-16436674D01*
X9819811Y-16436674D02*
X9838859Y-16427150D01*
X9838859Y-16427150D02*
X9867430Y-16427150D01*
X9867430Y-16427150D02*
X9886478Y-16436674D01*
X9886478Y-16436674D02*
X9896002Y-16455722D01*
X9896002Y-16455722D02*
X9896002Y-16560484D01*
X9991240Y-16560484D02*
X9991240Y-16427150D01*
X9991240Y-16446198D02*
X10000764Y-16436674D01*
X10000764Y-16436674D02*
X10019811Y-16427150D01*
X10019811Y-16427150D02*
X10048383Y-16427150D01*
X10048383Y-16427150D02*
X10067431Y-16436674D01*
X10067431Y-16436674D02*
X10076954Y-16455722D01*
X10076954Y-16455722D02*
X10076954Y-16560484D01*
X10076954Y-16455722D02*
X10086478Y-16436674D01*
X10086478Y-16436674D02*
X10105526Y-16427150D01*
X10105526Y-16427150D02*
X10134097Y-16427150D01*
X10134097Y-16427150D02*
X10153145Y-16436674D01*
X10153145Y-16436674D02*
X10162669Y-16455722D01*
X10162669Y-16455722D02*
X10162669Y-16560484D01*
X10553145Y-16350960D02*
X10381716Y-16608103D01*
X10810288Y-16360484D02*
X10829335Y-16360484D01*
X10829335Y-16360484D02*
X10848383Y-16370008D01*
X10848383Y-16370008D02*
X10857907Y-16379531D01*
X10857907Y-16379531D02*
X10867431Y-16398579D01*
X10867431Y-16398579D02*
X10876954Y-16436674D01*
X10876954Y-16436674D02*
X10876954Y-16484293D01*
X10876954Y-16484293D02*
X10867431Y-16522388D01*
X10867431Y-16522388D02*
X10857907Y-16541436D01*
X10857907Y-16541436D02*
X10848383Y-16550960D01*
X10848383Y-16550960D02*
X10829335Y-16560484D01*
X10829335Y-16560484D02*
X10810288Y-16560484D01*
X10810288Y-16560484D02*
X10791240Y-16550960D01*
X10791240Y-16550960D02*
X10781716Y-16541436D01*
X10781716Y-16541436D02*
X10772193Y-16522388D01*
X10772193Y-16522388D02*
X10762669Y-16484293D01*
X10762669Y-16484293D02*
X10762669Y-16436674D01*
X10762669Y-16436674D02*
X10772193Y-16398579D01*
X10772193Y-16398579D02*
X10781716Y-16379531D01*
X10781716Y-16379531D02*
X10791240Y-16370008D01*
X10791240Y-16370008D02*
X10810288Y-16360484D01*
X10962669Y-16541436D02*
X10972193Y-16550960D01*
X10972193Y-16550960D02*
X10962669Y-16560484D01*
X10962669Y-16560484D02*
X10953145Y-16550960D01*
X10953145Y-16550960D02*
X10962669Y-16541436D01*
X10962669Y-16541436D02*
X10962669Y-16560484D01*
X11162669Y-16560484D02*
X11048383Y-16560484D01*
X11105526Y-16560484D02*
X11105526Y-16360484D01*
X11105526Y-16360484D02*
X11086478Y-16389055D01*
X11086478Y-16389055D02*
X11067431Y-16408103D01*
X11067431Y-16408103D02*
X11048383Y-16417627D01*
X11229335Y-16360484D02*
X11353145Y-16360484D01*
X11353145Y-16360484D02*
X11286478Y-16436674D01*
X11286478Y-16436674D02*
X11315050Y-16436674D01*
X11315050Y-16436674D02*
X11334097Y-16446198D01*
X11334097Y-16446198D02*
X11343621Y-16455722D01*
X11343621Y-16455722D02*
X11353145Y-16474769D01*
X11353145Y-16474769D02*
X11353145Y-16522388D01*
X11353145Y-16522388D02*
X11343621Y-16541436D01*
X11343621Y-16541436D02*
X11334097Y-16550960D01*
X11334097Y-16550960D02*
X11315050Y-16560484D01*
X11315050Y-16560484D02*
X11257907Y-16560484D01*
X11257907Y-16560484D02*
X11238859Y-16550960D01*
X11238859Y-16550960D02*
X11229335Y-16541436D01*
X11476954Y-16360484D02*
X11496002Y-16360484D01*
X11496002Y-16360484D02*
X11515050Y-16370008D01*
X11515050Y-16370008D02*
X11524573Y-16379531D01*
X11524573Y-16379531D02*
X11534097Y-16398579D01*
X11534097Y-16398579D02*
X11543621Y-16436674D01*
X11543621Y-16436674D02*
X11543621Y-16484293D01*
X11543621Y-16484293D02*
X11534097Y-16522388D01*
X11534097Y-16522388D02*
X11524573Y-16541436D01*
X11524573Y-16541436D02*
X11515050Y-16550960D01*
X11515050Y-16550960D02*
X11496002Y-16560484D01*
X11496002Y-16560484D02*
X11476954Y-16560484D01*
X11476954Y-16560484D02*
X11457907Y-16550960D01*
X11457907Y-16550960D02*
X11448383Y-16541436D01*
X11448383Y-16541436D02*
X11438859Y-16522388D01*
X11438859Y-16522388D02*
X11429335Y-16484293D01*
X11429335Y-16484293D02*
X11429335Y-16436674D01*
X11429335Y-16436674D02*
X11438859Y-16398579D01*
X11438859Y-16398579D02*
X11448383Y-16379531D01*
X11448383Y-16379531D02*
X11457907Y-16370008D01*
X11457907Y-16370008D02*
X11476954Y-16360484D01*
X11667431Y-16360484D02*
X11686478Y-16360484D01*
X11686478Y-16360484D02*
X11705526Y-16370008D01*
X11705526Y-16370008D02*
X11715050Y-16379531D01*
X11715050Y-16379531D02*
X11724573Y-16398579D01*
X11724573Y-16398579D02*
X11734097Y-16436674D01*
X11734097Y-16436674D02*
X11734097Y-16484293D01*
X11734097Y-16484293D02*
X11724573Y-16522388D01*
X11724573Y-16522388D02*
X11715050Y-16541436D01*
X11715050Y-16541436D02*
X11705526Y-16550960D01*
X11705526Y-16550960D02*
X11686478Y-16560484D01*
X11686478Y-16560484D02*
X11667431Y-16560484D01*
X11667431Y-16560484D02*
X11648383Y-16550960D01*
X11648383Y-16550960D02*
X11638859Y-16541436D01*
X11638859Y-16541436D02*
X11629335Y-16522388D01*
X11629335Y-16522388D02*
X11619812Y-16484293D01*
X11619812Y-16484293D02*
X11619812Y-16436674D01*
X11619812Y-16436674D02*
X11629335Y-16398579D01*
X11629335Y-16398579D02*
X11638859Y-16379531D01*
X11638859Y-16379531D02*
X11648383Y-16370008D01*
X11648383Y-16370008D02*
X11667431Y-16360484D01*
X11810288Y-16360484D02*
X11810288Y-16398579D01*
X11886478Y-16360484D02*
X11886478Y-16398579D01*
X12181716Y-16636674D02*
X12172193Y-16627150D01*
X12172193Y-16627150D02*
X12153145Y-16598579D01*
X12153145Y-16598579D02*
X12143621Y-16579531D01*
X12143621Y-16579531D02*
X12134097Y-16550960D01*
X12134097Y-16550960D02*
X12124574Y-16503341D01*
X12124574Y-16503341D02*
X12124574Y-16465246D01*
X12124574Y-16465246D02*
X12134097Y-16417627D01*
X12134097Y-16417627D02*
X12143621Y-16389055D01*
X12143621Y-16389055D02*
X12153145Y-16370008D01*
X12153145Y-16370008D02*
X12172193Y-16341436D01*
X12172193Y-16341436D02*
X12181716Y-16331912D01*
X12248383Y-16379531D02*
X12257907Y-16370008D01*
X12257907Y-16370008D02*
X12276954Y-16360484D01*
X12276954Y-16360484D02*
X12324574Y-16360484D01*
X12324574Y-16360484D02*
X12343621Y-16370008D01*
X12343621Y-16370008D02*
X12353145Y-16379531D01*
X12353145Y-16379531D02*
X12362669Y-16398579D01*
X12362669Y-16398579D02*
X12362669Y-16417627D01*
X12362669Y-16417627D02*
X12353145Y-16446198D01*
X12353145Y-16446198D02*
X12238859Y-16560484D01*
X12238859Y-16560484D02*
X12362669Y-16560484D01*
X12600764Y-16560484D02*
X12600764Y-16360484D01*
X12686478Y-16560484D02*
X12686478Y-16455722D01*
X12686478Y-16455722D02*
X12676955Y-16436674D01*
X12676955Y-16436674D02*
X12657907Y-16427150D01*
X12657907Y-16427150D02*
X12629335Y-16427150D01*
X12629335Y-16427150D02*
X12610288Y-16436674D01*
X12610288Y-16436674D02*
X12600764Y-16446198D01*
X12810288Y-16560484D02*
X12791240Y-16550960D01*
X12791240Y-16550960D02*
X12781716Y-16541436D01*
X12781716Y-16541436D02*
X12772193Y-16522388D01*
X12772193Y-16522388D02*
X12772193Y-16465246D01*
X12772193Y-16465246D02*
X12781716Y-16446198D01*
X12781716Y-16446198D02*
X12791240Y-16436674D01*
X12791240Y-16436674D02*
X12810288Y-16427150D01*
X12810288Y-16427150D02*
X12838859Y-16427150D01*
X12838859Y-16427150D02*
X12857907Y-16436674D01*
X12857907Y-16436674D02*
X12867431Y-16446198D01*
X12867431Y-16446198D02*
X12876955Y-16465246D01*
X12876955Y-16465246D02*
X12876955Y-16522388D01*
X12876955Y-16522388D02*
X12867431Y-16541436D01*
X12867431Y-16541436D02*
X12857907Y-16550960D01*
X12857907Y-16550960D02*
X12838859Y-16560484D01*
X12838859Y-16560484D02*
X12810288Y-16560484D01*
X12991240Y-16560484D02*
X12972193Y-16550960D01*
X12972193Y-16550960D02*
X12962669Y-16531912D01*
X12962669Y-16531912D02*
X12962669Y-16360484D01*
X13143621Y-16550960D02*
X13124574Y-16560484D01*
X13124574Y-16560484D02*
X13086478Y-16560484D01*
X13086478Y-16560484D02*
X13067431Y-16550960D01*
X13067431Y-16550960D02*
X13057907Y-16531912D01*
X13057907Y-16531912D02*
X13057907Y-16455722D01*
X13057907Y-16455722D02*
X13067431Y-16436674D01*
X13067431Y-16436674D02*
X13086478Y-16427150D01*
X13086478Y-16427150D02*
X13124574Y-16427150D01*
X13124574Y-16427150D02*
X13143621Y-16436674D01*
X13143621Y-16436674D02*
X13153145Y-16455722D01*
X13153145Y-16455722D02*
X13153145Y-16474769D01*
X13153145Y-16474769D02*
X13057907Y-16493817D01*
X13229336Y-16550960D02*
X13248383Y-16560484D01*
X13248383Y-16560484D02*
X13286478Y-16560484D01*
X13286478Y-16560484D02*
X13305526Y-16550960D01*
X13305526Y-16550960D02*
X13315050Y-16531912D01*
X13315050Y-16531912D02*
X13315050Y-16522388D01*
X13315050Y-16522388D02*
X13305526Y-16503341D01*
X13305526Y-16503341D02*
X13286478Y-16493817D01*
X13286478Y-16493817D02*
X13257907Y-16493817D01*
X13257907Y-16493817D02*
X13238859Y-16484293D01*
X13238859Y-16484293D02*
X13229336Y-16465246D01*
X13229336Y-16465246D02*
X13229336Y-16455722D01*
X13229336Y-16455722D02*
X13238859Y-16436674D01*
X13238859Y-16436674D02*
X13257907Y-16427150D01*
X13257907Y-16427150D02*
X13286478Y-16427150D01*
X13286478Y-16427150D02*
X13305526Y-16436674D01*
X13381717Y-16636674D02*
X13391240Y-16627150D01*
X13391240Y-16627150D02*
X13410288Y-16598579D01*
X13410288Y-16598579D02*
X13419812Y-16579531D01*
X13419812Y-16579531D02*
X13429336Y-16550960D01*
X13429336Y-16550960D02*
X13438859Y-16503341D01*
X13438859Y-16503341D02*
X13438859Y-16465246D01*
X13438859Y-16465246D02*
X13429336Y-16417627D01*
X13429336Y-16417627D02*
X13419812Y-16389055D01*
X13419812Y-16389055D02*
X13410288Y-16370008D01*
X13410288Y-16370008D02*
X13391240Y-16341436D01*
X13391240Y-16341436D02*
X13381717Y-16331912D01*
X13743621Y-16636674D02*
X13734097Y-16627150D01*
X13734097Y-16627150D02*
X13715050Y-16598579D01*
X13715050Y-16598579D02*
X13705526Y-16579531D01*
X13705526Y-16579531D02*
X13696002Y-16550960D01*
X13696002Y-16550960D02*
X13686478Y-16503341D01*
X13686478Y-16503341D02*
X13686478Y-16465246D01*
X13686478Y-16465246D02*
X13696002Y-16417627D01*
X13696002Y-16417627D02*
X13705526Y-16389055D01*
X13705526Y-16389055D02*
X13715050Y-16370008D01*
X13715050Y-16370008D02*
X13734097Y-16341436D01*
X13734097Y-16341436D02*
X13743621Y-16331912D01*
X13819812Y-16427150D02*
X13819812Y-16560484D01*
X13819812Y-16446198D02*
X13829336Y-16436674D01*
X13829336Y-16436674D02*
X13848383Y-16427150D01*
X13848383Y-16427150D02*
X13876955Y-16427150D01*
X13876955Y-16427150D02*
X13896002Y-16436674D01*
X13896002Y-16436674D02*
X13905526Y-16455722D01*
X13905526Y-16455722D02*
X13905526Y-16560484D01*
X14029336Y-16560484D02*
X14010288Y-16550960D01*
X14010288Y-16550960D02*
X14000764Y-16541436D01*
X14000764Y-16541436D02*
X13991240Y-16522388D01*
X13991240Y-16522388D02*
X13991240Y-16465246D01*
X13991240Y-16465246D02*
X14000764Y-16446198D01*
X14000764Y-16446198D02*
X14010288Y-16436674D01*
X14010288Y-16436674D02*
X14029336Y-16427150D01*
X14029336Y-16427150D02*
X14057907Y-16427150D01*
X14057907Y-16427150D02*
X14076955Y-16436674D01*
X14076955Y-16436674D02*
X14086478Y-16446198D01*
X14086478Y-16446198D02*
X14096002Y-16465246D01*
X14096002Y-16465246D02*
X14096002Y-16522388D01*
X14096002Y-16522388D02*
X14086478Y-16541436D01*
X14086478Y-16541436D02*
X14076955Y-16550960D01*
X14076955Y-16550960D02*
X14057907Y-16560484D01*
X14057907Y-16560484D02*
X14029336Y-16560484D01*
X14153145Y-16427150D02*
X14229336Y-16427150D01*
X14181717Y-16360484D02*
X14181717Y-16531912D01*
X14181717Y-16531912D02*
X14191240Y-16550960D01*
X14191240Y-16550960D02*
X14210288Y-16560484D01*
X14210288Y-16560484D02*
X14229336Y-16560484D01*
X14448383Y-16427150D02*
X14448383Y-16627150D01*
X14448383Y-16436674D02*
X14467431Y-16427150D01*
X14467431Y-16427150D02*
X14505526Y-16427150D01*
X14505526Y-16427150D02*
X14524574Y-16436674D01*
X14524574Y-16436674D02*
X14534098Y-16446198D01*
X14534098Y-16446198D02*
X14543621Y-16465246D01*
X14543621Y-16465246D02*
X14543621Y-16522388D01*
X14543621Y-16522388D02*
X14534098Y-16541436D01*
X14534098Y-16541436D02*
X14524574Y-16550960D01*
X14524574Y-16550960D02*
X14505526Y-16560484D01*
X14505526Y-16560484D02*
X14467431Y-16560484D01*
X14467431Y-16560484D02*
X14448383Y-16550960D01*
X14657907Y-16560484D02*
X14638859Y-16550960D01*
X14638859Y-16550960D02*
X14629336Y-16531912D01*
X14629336Y-16531912D02*
X14629336Y-16360484D01*
X14819812Y-16560484D02*
X14819812Y-16455722D01*
X14819812Y-16455722D02*
X14810288Y-16436674D01*
X14810288Y-16436674D02*
X14791240Y-16427150D01*
X14791240Y-16427150D02*
X14753145Y-16427150D01*
X14753145Y-16427150D02*
X14734098Y-16436674D01*
X14819812Y-16550960D02*
X14800764Y-16560484D01*
X14800764Y-16560484D02*
X14753145Y-16560484D01*
X14753145Y-16560484D02*
X14734098Y-16550960D01*
X14734098Y-16550960D02*
X14724574Y-16531912D01*
X14724574Y-16531912D02*
X14724574Y-16512865D01*
X14724574Y-16512865D02*
X14734098Y-16493817D01*
X14734098Y-16493817D02*
X14753145Y-16484293D01*
X14753145Y-16484293D02*
X14800764Y-16484293D01*
X14800764Y-16484293D02*
X14819812Y-16474769D01*
X14886479Y-16427150D02*
X14962669Y-16427150D01*
X14915050Y-16360484D02*
X14915050Y-16531912D01*
X14915050Y-16531912D02*
X14924574Y-16550960D01*
X14924574Y-16550960D02*
X14943621Y-16560484D01*
X14943621Y-16560484D02*
X14962669Y-16560484D01*
X15105526Y-16550960D02*
X15086479Y-16560484D01*
X15086479Y-16560484D02*
X15048383Y-16560484D01*
X15048383Y-16560484D02*
X15029336Y-16550960D01*
X15029336Y-16550960D02*
X15019812Y-16531912D01*
X15019812Y-16531912D02*
X15019812Y-16455722D01*
X15019812Y-16455722D02*
X15029336Y-16436674D01*
X15029336Y-16436674D02*
X15048383Y-16427150D01*
X15048383Y-16427150D02*
X15086479Y-16427150D01*
X15086479Y-16427150D02*
X15105526Y-16436674D01*
X15105526Y-16436674D02*
X15115050Y-16455722D01*
X15115050Y-16455722D02*
X15115050Y-16474769D01*
X15115050Y-16474769D02*
X15019812Y-16493817D01*
X15286479Y-16560484D02*
X15286479Y-16360484D01*
X15286479Y-16550960D02*
X15267431Y-16560484D01*
X15267431Y-16560484D02*
X15229336Y-16560484D01*
X15229336Y-16560484D02*
X15210288Y-16550960D01*
X15210288Y-16550960D02*
X15200764Y-16541436D01*
X15200764Y-16541436D02*
X15191240Y-16522388D01*
X15191240Y-16522388D02*
X15191240Y-16465246D01*
X15191240Y-16465246D02*
X15200764Y-16446198D01*
X15200764Y-16446198D02*
X15210288Y-16436674D01*
X15210288Y-16436674D02*
X15229336Y-16427150D01*
X15229336Y-16427150D02*
X15267431Y-16427150D01*
X15267431Y-16427150D02*
X15286479Y-16436674D01*
X15362669Y-16636674D02*
X15372193Y-16627150D01*
X15372193Y-16627150D02*
X15391240Y-16598579D01*
X15391240Y-16598579D02*
X15400764Y-16579531D01*
X15400764Y-16579531D02*
X15410288Y-16550960D01*
X15410288Y-16550960D02*
X15419812Y-16503341D01*
X15419812Y-16503341D02*
X15419812Y-16465246D01*
X15419812Y-16465246D02*
X15410288Y-16417627D01*
X15410288Y-16417627D02*
X15400764Y-16389055D01*
X15400764Y-16389055D02*
X15391240Y-16370008D01*
X15391240Y-16370008D02*
X15372193Y-16341436D01*
X15372193Y-16341436D02*
X15362669Y-16331912D01*
M02*
